<?xml version="1.0"?>


<svg fill-opacity="1" xmlns:xlink="http://www.w3.org/1999/xlink"
     color-rendering="auto" color-interpolation="auto" text-rendering="auto"
     stroke="black" stroke-linecap="square" width="716" stroke-miterlimit="10"
     shape-rendering="auto" stroke-opacity="1" fill="black"
     stroke-dasharray="none" font-weight="normal" stroke-width="1"
     viewBox="0 0 716 459" height="459" xmlns="http://www.w3.org/2000/svg"
     font-family="'Dialog'" font-style="normal" stroke-linejoin="miter"
     font-size="12px" stroke-dashoffset="0" image-rendering="auto">
    <!--Generated by Archi with Batik SVG Generator-->
    <defs id="genericDefs"/>
    <g>
        <defs id="defs1">
            <clipPath clipPathUnits="userSpaceOnUse" id="clipPath1">
                <path d="M9 237 L707 237 L707 379 L9 379 L9 237 Z"/>
            </clipPath>
            <clipPath clipPathUnits="userSpaceOnUse" id="clipPath2">
                <path d="M13 239 L232 239 L232 256 L13 256 L13 239 Z"/>
            </clipPath>
            <clipPath clipPathUnits="userSpaceOnUse" id="clipPath3">
                <path d="M248 9 L370 9 L370 66 L248 66 L248 9 Z"/>
            </clipPath>
            <clipPath clipPathUnits="userSpaceOnUse" id="clipPath4">
                <path d="M275 13 L342 13 L342 30 L275 30 L275 13 Z"/>
            </clipPath>
            <clipPath clipPathUnits="userSpaceOnUse" id="clipPath5">
                <path d="M248 93 L370 93 L370 150 L248 150 L248 93 Z"/>
            </clipPath>
            <clipPath clipPathUnits="userSpaceOnUse" id="clipPath6">
                <path d="M282 97 L335 97 L335 129 L282 129 L282 97 Z"/>
            </clipPath>
            <clipPath clipPathUnits="userSpaceOnUse" id="clipPath7">
                <path d="M32 261 L154 261 L154 318 L32 318 L32 261 Z"/>
            </clipPath>
            <clipPath clipPathUnits="userSpaceOnUse" id="clipPath8">
                <path d="M65 265 L120 265 L120 297 L65 297 L65 265 Z"/>
            </clipPath>
            <clipPath clipPathUnits="userSpaceOnUse" id="clipPath9">
                <path d="M236 261 L358 261 L358 318 L236 318 L236 261 Z"/>
            </clipPath>
            <clipPath clipPathUnits="userSpaceOnUse" id="clipPath10">
                <path d="M259 265 L335 265 L335 282 L259 282 L259 265 Z"/>
            </clipPath>
            <clipPath clipPathUnits="userSpaceOnUse" id="clipPath11">
                <path d="M404 261 L526 261 L526 318 L404 318 L404 261 Z"/>
            </clipPath>
            <clipPath clipPathUnits="userSpaceOnUse" id="clipPath12">
                <path d="M429 265 L500 265 L500 297 L429 297 L429 265 Z"/>
            </clipPath>
            <clipPath clipPathUnits="userSpaceOnUse" id="clipPath13">
                <path d="M560 261 L682 261 L682 318 L560 318 L560 261 Z"/>
            </clipPath>
            <clipPath clipPathUnits="userSpaceOnUse" id="clipPath14">
                <path d="M588 265 L654 265 L654 297 L588 297 L588 265 Z"/>
            </clipPath>
            <clipPath clipPathUnits="userSpaceOnUse" id="clipPath15">
                <path d="M212 393 L334 393 L334 450 L212 450 L212 393 Z"/>
            </clipPath>
            <clipPath clipPathUnits="userSpaceOnUse" id="clipPath16">
                <path d="M237 397 L309 397 L309 429 L237 429 L237 397 Z"/>
            </clipPath>
            <clipPath clipPathUnits="userSpaceOnUse" id="clipPath17">
                <path d="M392 393 L514 393 L514 450 L392 450 L392 393 Z"/>
            </clipPath>
            <clipPath clipPathUnits="userSpaceOnUse" id="clipPath18">
                <path d="M419 397 L486 397 L486 429 L419 429 L419 397 Z"/>
            </clipPath>
            <clipPath clipPathUnits="userSpaceOnUse" id="clipPath19">
                <path d="M298 53 L321 53 L321 106 L298 106 L298 53 Z"/>
            </clipPath>
            <clipPath clipPathUnits="userSpaceOnUse" id="clipPath20">
                <path d="M141 137 L261 137 L261 274 L141 274 L141 137 Z"/>
            </clipPath>
            <clipPath clipPathUnits="userSpaceOnUse" id="clipPath21">
                <path d="M140 137 L261 137 L261 275 L140 275 L140 137 Z"/>
            </clipPath>
            <clipPath clipPathUnits="userSpaceOnUse" id="clipPath22">
                <path d="M150 253 L162 253 L162 265 L150 265 L150 253 Z"/>
            </clipPath>
            <clipPath clipPathUnits="userSpaceOnUse" id="clipPath23">
                <path d="M292 137 L315 137 L315 274 L292 274 L292 137 Z"/>
            </clipPath>
            <clipPath clipPathUnits="userSpaceOnUse" id="clipPath24">
                <path d="M289 137 L325 137 L325 275 L289 275 L289 137 Z"/>
            </clipPath>
            <clipPath clipPathUnits="userSpaceOnUse" id="clipPath25">
                <path d="M299 253 L310 253 L310 265 L299 265 L299 253 Z"/>
            </clipPath>
            <clipPath clipPathUnits="userSpaceOnUse" id="clipPath26">
                <path d="M357 137 L417 137 L417 274 L357 274 L357 137 Z"/>
            </clipPath>
            <clipPath clipPathUnits="userSpaceOnUse" id="clipPath27">
                <path d="M357 137 L573 137 L573 274 L357 274 L357 137 Z"/>
            </clipPath>
            <clipPath clipPathUnits="userSpaceOnUse" id="clipPath28">
                <path d="M141 305 L225 305 L225 406 L141 406 L141 305 Z"/>
            </clipPath>
            <clipPath clipPathUnits="userSpaceOnUse" id="clipPath29">
                <path d="M274 305 L297 305 L297 406 L274 406 L274 305 Z"/>
            </clipPath>
            <clipPath clipPathUnits="userSpaceOnUse" id="clipPath30">
                <path d="M321 305 L417 305 L417 406 L321 406 L321 305 Z"/>
            </clipPath>
            <clipPath clipPathUnits="userSpaceOnUse" id="clipPath31">
                <path d="M498 305 L573 305 L573 409 L498 409 L498 305 Z"/>
            </clipPath>
        </defs>
        <g fill="rgb(189,193,193)" text-rendering="optimizeLegibility"
           font-family="'Lucida Grande'" stroke-linejoin="round"
           stroke="rgb(189,193,193)" stroke-width="0" stroke-miterlimit="0">
            <path d="M10 238 L357 238 L357 256 L10 256 L10 238"
                  fill-rule="evenodd" clip-path="url(#clipPath1)" stroke="none"/>
            <path fill="rgb(210,215,215)" d="M10 256 L705 256 L705 377 L10 377"
                  clip-path="url(#clipPath1)" fill-rule="evenodd" stroke="none"/>
        </g>
        <g fill="rgb(147,150,150)" text-rendering="optimizeLegibility"
           font-family="'Lucida Grande'" stroke-linecap="butt"
           stroke="rgb(147,150,150)">
            <path fill="none" d="M10 256 L10 238 L357 238 L357 256"
                  fill-rule="evenodd" clip-path="url(#clipPath1)"/>
            <rect fill="none" x="10" width="695" height="121" y="256"
                  clip-path="url(#clipPath1)"/>
            <path fill="black"
                  d="M15.1191 252 L15.1191 243.3281 L16.8242 243.3281 L19.2266 250.0371 L21.6992 243.3281 L23.2227 243.3281 L23.2227 252 L22.0742 252 L22.0742 244.9453 L19.6836 251.4199 L18.4941 251.4199 L16.1738 244.9277 L16.1738 252 ZM27.9805 252.1465 Q26.6152 252.1465 25.8008 251.2412 Q24.9863 250.3359 24.9863 248.8184 Q24.9863 247.2832 25.8037 246.3896 Q26.6211 245.4961 28.0215 245.4961 Q29.4219 245.4961 30.2393 246.3896 Q31.0566 247.2832 31.0566 248.8066 Q31.0566 250.3652 30.2363 251.2559 Q29.416 252.1465 27.9805 252.1465 ZM27.998 251.2793 Q29.832 251.2793 29.832 248.8066 Q29.832 246.3633 28.0215 246.3633 Q26.2168 246.3633 26.2168 248.8184 Q26.2168 251.2793 27.998 251.2793 ZM36.9453 252 L36.9453 250.8047 Q36.2422 252.1465 34.8242 252.1465 Q33.6758 252.1465 33.0166 251.3086 Q32.3574 250.4707 32.3574 249.0176 Q32.3574 247.4297 33.1045 246.4629 Q33.8516 245.4961 35.0703 245.4961 Q36.2012 245.4961 36.9453 246.3633 L36.9453 242.748 L38.1055 242.748 L38.1055 252 ZM36.9453 247.1543 Q36.0488 246.3633 35.2461 246.3633 Q33.5879 246.3633 33.5879 248.9004 Q33.5879 251.1328 35.0645 251.1328 Q36.0254 251.1328 36.9453 250.084 ZM44.3926 252 L44.3926 250.8047 Q43.4727 252.1465 42.1602 252.1465 Q41.3281 252.1465 40.8359 251.6221 Q40.3438 251.0977 40.3438 250.207 L40.3438 245.6367 L41.498 245.6367 L41.498 249.832 Q41.498 250.5469 41.7061 250.8486 Q41.9141 251.1504 42.4004 251.1504 Q43.4551 251.1504 44.3926 249.7617 L44.3926 245.6367 L45.5469 245.6367 L45.5469 252 ZM47.8613 252 L47.8613 242.748 L49.0156 242.748 L49.0156 252 ZM54.6113 251.1914 Q53.5742 252.1465 52.6133 252.1465 Q51.8223 252.1465 51.3008 251.6514 Q50.7793 251.1562 50.7793 250.4004 Q50.7793 249.3574 51.6553 248.7979 Q52.5312 248.2383 54.166 248.2383 L54.4414 248.2383 L54.4414 247.4707 Q54.4414 246.3633 53.3047 246.3633 Q52.3906 246.3633 51.3301 246.9258 L51.3301 245.9707 Q52.4961 245.4961 53.5156 245.4961 Q54.582 245.4961 55.0889 245.9766 Q55.5957 246.457 55.5957 247.4707 L55.5957 250.3535 Q55.5957 251.3438 56.2051 251.3438 Q56.2812 251.3438 56.4277 251.3203 L56.5098 251.959 Q56.1172 252.1465 55.6426 252.1465 Q54.834 252.1465 54.6113 251.1914 ZM54.4414 250.5645 L54.4414 248.918 L54.0547 248.9062 Q53.1055 248.9062 52.5195 249.2666 Q51.9336 249.627 51.9336 250.2129 Q51.9336 250.6289 52.2266 250.916 Q52.5195 251.2031 52.9414 251.2031 Q53.6621 251.2031 54.4414 250.5645 ZM57.957 252 L57.957 245.6367 L59.1113 245.6367 L59.1113 246.832 Q59.7969 245.4961 61.1035 245.4961 Q61.2793 245.4961 61.4727 245.5254 L61.4727 246.6035 Q61.1738 246.5039 60.9453 246.5039 Q59.8496 246.5039 59.1113 247.8047 L59.1113 252 ZM66.6641 252 L66.6641 245.6367 L67.8184 245.6367 L67.8184 246.832 Q68.6621 245.4961 69.9863 245.4961 Q71.2637 245.4961 71.7266 246.832 Q72.5469 245.4902 73.8594 245.4902 Q74.7031 245.4902 75.166 245.9854 Q75.6289 246.4805 75.6289 247.3711 L75.6289 252 L74.4688 252 L74.4688 247.5527 Q74.4688 246.4629 73.6074 246.4629 Q72.7109 246.4629 71.7266 247.7344 L71.7266 252 L70.5664 252 L70.5664 247.5527 Q70.5664 246.457 69.6875 246.457 Q68.8145 246.457 67.8184 247.7344 L67.8184 252 ZM80.3574 252.1465 Q78.9922 252.1465 78.1777 251.2412 Q77.3633 250.3359 77.3633 248.8184 Q77.3633 247.2832 78.1807 246.3896 Q78.998 245.4961 80.3984 245.4961 Q81.7988 245.4961 82.6162 246.3896 Q83.4336 247.2832 83.4336 248.8066 Q83.4336 250.3652 82.6133 251.2559 Q81.793 252.1465 80.3574 252.1465 ZM80.375 251.2793 Q82.209 251.2793 82.209 248.8066 Q82.209 246.3633 80.3984 246.3633 Q78.5938 246.3633 78.5938 248.8184 Q78.5938 251.2793 80.375 251.2793 ZM85.2383 252 L85.2383 245.6367 L86.3926 245.6367 L86.3926 246.832 Q87.3066 245.4961 88.6309 245.4961 Q89.457 245.4961 89.9492 246.0205 Q90.4414 246.5449 90.4414 247.4297 L90.4414 252 L89.2871 252 L89.2871 247.8047 Q89.2871 247.0957 89.0791 246.7939 Q88.8711 246.4922 88.3906 246.4922 Q87.3301 246.4922 86.3926 247.8809 L86.3926 252 ZM95.1758 252.1465 Q93.8105 252.1465 92.9961 251.2412 Q92.1816 250.3359 92.1816 248.8184 Q92.1816 247.2832 92.999 246.3896 Q93.8164 245.4961 95.2168 245.4961 Q96.6172 245.4961 97.4346 246.3896 Q98.252 247.2832 98.252 248.8066 Q98.252 250.3652 97.4316 251.2559 Q96.6113 252.1465 95.1758 252.1465 ZM95.1934 251.2793 Q97.0273 251.2793 97.0273 248.8066 Q97.0273 246.3633 95.2168 246.3633 Q93.4121 246.3633 93.4121 248.8184 Q93.4121 251.2793 95.1934 251.2793 ZM100.0566 252 L100.0566 242.748 L101.2109 242.748 L101.2109 252 ZM103.5254 252 L103.5254 245.6367 L104.6797 245.6367 L104.6797 252 ZM103.5254 244.4824 L103.5254 243.3281 L104.6797 243.3281 L104.6797 244.4824 ZM108.9043 252.1465 Q108.0254 252.1465 107.5332 251.6426 Q107.041 251.1387 107.041 250.2422 L107.041 246.5039 L106.2441 246.5039 L106.2441 245.6367 L107.041 245.6367 L107.041 244.4824 L108.1953 244.3711 L108.1953 245.6367 L109.8594 245.6367 L109.8594 246.5039 L108.1953 246.5039 L108.1953 250.0312 Q108.1953 251.2793 109.2734 251.2793 Q109.502 251.2793 109.8301 251.2031 L109.8301 252 Q109.2969 252.1465 108.9043 252.1465 ZM111.4824 252 L111.4824 242.748 L112.6367 242.748 L112.6367 246.832 Q113.5508 245.4961 114.875 245.4961 Q115.7012 245.4961 116.1934 246.0205 Q116.6855 246.5449 116.6855 247.4297 L116.6855 252 L115.5312 252 L115.5312 247.8047 Q115.5312 247.0957 115.3232 246.7939 Q115.1152 246.4922 114.6348 246.4922 Q113.5742 246.4922 112.6367 247.8809 L112.6367 252 ZM118.6426 248.9648 L118.6426 248.0977 L123.8457 248.0977 L123.8457 248.9648 ZM131.3574 252.1465 Q130.5664 252.1465 129.4355 251.7773 L129.4355 250.7168 Q130.5664 251.2793 131.4043 251.2793 Q131.9023 251.2793 132.2305 251.0098 Q132.5586 250.7402 132.5586 250.3359 Q132.5586 249.7441 131.6387 249.3574 L130.9648 249.0703 Q129.4707 248.4492 129.4707 247.2832 Q129.4707 246.4512 130.0596 245.9736 Q130.6484 245.4961 131.6738 245.4961 Q132.207 245.4961 132.9922 245.6426 L133.2324 245.6895 L133.2324 246.6504 Q132.2656 246.3633 131.6973 246.3633 Q130.584 246.3633 130.584 247.1719 Q130.584 247.6934 131.4277 248.0508 L131.9844 248.2852 Q132.9277 248.6836 133.3203 249.126 Q133.7129 249.5684 133.7129 250.2305 Q133.7129 251.0684 133.0508 251.6074 Q132.3887 252.1465 131.3574 252.1465 ZM135.7871 252 L135.7871 245.6367 L136.9414 245.6367 L136.9414 252 ZM135.7871 244.4824 L135.7871 243.3281 L136.9414 243.3281 L136.9414 244.4824 ZM139.2559 252 L139.2559 245.6367 L140.4102 245.6367 L140.4102 246.832 Q141.3242 245.4961 142.6484 245.4961 Q143.4746 245.4961 143.9668 246.0205 Q144.459 246.5449 144.459 247.4297 L144.459 252 L143.3047 252 L143.3047 247.8047 Q143.3047 247.0957 143.0967 246.7939 Q142.8887 246.4922 142.4082 246.4922 Q141.3477 246.4922 140.4102 247.8809 L140.4102 252 ZM146.7266 254.1152 L146.8613 253.1133 Q147.8633 253.5879 148.8359 253.5879 Q150.7871 253.5879 150.7871 251.5195 L150.7871 250.5176 Q150.1484 251.8535 148.6895 251.8535 Q147.5469 251.8535 146.873 251.0215 Q146.1992 250.1895 146.1992 248.7773 Q146.1992 247.3242 146.9668 246.4102 Q147.7344 245.4961 148.9531 245.4961 Q150.0195 245.4961 150.7871 246.3633 L150.7871 245.6367 L151.9473 245.6367 L151.9473 250.2656 Q151.9473 251.7598 151.792 252.4775 Q151.6367 253.1953 151.209 253.6523 Q150.4531 254.4551 148.8594 254.4551 Q147.7461 254.4551 146.7266 254.1152 ZM150.7871 249.7969 L150.7871 247.1543 Q150.0254 246.3633 149.1289 246.3633 Q148.332 246.3633 147.8809 247.002 Q147.4297 247.6406 147.4297 248.7539 Q147.4297 250.8457 148.9004 250.8457 Q149.9023 250.8457 150.7871 249.7969 ZM154.1855 252 L154.1855 242.748 L155.3398 242.748 L155.3398 252 ZM162.3184 251.7949 Q161.1582 252.1465 160.332 252.1465 Q158.9258 252.1465 158.0381 251.2119 Q157.1504 250.2773 157.1504 248.7891 Q157.1504 247.3418 157.9326 246.416 Q158.7148 245.4902 159.9336 245.4902 Q161.0879 245.4902 161.7178 246.3105 Q162.3477 247.1309 162.3477 248.6426 L162.3418 249 L158.3281 249 Q158.5801 251.2676 160.5488 251.2676 Q161.2695 251.2676 162.3184 250.8809 ZM158.3809 248.1328 L161.1875 248.1328 Q161.1875 246.3574 159.8633 246.3574 Q158.5332 246.3574 158.3809 248.1328 ZM172.2207 252 L172.2207 250.8047 Q171.5176 252.1465 170.0996 252.1465 Q168.9512 252.1465 168.292 251.3086 Q167.6328 250.4707 167.6328 249.0176 Q167.6328 247.4297 168.3799 246.4629 Q169.127 245.4961 170.3457 245.4961 Q171.4766 245.4961 172.2207 246.3633 L172.2207 242.748 L173.3809 242.748 L173.3809 252 ZM172.2207 247.1543 Q171.3242 246.3633 170.5215 246.3633 Q168.8633 246.3633 168.8633 248.9004 Q168.8633 251.1328 170.3398 251.1328 Q171.3008 251.1328 172.2207 250.084 ZM180.3535 251.7949 Q179.1934 252.1465 178.3672 252.1465 Q176.9609 252.1465 176.0732 251.2119 Q175.1855 250.2773 175.1855 248.7891 Q175.1855 247.3418 175.9678 246.416 Q176.75 245.4902 177.9688 245.4902 Q179.123 245.4902 179.7529 246.3105 Q180.3828 247.1309 180.3828 248.6426 L180.377 249 L176.3633 249 Q176.6152 251.2676 178.584 251.2676 Q179.3047 251.2676 180.3535 250.8809 ZM176.416 248.1328 L179.2227 248.1328 Q179.2227 246.3574 177.8984 246.3574 Q176.5684 246.3574 176.416 248.1328 ZM182.375 254.3145 L182.375 245.6367 L183.5293 245.6367 L183.5293 246.832 Q184.2383 245.4961 185.6562 245.4961 Q186.8047 245.4961 187.4639 246.334 Q188.123 247.1719 188.123 248.625 Q188.123 250.207 187.376 251.1768 Q186.6289 252.1465 185.4102 252.1465 Q184.2793 252.1465 183.5293 251.2793 L183.5293 254.3145 ZM183.5293 250.4824 Q184.4199 251.2793 185.2285 251.2793 Q186.8926 251.2793 186.8926 248.7422 Q186.8926 246.5039 185.416 246.5039 Q184.4492 246.5039 183.5293 247.5527 ZM189.9277 252 L189.9277 242.748 L191.082 242.748 L191.082 252 ZM195.8867 252.1465 Q194.5215 252.1465 193.707 251.2412 Q192.8926 250.3359 192.8926 248.8184 Q192.8926 247.2832 193.71 246.3896 Q194.5273 245.4961 195.9277 245.4961 Q197.3281 245.4961 198.1455 246.3896 Q198.9629 247.2832 198.9629 248.8066 Q198.9629 250.3652 198.1426 251.2559 Q197.3223 252.1465 195.8867 252.1465 ZM195.9043 251.2793 Q197.7383 251.2793 197.7383 248.8066 Q197.7383 246.3633 195.9277 246.3633 Q194.123 246.3633 194.123 248.8184 Q194.123 251.2793 195.9043 251.2793 ZM201.1367 254.3145 L202.168 252 L199.707 245.6367 L200.9551 245.6367 L202.7773 250.4297 L204.7227 245.6367 L205.8125 245.6367 L202.3379 254.3145 ZM210.3184 251.1914 Q209.2812 252.1465 208.3203 252.1465 Q207.5293 252.1465 207.0078 251.6514 Q206.4863 251.1562 206.4863 250.4004 Q206.4863 249.3574 207.3623 248.7979 Q208.2383 248.2383 209.873 248.2383 L210.1484 248.2383 L210.1484 247.4707 Q210.1484 246.3633 209.0117 246.3633 Q208.0977 246.3633 207.0371 246.9258 L207.0371 245.9707 Q208.2031 245.4961 209.2227 245.4961 Q210.2891 245.4961 210.7959 245.9766 Q211.3027 246.457 211.3027 247.4707 L211.3027 250.3535 Q211.3027 251.3438 211.9121 251.3438 Q211.9883 251.3438 212.1348 251.3203 L212.2168 251.959 Q211.8242 252.1465 211.3496 252.1465 Q210.541 252.1465 210.3184 251.1914 ZM210.1484 250.5645 L210.1484 248.918 L209.7617 248.9062 Q208.8125 248.9062 208.2266 249.2666 Q207.6406 249.627 207.6406 250.2129 Q207.6406 250.6289 207.9336 250.916 Q208.2266 251.2031 208.6484 251.2031 Q209.3691 251.2031 210.1484 250.5645 ZM213.6641 252.0703 L213.6641 242.748 L214.8184 242.748 L214.8184 246.832 Q215.5273 245.4961 216.9453 245.4961 Q218.0938 245.4961 218.7529 246.334 Q219.4121 247.1719 219.4121 248.625 Q219.4121 250.207 218.665 251.1768 Q217.918 252.1465 216.6992 252.1465 Q215.5684 252.1465 214.8184 251.2793 L214.6777 252.0703 ZM214.8184 250.4824 Q215.709 251.2793 216.5176 251.2793 Q218.1816 251.2793 218.1816 248.7422 Q218.1816 246.5039 216.7051 246.5039 Q215.7383 246.5039 214.8184 247.5527 ZM221.2168 252 L221.2168 242.748 L222.3711 242.748 L222.3711 252 ZM229.3496 251.7949 Q228.1895 252.1465 227.3633 252.1465 Q225.957 252.1465 225.0693 251.2119 Q224.1816 250.2773 224.1816 248.7891 Q224.1816 247.3418 224.9639 246.416 Q225.7461 245.4902 226.9648 245.4902 Q228.1191 245.4902 228.749 246.3105 Q229.3789 247.1309 229.3789 248.6426 L229.373 249 L225.3594 249 Q225.6113 251.2676 227.5801 251.2676 Q228.3008 251.2676 229.3496 250.8809 ZM225.4121 248.1328 L228.2188 248.1328 Q228.2188 246.3574 226.8945 246.3574 Q225.5645 246.3574 225.4121 248.1328 Z"
                  clip-path="url(#clipPath2)" stroke="none"/>
            <rect x="249" y="10" clip-path="url(#clipPath3)"
                  fill="rgb(181,255,255)" width="119" height="54" stroke="none"/>
            <rect x="249" y="10" clip-path="url(#clipPath3)" fill="none"
                  width="119" height="54" stroke="rgb(126,178,178)"/>
            <path fill="none"
                  d="M354 29 L354 25 M354 23 L354 21 M354 18 L354 16 L364 16 L364 29 L353.5 29 M351 18 L357 18 L357 20.5 L351 20.5 ZM351 23 L357 23 L357 25.5 L351 25.5 Z"
                  clip-path="url(#clipPath3)" fill-rule="evenodd" stroke="black"/>
            <path fill="black"
                  d="M277.1191 26 L277.1191 17.3281 L278.8242 17.3281 L281.2266 24.0371 L283.6992 17.3281 L285.2227 17.3281 L285.2227 26 L284.0742 26 L284.0742 18.9453 L281.6836 25.4199 L280.4941 25.4199 L278.1738 18.9277 L278.1738 26 ZM289.9805 26.1465 Q288.6152 26.1465 287.8008 25.2412 Q286.9863 24.3359 286.9863 22.8184 Q286.9863 21.2832 287.8037 20.3896 Q288.6211 19.4961 290.0215 19.4961 Q291.4219 19.4961 292.2393 20.3896 Q293.0566 21.2832 293.0566 22.8066 Q293.0566 24.3652 292.2363 25.2559 Q291.416 26.1465 289.9805 26.1465 ZM289.998 25.2793 Q291.832 25.2793 291.832 22.8066 Q291.832 20.3633 290.0215 20.3633 Q288.2168 20.3633 288.2168 22.8184 Q288.2168 25.2793 289.998 25.2793 ZM294.8613 26.0703 L294.8613 16.748 L296.0156 16.748 L296.0156 20.832 Q296.7246 19.4961 298.1426 19.4961 Q299.291 19.4961 299.9502 20.334 Q300.6094 21.1719 300.6094 22.625 Q300.6094 24.207 299.8623 25.1768 Q299.1152 26.1465 297.8965 26.1465 Q296.7656 26.1465 296.0156 25.2793 L295.875 26.0703 ZM296.0156 24.4824 Q296.9062 25.2793 297.7148 25.2793 Q299.3789 25.2793 299.3789 22.7422 Q299.3789 20.5039 297.9023 20.5039 Q296.9355 20.5039 296.0156 21.5527 ZM302.4141 26 L302.4141 19.6367 L303.5684 19.6367 L303.5684 26 ZM302.4141 18.4824 L302.4141 17.3281 L303.5684 17.3281 L303.5684 18.4824 ZM305.8828 26 L305.8828 16.748 L307.0371 16.748 L307.0371 26 ZM314.0156 25.7949 Q312.8555 26.1465 312.0293 26.1465 Q310.623 26.1465 309.7354 25.2119 Q308.8477 24.2773 308.8477 22.7891 Q308.8477 21.3418 309.6299 20.416 Q310.4121 19.4902 311.6309 19.4902 Q312.7852 19.4902 313.415 20.3105 Q314.0449 21.1309 314.0449 22.6426 L314.0391 23 L310.0254 23 Q310.2773 25.2676 312.2461 25.2676 Q312.9668 25.2676 314.0156 24.8809 ZM310.0781 22.1328 L312.8848 22.1328 Q312.8848 20.3574 311.5605 20.3574 Q310.2305 20.3574 310.0781 22.1328 ZM323.1152 25.1914 Q322.0781 26.1465 321.1172 26.1465 Q320.3262 26.1465 319.8047 25.6514 Q319.2832 25.1562 319.2832 24.4004 Q319.2832 23.3574 320.1592 22.7979 Q321.0352 22.2383 322.6699 22.2383 L322.9453 22.2383 L322.9453 21.4707 Q322.9453 20.3633 321.8086 20.3633 Q320.8945 20.3633 319.834 20.9258 L319.834 19.9707 Q321 19.4961 322.0195 19.4961 Q323.0859 19.4961 323.5928 19.9766 Q324.0996 20.457 324.0996 21.4707 L324.0996 24.3535 Q324.0996 25.3438 324.709 25.3438 Q324.7852 25.3438 324.9316 25.3203 L325.0137 25.959 Q324.6211 26.1465 324.1465 26.1465 Q323.3379 26.1465 323.1152 25.1914 ZM322.9453 24.5645 L322.9453 22.918 L322.5586 22.9062 Q321.6094 22.9062 321.0234 23.2666 Q320.4375 23.627 320.4375 24.2129 Q320.4375 24.6289 320.7305 24.916 Q321.0234 25.2031 321.4453 25.2031 Q322.166 25.2031 322.9453 24.5645 ZM326.4609 28.3145 L326.4609 19.6367 L327.6152 19.6367 L327.6152 20.832 Q328.3242 19.4961 329.7422 19.4961 Q330.8906 19.4961 331.5498 20.334 Q332.209 21.1719 332.209 22.625 Q332.209 24.207 331.4619 25.1768 Q330.7148 26.1465 329.4961 26.1465 Q328.3652 26.1465 327.6152 25.2793 L327.6152 28.3145 ZM327.6152 24.4824 Q328.5059 25.2793 329.3145 25.2793 Q330.9785 25.2793 330.9785 22.7422 Q330.9785 20.5039 329.502 20.5039 Q328.5352 20.5039 327.6152 21.5527 ZM334.0137 28.3145 L334.0137 19.6367 L335.168 19.6367 L335.168 20.832 Q335.877 19.4961 337.2949 19.4961 Q338.4434 19.4961 339.1025 20.334 Q339.7617 21.1719 339.7617 22.625 Q339.7617 24.207 339.0146 25.1768 Q338.2676 26.1465 337.0488 26.1465 Q335.918 26.1465 335.168 25.2793 L335.168 28.3145 ZM335.168 24.4824 Q336.0586 25.2793 336.8672 25.2793 Q338.5312 25.2793 338.5312 22.7422 Q338.5312 20.5039 337.0547 20.5039 Q336.0879 20.5039 335.168 21.5527 Z"
                  clip-path="url(#clipPath4)" stroke="none"/>
            <rect x="249" y="94" clip-path="url(#clipPath5)"
                  fill="rgb(181,255,255)" width="119" height="54" stroke="none"/>
            <rect x="249" y="94" clip-path="url(#clipPath5)" fill="none"
                  width="119" height="54" stroke="rgb(126,178,178)"/>
            <path fill="none"
                  d="M354 113 L354 109 M354 107 L354 105 M354 102 L354 100 L364 100 L364 113 L353.5 113 M351 102 L357 102 L357 104.5 L351 104.5 ZM351 107 L357 107 L357 109.5 L351 109.5 Z"
                  clip-path="url(#clipPath5)" fill-rule="evenodd" stroke="black"/>
            <path fill="black"
                  d="M284.1191 110 L284.1191 101.3281 L286.7441 101.3281 Q287.9922 101.3281 288.6572 101.8789 Q289.3223 102.4297 289.3223 103.4785 Q289.3223 105.2129 287.5703 105.9395 L290.4648 110 L288.9531 110 L286.4863 106.332 L285.3379 106.332 L285.3379 110 ZM285.3379 105.4121 L285.7363 105.4121 Q288.0566 105.4121 288.0566 103.5898 Q288.0566 102.248 286.1113 102.248 L285.3379 102.248 ZM291.707 110 L291.707 101.3281 L296.5527 101.3281 L296.5527 102.248 L292.9375 102.248 L292.9375 105.0312 L295.9668 105.0312 L295.9668 105.9395 L292.9375 105.9395 L292.9375 109.0801 L296.8047 109.0801 L296.8047 110 ZM299.9102 110.2168 Q299.0371 110.2168 297.6777 109.8359 L297.6777 108.6172 Q299.1426 109.2969 300.0859 109.2969 Q300.8125 109.2969 301.2549 108.916 Q301.6973 108.5352 301.6973 107.9141 Q301.6973 107.4043 301.4072 107.0469 Q301.1172 106.6895 300.3379 106.25 L299.7402 105.9043 Q298.6328 105.2715 298.1787 104.7119 Q297.7246 104.1523 297.7246 103.4082 Q297.7246 102.4062 298.4512 101.7588 Q299.1777 101.1113 300.3027 101.1113 Q301.3047 101.1113 302.418 101.4453 L302.418 102.5703 Q301.0469 102.0312 300.373 102.0312 Q299.7344 102.0312 299.3184 102.3711 Q298.9023 102.7109 298.9023 103.2266 Q298.9023 103.6602 299.207 103.9941 Q299.5117 104.3281 300.3203 104.791 L300.9414 105.1426 Q302.0664 105.7812 302.5117 106.3496 Q302.957 106.918 302.957 107.7148 Q302.957 108.8457 302.1221 109.5312 Q301.2871 110.2168 299.9102 110.2168 ZM306.7363 110 L306.7363 102.248 L303.6602 102.248 L303.6602 101.3281 L311.043 101.3281 L311.043 102.248 L307.9668 102.248 L307.9668 110 ZM320.4531 106.6836 L318.9766 102.9453 L317.4941 106.6836 ZM321.7539 110 L320.8105 107.5977 L317.1367 107.5977 L316.1816 110 L315.0391 110 L318.4785 101.3281 L319.6973 101.3281 L323.084 110 ZM324.3379 110 L324.3379 101.3281 L326.6992 101.3281 Q328.2695 101.3281 328.9551 101.8584 Q329.6406 102.3887 329.6406 103.6016 Q329.6406 104.9844 328.7031 105.7695 Q327.7656 106.5547 326.1016 106.5547 L325.5566 106.5547 L325.5566 110 ZM325.5566 105.623 L326.0547 105.623 Q327.1504 105.623 327.748 105.1191 Q328.3457 104.6152 328.3457 103.6953 Q328.3457 102.916 327.877 102.582 Q327.4082 102.248 326.3125 102.248 L325.5566 102.248 ZM330.9648 110 L330.9648 101.3281 L332.1953 101.3281 L332.1953 110 Z"
                  clip-path="url(#clipPath6)" stroke="none"/>
            <path fill="black"
                  d="M296.1543 125 L296.1543 115.748 L297.3086 115.748 L297.3086 125 ZM302.9043 124.1914 Q301.8672 125.1465 300.9062 125.1465 Q300.1152 125.1465 299.5938 124.6514 Q299.0723 124.1562 299.0723 123.4004 Q299.0723 122.3574 299.9482 121.7979 Q300.8242 121.2383 302.459 121.2383 L302.7344 121.2383 L302.7344 120.4707 Q302.7344 119.3633 301.5977 119.3633 Q300.6836 119.3633 299.623 119.9258 L299.623 118.9707 Q300.7891 118.4961 301.8086 118.4961 Q302.875 118.4961 303.3818 118.9766 Q303.8887 119.457 303.8887 120.4707 L303.8887 123.3535 Q303.8887 124.3438 304.498 124.3438 Q304.5742 124.3438 304.7207 124.3203 L304.8027 124.959 Q304.4102 125.1465 303.9355 125.1465 Q303.127 125.1465 302.9043 124.1914 ZM302.7344 123.5645 L302.7344 121.918 L302.3477 121.9062 Q301.3984 121.9062 300.8125 122.2666 Q300.2266 122.627 300.2266 123.2129 Q300.2266 123.6289 300.5195 123.916 Q300.8125 124.2031 301.2344 124.2031 Q301.9551 124.2031 302.7344 123.5645 ZM306.6191 127.3145 L307.6504 125 L305.1895 118.6367 L306.4375 118.6367 L308.2598 123.4297 L310.2051 118.6367 L311.2949 118.6367 L307.8203 127.3145 ZM317.1836 124.7949 Q316.0234 125.1465 315.1973 125.1465 Q313.791 125.1465 312.9033 124.2119 Q312.0156 123.2773 312.0156 121.7891 Q312.0156 120.3418 312.7979 119.416 Q313.5801 118.4902 314.7988 118.4902 Q315.9531 118.4902 316.583 119.3105 Q317.2129 120.1309 317.2129 121.6426 L317.207 122 L313.1934 122 Q313.4453 124.2676 315.4141 124.2676 Q316.1348 124.2676 317.1836 123.8809 ZM313.2461 121.1328 L316.0527 121.1328 Q316.0527 119.3574 314.7285 119.3574 Q313.3984 119.3574 313.2461 121.1328 ZM319.2051 125 L319.2051 118.6367 L320.3594 118.6367 L320.3594 119.832 Q321.0449 118.4961 322.3516 118.4961 Q322.5273 118.4961 322.7207 118.5254 L322.7207 119.6035 Q322.4219 119.5039 322.1934 119.5039 Q321.0977 119.5039 320.3594 120.8047 L320.3594 125 Z"
                  clip-path="url(#clipPath6)" stroke="none"/>
            <rect x="33" y="262" clip-path="url(#clipPath7)"
                  fill="rgb(181,255,255)" width="119" height="54" stroke="none"/>
            <rect x="33" y="262" clip-path="url(#clipPath7)" fill="none"
                  width="119" height="54" stroke="rgb(126,178,178)"/>
            <path fill="none"
                  d="M138 281 L138 277 M138 275 L138 273 M138 270 L138 268 L148 268 L148 281 L137.5 281 M135 270 L141 270 L141 272.5 L135 272.5 ZM135 275 L141 275 L141 277.5 L135 277.5 Z"
                  clip-path="url(#clipPath7)" fill-rule="evenodd" stroke="black"/>
            <path fill="black"
                  d="M67.1191 278 L67.1191 269.3281 L71.9648 269.3281 L71.9648 270.248 L68.3496 270.248 L68.3496 273.1543 L71.3848 273.1543 L71.3848 274.0625 L68.3496 274.0625 L68.3496 278 ZM73.5879 278 L73.5879 271.6367 L74.7422 271.6367 L74.7422 278 ZM73.5879 270.4824 L73.5879 269.3281 L74.7422 269.3281 L74.7422 270.4824 ZM81.7207 277.7949 Q80.5605 278.1465 79.7344 278.1465 Q78.3281 278.1465 77.4404 277.2119 Q76.5527 276.2773 76.5527 274.7891 Q76.5527 273.3418 77.335 272.416 Q78.1172 271.4902 79.3359 271.4902 Q80.4902 271.4902 81.1201 272.3105 Q81.75 273.1309 81.75 274.6426 L81.7441 275 L77.7305 275 Q77.9824 277.2676 79.9512 277.2676 Q80.6719 277.2676 81.7207 276.8809 ZM77.7832 274.1328 L80.5898 274.1328 Q80.5898 272.3574 79.2656 272.3574 Q77.9355 272.3574 77.7832 274.1328 ZM83.7422 278 L83.7422 268.748 L84.8965 268.748 L84.8965 278 ZM91.2949 278 L91.2949 276.8047 Q90.5918 278.1465 89.1738 278.1465 Q88.0254 278.1465 87.3662 277.3086 Q86.707 276.4707 86.707 275.0176 Q86.707 273.4297 87.4541 272.4629 Q88.2012 271.4961 89.4199 271.4961 Q90.5508 271.4961 91.2949 272.3633 L91.2949 268.748 L92.4551 268.748 L92.4551 278 ZM91.2949 273.1543 Q90.3984 272.3633 89.5957 272.3633 Q87.9375 272.3633 87.9375 274.9004 Q87.9375 277.1328 89.4141 277.1328 Q90.375 277.1328 91.2949 276.084 ZM101.0508 278.1465 Q99.6855 278.1465 98.8711 277.2412 Q98.0566 276.3359 98.0566 274.8184 Q98.0566 273.2832 98.874 272.3896 Q99.6914 271.4961 101.0918 271.4961 Q102.4922 271.4961 103.3096 272.3896 Q104.127 273.2832 104.127 274.8066 Q104.127 276.3652 103.3066 277.2559 Q102.4863 278.1465 101.0508 278.1465 ZM101.0684 277.2793 Q102.9023 277.2793 102.9023 274.8066 Q102.9023 272.3633 101.0918 272.3633 Q99.2871 272.3633 99.2871 274.8184 Q99.2871 277.2793 101.0684 277.2793 ZM105.9316 280.3145 L105.9316 271.6367 L107.0859 271.6367 L107.0859 272.832 Q107.7949 271.4961 109.2129 271.4961 Q110.3613 271.4961 111.0205 272.334 Q111.6797 273.1719 111.6797 274.625 Q111.6797 276.207 110.9326 277.1768 Q110.1855 278.1465 108.9668 278.1465 Q107.8359 278.1465 107.0859 277.2793 L107.0859 280.3145 ZM107.0859 276.4824 Q107.9766 277.2793 108.7852 277.2793 Q110.4492 277.2793 110.4492 274.7422 Q110.4492 272.5039 108.9727 272.5039 Q108.0059 272.5039 107.0859 273.5527 ZM115.1719 278.1465 Q114.3809 278.1465 113.25 277.7773 L113.25 276.7168 Q114.3809 277.2793 115.2188 277.2793 Q115.7168 277.2793 116.0449 277.0098 Q116.373 276.7402 116.373 276.3359 Q116.373 275.7441 115.4531 275.3574 L114.7793 275.0703 Q113.2852 274.4492 113.2852 273.2832 Q113.2852 272.4512 113.874 271.9736 Q114.4629 271.4961 115.4883 271.4961 Q116.0215 271.4961 116.8066 271.6426 L117.0469 271.6895 L117.0469 272.6504 Q116.0801 272.3633 115.5117 272.3633 Q114.3984 272.3633 114.3984 273.1719 Q114.3984 273.6934 115.2422 274.0508 L115.7988 274.2852 Q116.7422 274.6836 117.1348 275.126 Q117.5273 275.5684 117.5273 276.2305 Q117.5273 277.0684 116.8652 277.6074 Q116.2031 278.1465 115.1719 278.1465 Z"
                  clip-path="url(#clipPath8)" stroke="none"/>
            <path fill="black"
                  d="M72.1543 293 L72.1543 286.6367 L73.3086 286.6367 L73.3086 287.832 Q74.1523 286.4961 75.4766 286.4961 Q76.7539 286.4961 77.2168 287.832 Q78.0371 286.4902 79.3496 286.4902 Q80.1934 286.4902 80.6562 286.9854 Q81.1191 287.4805 81.1191 288.3711 L81.1191 293 L79.959 293 L79.959 288.5527 Q79.959 287.4629 79.0977 287.4629 Q78.2012 287.4629 77.2168 288.7344 L77.2168 293 L76.0566 293 L76.0566 288.5527 Q76.0566 287.457 75.1777 287.457 Q74.3047 287.457 73.3086 288.7344 L73.3086 293 ZM85.8477 293.1465 Q84.4824 293.1465 83.668 292.2412 Q82.8535 291.3359 82.8535 289.8184 Q82.8535 288.2832 83.6709 287.3896 Q84.4883 286.4961 85.8887 286.4961 Q87.2891 286.4961 88.1064 287.3896 Q88.9238 288.2832 88.9238 289.8066 Q88.9238 291.3652 88.1035 292.2559 Q87.2832 293.1465 85.8477 293.1465 ZM85.8652 292.2793 Q87.6992 292.2793 87.6992 289.8066 Q87.6992 287.3633 85.8887 287.3633 Q84.084 287.3633 84.084 289.8184 Q84.084 292.2793 85.8652 292.2793 ZM94.8125 293 L94.8125 291.8047 Q94.1094 293.1465 92.6914 293.1465 Q91.543 293.1465 90.8838 292.3086 Q90.2246 291.4707 90.2246 290.0176 Q90.2246 288.4297 90.9717 287.4629 Q91.7188 286.4961 92.9375 286.4961 Q94.0684 286.4961 94.8125 287.3633 L94.8125 283.748 L95.9727 283.748 L95.9727 293 ZM94.8125 288.1543 Q93.916 287.3633 93.1133 287.3633 Q91.4551 287.3633 91.4551 289.9004 Q91.4551 292.1328 92.9316 292.1328 Q93.8926 292.1328 94.8125 291.084 ZM102.2598 293 L102.2598 291.8047 Q101.3398 293.1465 100.0273 293.1465 Q99.1953 293.1465 98.7031 292.6221 Q98.2109 292.0977 98.2109 291.207 L98.2109 286.6367 L99.3652 286.6367 L99.3652 290.832 Q99.3652 291.5469 99.5732 291.8486 Q99.7812 292.1504 100.2676 292.1504 Q101.3223 292.1504 102.2598 290.7617 L102.2598 286.6367 L103.4141 286.6367 L103.4141 293 ZM105.7285 293 L105.7285 283.748 L106.8828 283.748 L106.8828 293 ZM113.8613 292.7949 Q112.7012 293.1465 111.875 293.1465 Q110.4688 293.1465 109.5811 292.2119 Q108.6934 291.2773 108.6934 289.7891 Q108.6934 288.3418 109.4756 287.416 Q110.2578 286.4902 111.4766 286.4902 Q112.6309 286.4902 113.2607 287.3105 Q113.8906 288.1309 113.8906 289.6426 L113.8848 290 L109.8711 290 Q110.123 292.2676 112.0918 292.2676 Q112.8125 292.2676 113.8613 291.8809 ZM109.9238 289.1328 L112.7305 289.1328 Q112.7305 287.3574 111.4062 287.3574 Q110.0762 287.3574 109.9238 289.1328 Z"
                  clip-path="url(#clipPath8)" stroke="none"/>
            <rect x="237" y="262" clip-path="url(#clipPath9)"
                  fill="rgb(181,255,255)" width="119" height="54" stroke="none"/>
            <rect x="237" y="262" clip-path="url(#clipPath9)" fill="none"
                  width="119" height="54" stroke="rgb(126,178,178)"/>
            <path fill="none"
                  d="M342 281 L342 277 M342 275 L342 273 M342 270 L342 268 L352 268 L352 281 L341.5 281 M339 270 L345 270 L345 272.5 L339 272.5 ZM339 275 L345 275 L345 277.5 L339 277.5 Z"
                  clip-path="url(#clipPath9)" fill-rule="evenodd" stroke="black"/>
            <path fill="black"
                  d="M262.8184 278.2168 Q261.9453 278.2168 260.5859 277.8359 L260.5859 276.6172 Q262.0508 277.2969 262.9941 277.2969 Q263.7207 277.2969 264.1631 276.916 Q264.6055 276.5352 264.6055 275.9141 Q264.6055 275.4043 264.3154 275.0469 Q264.0254 274.6895 263.2461 274.25 L262.6484 273.9043 Q261.541 273.2715 261.0869 272.7119 Q260.6328 272.1523 260.6328 271.4082 Q260.6328 270.4062 261.3594 269.7588 Q262.0859 269.1113 263.2109 269.1113 Q264.2129 269.1113 265.3262 269.4453 L265.3262 270.5703 Q263.9551 270.0312 263.2812 270.0312 Q262.6426 270.0312 262.2266 270.3711 Q261.8105 270.7109 261.8105 271.2266 Q261.8105 271.6602 262.1152 271.9941 Q262.4199 272.3281 263.2285 272.791 L263.8496 273.1426 Q264.9746 273.7812 265.4199 274.3496 Q265.8652 274.918 265.8652 275.7148 Q265.8652 276.8457 265.0303 277.5312 Q264.1953 278.2168 262.8184 278.2168 ZM267.9863 280.3145 L269.0176 278 L266.5566 271.6367 L267.8047 271.6367 L269.627 276.4297 L271.5723 271.6367 L272.6621 271.6367 L269.1875 280.3145 ZM273.8867 278 L273.8867 271.6367 L275.041 271.6367 L275.041 272.832 Q275.9551 271.4961 277.2793 271.4961 Q278.1055 271.4961 278.5977 272.0205 Q279.0898 272.5449 279.0898 273.4297 L279.0898 278 L277.9355 278 L277.9355 273.8047 Q277.9355 273.0957 277.7275 272.7939 Q277.5195 272.4922 277.0391 272.4922 Q275.9785 272.4922 275.041 273.8809 L275.041 278 ZM283.8184 278.1465 Q282.5293 278.1465 281.6797 277.1914 Q280.8301 276.2363 280.8301 274.7832 Q280.8301 273.2305 281.6709 272.3633 Q282.5117 271.4961 284.0176 271.4961 Q284.7617 271.4961 285.6816 271.7012 L285.6816 272.668 Q284.7031 272.3809 284.0879 272.3809 Q283.2031 272.3809 282.667 273.0459 Q282.1309 273.7109 282.1309 274.8184 Q282.1309 275.8906 282.6816 276.5527 Q283.2324 277.2148 284.123 277.2148 Q284.9141 277.2148 285.752 276.8105 L285.752 277.8066 Q284.6328 278.1465 283.8184 278.1465 ZM291.2773 278 L291.2773 271.6367 L292.4316 271.6367 L292.4316 272.832 Q293.2754 271.4961 294.5996 271.4961 Q295.877 271.4961 296.3398 272.832 Q297.1602 271.4902 298.4727 271.4902 Q299.3164 271.4902 299.7793 271.9854 Q300.2422 272.4805 300.2422 273.3711 L300.2422 278 L299.082 278 L299.082 273.5527 Q299.082 272.4629 298.2207 272.4629 Q297.3242 272.4629 296.3398 273.7344 L296.3398 278 L295.1797 278 L295.1797 273.5527 Q295.1797 272.457 294.3008 272.457 Q293.4277 272.457 292.4316 273.7344 L292.4316 278 ZM304.9707 278.1465 Q303.6055 278.1465 302.791 277.2412 Q301.9766 276.3359 301.9766 274.8184 Q301.9766 273.2832 302.7939 272.3896 Q303.6113 271.4961 305.0117 271.4961 Q306.4121 271.4961 307.2295 272.3896 Q308.0469 273.2832 308.0469 274.8066 Q308.0469 276.3652 307.2266 277.2559 Q306.4062 278.1465 304.9707 278.1465 ZM304.9883 277.2793 Q306.8223 277.2793 306.8223 274.8066 Q306.8223 272.3633 305.0117 272.3633 Q303.207 272.3633 303.207 274.8184 Q303.207 277.2793 304.9883 277.2793 ZM313.9355 278 L313.9355 276.8047 Q313.2324 278.1465 311.8145 278.1465 Q310.666 278.1465 310.0068 277.3086 Q309.3477 276.4707 309.3477 275.0176 Q309.3477 273.4297 310.0947 272.4629 Q310.8418 271.4961 312.0605 271.4961 Q313.1914 271.4961 313.9355 272.3633 L313.9355 268.748 L315.0957 268.748 L315.0957 278 ZM313.9355 273.1543 Q313.0391 272.3633 312.2363 272.3633 Q310.5781 272.3633 310.5781 274.9004 Q310.5781 277.1328 312.0547 277.1328 Q313.0156 277.1328 313.9355 276.084 ZM321.3828 278 L321.3828 276.8047 Q320.4629 278.1465 319.1504 278.1465 Q318.3184 278.1465 317.8262 277.6221 Q317.334 277.0977 317.334 276.207 L317.334 271.6367 L318.4883 271.6367 L318.4883 275.832 Q318.4883 276.5469 318.6963 276.8486 Q318.9043 277.1504 319.3906 277.1504 Q320.4453 277.1504 321.3828 275.7617 L321.3828 271.6367 L322.5371 271.6367 L322.5371 278 ZM324.8516 278 L324.8516 268.748 L326.0059 268.748 L326.0059 278 ZM332.9844 277.7949 Q331.8242 278.1465 330.998 278.1465 Q329.5918 278.1465 328.7041 277.2119 Q327.8164 276.2773 327.8164 274.7891 Q327.8164 273.3418 328.5986 272.416 Q329.3809 271.4902 330.5996 271.4902 Q331.7539 271.4902 332.3838 272.3105 Q333.0137 273.1309 333.0137 274.6426 L333.0078 275 L328.9941 275 Q329.2461 277.2676 331.2148 277.2676 Q331.9355 277.2676 332.9844 276.8809 ZM329.0469 274.1328 L331.8535 274.1328 Q331.8535 272.3574 330.5293 272.3574 Q329.1992 272.3574 329.0469 274.1328 Z"
                  clip-path="url(#clipPath10)" stroke="none"/>
            <rect x="405" y="262" clip-path="url(#clipPath11)"
                  fill="rgb(181,255,255)" width="119" height="54" stroke="none"/>
            <rect x="405" y="262" clip-path="url(#clipPath11)" fill="none"
                  width="119" height="54" stroke="rgb(126,178,178)"/>
            <path fill="none"
                  d="M510 281 L510 277 M510 275 L510 273 M510 270 L510 268 L520 268 L520 281 L509.5 281 M507 270 L513 270 L513 272.5 L507 272.5 ZM507 275 L513 275 L513 277.5 L507 277.5 Z"
                  clip-path="url(#clipPath11)" fill-rule="evenodd"
                  stroke="black"/>
            <path fill="black"
                  d="M434.834 278.2168 Q432.8125 278.2168 431.7109 277.0303 Q430.6094 275.8438 430.6094 273.6699 Q430.6094 271.502 431.7314 270.3066 Q432.8535 269.1113 434.8926 269.1113 Q436.0586 269.1113 437.623 269.4922 L437.623 270.6465 Q435.8418 270.0312 434.875 270.0312 Q433.4629 270.0312 432.6895 270.9863 Q431.916 271.9414 431.916 273.6816 Q431.916 275.3398 432.7422 276.2979 Q433.5684 277.2559 434.998 277.2559 Q436.2285 277.2559 437.6348 276.5 L437.6348 277.5547 Q436.3516 278.2168 434.834 278.2168 ZM441.9473 278.1465 Q440.582 278.1465 439.7676 277.2412 Q438.9531 276.3359 438.9531 274.8184 Q438.9531 273.2832 439.7705 272.3896 Q440.5879 271.4961 441.9883 271.4961 Q443.3887 271.4961 444.2061 272.3896 Q445.0234 273.2832 445.0234 274.8066 Q445.0234 276.3652 444.2031 277.2559 Q443.3828 278.1465 441.9473 278.1465 ZM441.9648 277.2793 Q443.7988 277.2793 443.7988 274.8066 Q443.7988 272.3633 441.9883 272.3633 Q440.1836 272.3633 440.1836 274.8184 Q440.1836 277.2793 441.9648 277.2793 ZM446.8281 278 L446.8281 271.6367 L447.9824 271.6367 L447.9824 272.832 Q448.8262 271.4961 450.1504 271.4961 Q451.4277 271.4961 451.8906 272.832 Q452.7109 271.4902 454.0234 271.4902 Q454.8672 271.4902 455.3301 271.9854 Q455.793 272.4805 455.793 273.3711 L455.793 278 L454.6328 278 L454.6328 273.5527 Q454.6328 272.4629 453.7715 272.4629 Q452.875 272.4629 451.8906 273.7344 L451.8906 278 L450.7305 278 L450.7305 273.5527 Q450.7305 272.457 449.8516 272.457 Q448.9785 272.457 447.9824 273.7344 L447.9824 278 ZM458.0312 280.3145 L458.0312 271.6367 L459.1855 271.6367 L459.1855 272.832 Q459.8945 271.4961 461.3125 271.4961 Q462.4609 271.4961 463.1201 272.334 Q463.7793 273.1719 463.7793 274.625 Q463.7793 276.207 463.0322 277.1768 Q462.2852 278.1465 461.0664 278.1465 Q459.9355 278.1465 459.1855 277.2793 L459.1855 280.3145 ZM459.1855 276.4824 Q460.0762 277.2793 460.8848 277.2793 Q462.5488 277.2793 462.5488 274.7422 Q462.5488 272.5039 461.0723 272.5039 Q460.1055 272.5039 459.1855 273.5527 ZM465.584 278 L465.584 268.748 L466.7383 268.748 L466.7383 278 ZM469.0527 278 L469.0527 271.6367 L470.207 271.6367 L470.207 278 ZM469.0527 270.4824 L469.0527 269.3281 L470.207 269.3281 L470.207 270.4824 ZM475.8027 277.1914 Q474.7656 278.1465 473.8047 278.1465 Q473.0137 278.1465 472.4922 277.6514 Q471.9707 277.1562 471.9707 276.4004 Q471.9707 275.3574 472.8467 274.7979 Q473.7227 274.2383 475.3574 274.2383 L475.6328 274.2383 L475.6328 273.4707 Q475.6328 272.3633 474.4961 272.3633 Q473.582 272.3633 472.5215 272.9258 L472.5215 271.9707 Q473.6875 271.4961 474.707 271.4961 Q475.7734 271.4961 476.2803 271.9766 Q476.7871 272.457 476.7871 273.4707 L476.7871 276.3535 Q476.7871 277.3438 477.3965 277.3438 Q477.4727 277.3438 477.6191 277.3203 L477.7012 277.959 Q477.3086 278.1465 476.834 278.1465 Q476.0254 278.1465 475.8027 277.1914 ZM475.6328 276.5645 L475.6328 274.918 L475.2461 274.9062 Q474.2969 274.9062 473.7109 275.2666 Q473.125 275.627 473.125 276.2129 Q473.125 276.6289 473.418 276.916 Q473.7109 277.2031 474.1328 277.2031 Q474.8535 277.2031 475.6328 276.5645 ZM479.1484 278 L479.1484 271.6367 L480.3027 271.6367 L480.3027 272.832 Q481.2168 271.4961 482.541 271.4961 Q483.3672 271.4961 483.8594 272.0205 Q484.3516 272.5449 484.3516 273.4297 L484.3516 278 L483.1973 278 L483.1973 273.8047 Q483.1973 273.0957 482.9893 272.7939 Q482.7812 272.4922 482.3008 272.4922 Q481.2402 272.4922 480.3027 273.8809 L480.3027 278 ZM489.0801 278.1465 Q487.791 278.1465 486.9414 277.1914 Q486.0918 276.2363 486.0918 274.7832 Q486.0918 273.2305 486.9326 272.3633 Q487.7734 271.4961 489.2793 271.4961 Q490.0234 271.4961 490.9434 271.7012 L490.9434 272.668 Q489.9648 272.3809 489.3496 272.3809 Q488.4648 272.3809 487.9287 273.0459 Q487.3926 273.7109 487.3926 274.8184 Q487.3926 275.8906 487.9434 276.5527 Q488.4941 277.2148 489.3848 277.2148 Q490.1758 277.2148 491.0137 276.8105 L491.0137 277.8066 Q489.8945 278.1465 489.0801 278.1465 ZM497.4062 277.7949 Q496.2461 278.1465 495.4199 278.1465 Q494.0137 278.1465 493.126 277.2119 Q492.2383 276.2773 492.2383 274.7891 Q492.2383 273.3418 493.0205 272.416 Q493.8027 271.4902 495.0215 271.4902 Q496.1758 271.4902 496.8057 272.3105 Q497.4355 273.1309 497.4355 274.6426 L497.4297 275 L493.416 275 Q493.668 277.2676 495.6367 277.2676 Q496.3574 277.2676 497.4062 276.8809 ZM493.4688 274.1328 L496.2754 274.1328 Q496.2754 272.3574 494.9512 272.3574 Q493.6211 272.3574 493.4688 274.1328 Z"
                  clip-path="url(#clipPath12)" stroke="none"/>
            <path fill="black"
                  d="M444.1543 293 L444.1543 286.6367 L445.3086 286.6367 L445.3086 287.832 Q446.1523 286.4961 447.4766 286.4961 Q448.7539 286.4961 449.2168 287.832 Q450.0371 286.4902 451.3496 286.4902 Q452.1934 286.4902 452.6562 286.9854 Q453.1191 287.4805 453.1191 288.3711 L453.1191 293 L451.959 293 L451.959 288.5527 Q451.959 287.4629 451.0977 287.4629 Q450.2012 287.4629 449.2168 288.7344 L449.2168 293 L448.0566 293 L448.0566 288.5527 Q448.0566 287.457 447.1777 287.457 Q446.3047 287.457 445.3086 288.7344 L445.3086 293 ZM457.8477 293.1465 Q456.4824 293.1465 455.668 292.2412 Q454.8535 291.3359 454.8535 289.8184 Q454.8535 288.2832 455.6709 287.3896 Q456.4883 286.4961 457.8887 286.4961 Q459.2891 286.4961 460.1064 287.3896 Q460.9238 288.2832 460.9238 289.8066 Q460.9238 291.3652 460.1035 292.2559 Q459.2832 293.1465 457.8477 293.1465 ZM457.8652 292.2793 Q459.6992 292.2793 459.6992 289.8066 Q459.6992 287.3633 457.8887 287.3633 Q456.084 287.3633 456.084 289.8184 Q456.084 292.2793 457.8652 292.2793 ZM466.8125 293 L466.8125 291.8047 Q466.1094 293.1465 464.6914 293.1465 Q463.543 293.1465 462.8838 292.3086 Q462.2246 291.4707 462.2246 290.0176 Q462.2246 288.4297 462.9717 287.4629 Q463.7188 286.4961 464.9375 286.4961 Q466.0684 286.4961 466.8125 287.3633 L466.8125 283.748 L467.9727 283.748 L467.9727 293 ZM466.8125 288.1543 Q465.916 287.3633 465.1133 287.3633 Q463.4551 287.3633 463.4551 289.9004 Q463.4551 292.1328 464.9316 292.1328 Q465.8926 292.1328 466.8125 291.084 ZM474.2598 293 L474.2598 291.8047 Q473.3398 293.1465 472.0273 293.1465 Q471.1953 293.1465 470.7031 292.6221 Q470.2109 292.0977 470.2109 291.207 L470.2109 286.6367 L471.3652 286.6367 L471.3652 290.832 Q471.3652 291.5469 471.5732 291.8486 Q471.7812 292.1504 472.2676 292.1504 Q473.3223 292.1504 474.2598 290.7617 L474.2598 286.6367 L475.4141 286.6367 L475.4141 293 ZM477.7285 293 L477.7285 283.748 L478.8828 283.748 L478.8828 293 ZM485.8613 292.7949 Q484.7012 293.1465 483.875 293.1465 Q482.4688 293.1465 481.5811 292.2119 Q480.6934 291.2773 480.6934 289.7891 Q480.6934 288.3418 481.4756 287.416 Q482.2578 286.4902 483.4766 286.4902 Q484.6309 286.4902 485.2607 287.3105 Q485.8906 288.1309 485.8906 289.6426 L485.8848 290 L481.8711 290 Q482.123 292.2676 484.0918 292.2676 Q484.8125 292.2676 485.8613 291.8809 ZM481.9238 289.1328 L484.7305 289.1328 Q484.7305 287.3574 483.4062 287.3574 Q482.0762 287.3574 481.9238 289.1328 Z"
                  clip-path="url(#clipPath12)" stroke="none"/>
            <rect x="561" y="262" clip-path="url(#clipPath13)"
                  fill="rgb(181,255,255)" width="119" height="54" stroke="none"/>
            <rect x="561" y="262" clip-path="url(#clipPath13)" fill="none"
                  width="119" height="54" stroke="rgb(126,178,178)"/>
            <path fill="none"
                  d="M666 281 L666 277 M666 275 L666 273 M666 270 L666 268 L676 268 L676 281 L665.5 281 M663 270 L669 270 L669 272.5 L663 272.5 ZM663 275 L669 275 L669 277.5 L663 277.5 Z"
                  clip-path="url(#clipPath13)" fill-rule="evenodd"
                  stroke="black"/>
            <path fill="black"
                  d="M590.1133 278 L590.1133 269.3281 L591.3438 269.3281 L591.3438 278 ZM593.6113 278 L593.6113 271.6367 L594.7656 271.6367 L594.7656 272.832 Q595.6797 271.4961 597.0039 271.4961 Q597.8301 271.4961 598.3223 272.0205 Q598.8145 272.5449 598.8145 273.4297 L598.8145 278 L597.6602 278 L597.6602 273.8047 Q597.6602 273.0957 597.4521 272.7939 Q597.2441 272.4922 596.7637 272.4922 Q595.7031 272.4922 594.7656 273.8809 L594.7656 278 ZM602.9688 278.1465 Q602.0898 278.1465 601.5977 277.6426 Q601.1055 277.1387 601.1055 276.2422 L601.1055 272.5039 L600.3086 272.5039 L600.3086 271.6367 L601.1055 271.6367 L601.1055 270.4824 L602.2598 270.3711 L602.2598 271.6367 L603.9238 271.6367 L603.9238 272.5039 L602.2598 272.5039 L602.2598 276.0312 Q602.2598 277.2793 603.3379 277.2793 Q603.5664 277.2793 603.8945 277.2031 L603.8945 278 Q603.3613 278.1465 602.9688 278.1465 ZM610.2109 277.7949 Q609.0508 278.1465 608.2246 278.1465 Q606.8184 278.1465 605.9307 277.2119 Q605.043 276.2773 605.043 274.7891 Q605.043 273.3418 605.8252 272.416 Q606.6074 271.4902 607.8262 271.4902 Q608.9805 271.4902 609.6104 272.3105 Q610.2402 273.1309 610.2402 274.6426 L610.2344 275 L606.2207 275 Q606.4727 277.2676 608.4414 277.2676 Q609.1621 277.2676 610.2109 276.8809 ZM606.2734 274.1328 L609.0801 274.1328 Q609.0801 272.3574 607.7559 272.3574 Q606.4258 272.3574 606.2734 274.1328 ZM612.2559 280.1152 L612.3906 279.1133 Q613.3926 279.5879 614.3652 279.5879 Q616.3164 279.5879 616.3164 277.5195 L616.3164 276.5176 Q615.6777 277.8535 614.2188 277.8535 Q613.0762 277.8535 612.4023 277.0215 Q611.7285 276.1895 611.7285 274.7773 Q611.7285 273.3242 612.4961 272.4102 Q613.2637 271.4961 614.4824 271.4961 Q615.5488 271.4961 616.3164 272.3633 L616.3164 271.6367 L617.4766 271.6367 L617.4766 276.2656 Q617.4766 277.7598 617.3213 278.4775 Q617.166 279.1953 616.7383 279.6523 Q615.9824 280.4551 614.3887 280.4551 Q613.2754 280.4551 612.2559 280.1152 ZM616.3164 275.7969 L616.3164 273.1543 Q615.5547 272.3633 614.6582 272.3633 Q613.8613 272.3633 613.4102 273.002 Q612.959 273.6406 612.959 274.7539 Q612.959 276.8457 614.4297 276.8457 Q615.4316 276.8457 616.3164 275.7969 ZM619.7148 278 L619.7148 271.6367 L620.8691 271.6367 L620.8691 272.832 Q621.5547 271.4961 622.8613 271.4961 Q623.0371 271.4961 623.2305 271.5254 L623.2305 272.6035 Q622.9316 272.5039 622.7031 272.5039 Q621.6074 272.5039 620.8691 273.8047 L620.8691 278 ZM627.9062 277.1914 Q626.8691 278.1465 625.9082 278.1465 Q625.1172 278.1465 624.5957 277.6514 Q624.0742 277.1562 624.0742 276.4004 Q624.0742 275.3574 624.9502 274.7979 Q625.8262 274.2383 627.4609 274.2383 L627.7363 274.2383 L627.7363 273.4707 Q627.7363 272.3633 626.5996 272.3633 Q625.6855 272.3633 624.625 272.9258 L624.625 271.9707 Q625.791 271.4961 626.8105 271.4961 Q627.877 271.4961 628.3838 271.9766 Q628.8906 272.457 628.8906 273.4707 L628.8906 276.3535 Q628.8906 277.3438 629.5 277.3438 Q629.5762 277.3438 629.7227 277.3203 L629.8047 277.959 Q629.4121 278.1465 628.9375 278.1465 Q628.1289 278.1465 627.9062 277.1914 ZM627.7363 276.5645 L627.7363 274.918 L627.3496 274.9062 Q626.4004 274.9062 625.8145 275.2666 Q625.2285 275.627 625.2285 276.2129 Q625.2285 276.6289 625.5215 276.916 Q625.8145 277.2031 626.2363 277.2031 Q626.957 277.2031 627.7363 276.5645 ZM633.1621 278.1465 Q632.2832 278.1465 631.791 277.6426 Q631.2988 277.1387 631.2988 276.2422 L631.2988 272.5039 L630.502 272.5039 L630.502 271.6367 L631.2988 271.6367 L631.2988 270.4824 L632.4531 270.3711 L632.4531 271.6367 L634.1172 271.6367 L634.1172 272.5039 L632.4531 272.5039 L632.4531 276.0312 Q632.4531 277.2793 633.5312 277.2793 Q633.7598 277.2793 634.0879 277.2031 L634.0879 278 Q633.5547 278.1465 633.1621 278.1465 ZM635.7402 278 L635.7402 271.6367 L636.8945 271.6367 L636.8945 278 ZM635.7402 270.4824 L635.7402 269.3281 L636.8945 269.3281 L636.8945 270.4824 ZM641.6992 278.1465 Q640.334 278.1465 639.5195 277.2412 Q638.7051 276.3359 638.7051 274.8184 Q638.7051 273.2832 639.5225 272.3896 Q640.3398 271.4961 641.7402 271.4961 Q643.1406 271.4961 643.958 272.3896 Q644.7754 273.2832 644.7754 274.8066 Q644.7754 276.3652 643.9551 277.2559 Q643.1348 278.1465 641.6992 278.1465 ZM641.7168 277.2793 Q643.5508 277.2793 643.5508 274.8066 Q643.5508 272.3633 641.7402 272.3633 Q639.9355 272.3633 639.9355 274.8184 Q639.9355 277.2793 641.7168 277.2793 ZM646.5801 278 L646.5801 271.6367 L647.7344 271.6367 L647.7344 272.832 Q648.6484 271.4961 649.9727 271.4961 Q650.7988 271.4961 651.291 272.0205 Q651.7832 272.5449 651.7832 273.4297 L651.7832 278 L650.6289 278 L650.6289 273.8047 Q650.6289 273.0957 650.4209 272.7939 Q650.2129 272.4922 649.7324 272.4922 Q648.6719 272.4922 647.7344 273.8809 L647.7344 278 Z"
                  clip-path="url(#clipPath14)" stroke="none"/>
            <path fill="black"
                  d="M600.1543 293 L600.1543 286.6367 L601.3086 286.6367 L601.3086 287.832 Q602.1523 286.4961 603.4766 286.4961 Q604.7539 286.4961 605.2168 287.832 Q606.0371 286.4902 607.3496 286.4902 Q608.1934 286.4902 608.6562 286.9854 Q609.1191 287.4805 609.1191 288.3711 L609.1191 293 L607.959 293 L607.959 288.5527 Q607.959 287.4629 607.0977 287.4629 Q606.2012 287.4629 605.2168 288.7344 L605.2168 293 L604.0566 293 L604.0566 288.5527 Q604.0566 287.457 603.1777 287.457 Q602.3047 287.457 601.3086 288.7344 L601.3086 293 ZM613.8477 293.1465 Q612.4824 293.1465 611.668 292.2412 Q610.8535 291.3359 610.8535 289.8184 Q610.8535 288.2832 611.6709 287.3896 Q612.4883 286.4961 613.8887 286.4961 Q615.2891 286.4961 616.1064 287.3896 Q616.9238 288.2832 616.9238 289.8066 Q616.9238 291.3652 616.1035 292.2559 Q615.2832 293.1465 613.8477 293.1465 ZM613.8652 292.2793 Q615.6992 292.2793 615.6992 289.8066 Q615.6992 287.3633 613.8887 287.3633 Q612.084 287.3633 612.084 289.8184 Q612.084 292.2793 613.8652 292.2793 ZM622.8125 293 L622.8125 291.8047 Q622.1094 293.1465 620.6914 293.1465 Q619.543 293.1465 618.8838 292.3086 Q618.2246 291.4707 618.2246 290.0176 Q618.2246 288.4297 618.9717 287.4629 Q619.7188 286.4961 620.9375 286.4961 Q622.0684 286.4961 622.8125 287.3633 L622.8125 283.748 L623.9727 283.748 L623.9727 293 ZM622.8125 288.1543 Q621.916 287.3633 621.1133 287.3633 Q619.4551 287.3633 619.4551 289.9004 Q619.4551 292.1328 620.9316 292.1328 Q621.8926 292.1328 622.8125 291.084 ZM630.2598 293 L630.2598 291.8047 Q629.3398 293.1465 628.0273 293.1465 Q627.1953 293.1465 626.7031 292.6221 Q626.2109 292.0977 626.2109 291.207 L626.2109 286.6367 L627.3652 286.6367 L627.3652 290.832 Q627.3652 291.5469 627.5732 291.8486 Q627.7812 292.1504 628.2676 292.1504 Q629.3223 292.1504 630.2598 290.7617 L630.2598 286.6367 L631.4141 286.6367 L631.4141 293 ZM633.7285 293 L633.7285 283.748 L634.8828 283.748 L634.8828 293 ZM641.8613 292.7949 Q640.7012 293.1465 639.875 293.1465 Q638.4688 293.1465 637.5811 292.2119 Q636.6934 291.2773 636.6934 289.7891 Q636.6934 288.3418 637.4756 287.416 Q638.2578 286.4902 639.4766 286.4902 Q640.6309 286.4902 641.2607 287.3105 Q641.8906 288.1309 641.8906 289.6426 L641.8848 290 L637.8711 290 Q638.123 292.2676 640.0918 292.2676 Q640.8125 292.2676 641.8613 291.8809 ZM637.9238 289.1328 L640.7305 289.1328 Q640.7305 287.3574 639.4062 287.3574 Q638.0762 287.3574 637.9238 289.1328 Z"
                  clip-path="url(#clipPath14)" stroke="none"/>
            <rect x="213" y="394" clip-path="url(#clipPath15)"
                  fill="rgb(181,255,255)" width="119" height="54" stroke="none"/>
            <rect x="213" y="394" clip-path="url(#clipPath15)" fill="none"
                  width="119" height="54" stroke="rgb(126,178,178)"/>
            <rect x="315" y="400" clip-path="url(#clipPath15)" fill="none"
                  width="13" height="10" stroke="black"/>
            <line clip-path="url(#clipPath15)" fill="none" x1="315" x2="328"
                  y1="403" y2="403" stroke="black"/>
            <path fill="black"
                  d="M255.8184 410.2168 Q254.9453 410.2168 253.5859 409.8359 L253.5859 408.6172 Q255.0508 409.2969 255.9941 409.2969 Q256.7207 409.2969 257.1631 408.916 Q257.6055 408.5352 257.6055 407.9141 Q257.6055 407.4043 257.3154 407.0469 Q257.0254 406.6895 256.2461 406.25 L255.6484 405.9043 Q254.541 405.2715 254.0869 404.7119 Q253.6328 404.1523 253.6328 403.4082 Q253.6328 402.4062 254.3594 401.7588 Q255.0859 401.1113 256.2109 401.1113 Q257.2129 401.1113 258.3262 401.4453 L258.3262 402.5703 Q256.9551 402.0312 256.2812 402.0312 Q255.6426 402.0312 255.2266 402.3711 Q254.8105 402.7109 254.8105 403.2266 Q254.8105 403.6602 255.1152 403.9941 Q255.4199 404.3281 256.2285 404.791 L256.8496 405.1426 Q257.9746 405.7812 258.4199 406.3496 Q258.8652 406.918 258.8652 407.7148 Q258.8652 408.8457 258.0303 409.5312 Q257.1953 410.2168 255.8184 410.2168 ZM260.6172 410 L260.6172 400.748 L261.7715 400.748 L261.7715 404.832 Q262.6855 403.4961 264.0098 403.4961 Q264.8359 403.4961 265.3281 404.0205 Q265.8203 404.5449 265.8203 405.4297 L265.8203 410 L264.666 410 L264.666 405.8047 Q264.666 405.0957 264.458 404.7939 Q264.25 404.4922 263.7695 404.4922 Q262.709 404.4922 261.7715 405.8809 L261.7715 410 ZM271.3457 409.1914 Q270.3086 410.1465 269.3477 410.1465 Q268.5566 410.1465 268.0352 409.6514 Q267.5137 409.1562 267.5137 408.4004 Q267.5137 407.3574 268.3896 406.7979 Q269.2656 406.2383 270.9004 406.2383 L271.1758 406.2383 L271.1758 405.4707 Q271.1758 404.3633 270.0391 404.3633 Q269.125 404.3633 268.0645 404.9258 L268.0645 403.9707 Q269.2305 403.4961 270.25 403.4961 Q271.3164 403.4961 271.8232 403.9766 Q272.3301 404.457 272.3301 405.4707 L272.3301 408.3535 Q272.3301 409.3438 272.9395 409.3438 Q273.0156 409.3438 273.1621 409.3203 L273.2441 409.959 Q272.8516 410.1465 272.377 410.1465 Q271.5684 410.1465 271.3457 409.1914 ZM271.1758 408.5645 L271.1758 406.918 L270.7891 406.9062 Q269.8398 406.9062 269.2539 407.2666 Q268.668 407.627 268.668 408.2129 Q268.668 408.6289 268.9609 408.916 Q269.2539 409.2031 269.6758 409.2031 Q270.3965 409.2031 271.1758 408.5645 ZM274.6914 410 L274.6914 403.6367 L275.8457 403.6367 L275.8457 404.832 Q276.5312 403.4961 277.8379 403.4961 Q278.0137 403.4961 278.207 403.5254 L278.207 404.6035 Q277.9082 404.5039 277.6797 404.5039 Q276.584 404.5039 275.8457 405.8047 L275.8457 410 ZM284.2656 409.7949 Q283.1055 410.1465 282.2793 410.1465 Q280.873 410.1465 279.9854 409.2119 Q279.0977 408.2773 279.0977 406.7891 Q279.0977 405.3418 279.8799 404.416 Q280.6621 403.4902 281.8809 403.4902 Q283.0352 403.4902 283.665 404.3105 Q284.2949 405.1309 284.2949 406.6426 L284.2891 407 L280.2754 407 Q280.5273 409.2676 282.4961 409.2676 Q283.2168 409.2676 284.2656 408.8809 ZM280.3281 406.1328 L283.1348 406.1328 Q283.1348 404.3574 281.8105 404.3574 Q280.4805 404.3574 280.3281 406.1328 ZM290.3711 410 L290.3711 408.8047 Q289.668 410.1465 288.25 410.1465 Q287.1016 410.1465 286.4424 409.3086 Q285.7832 408.4707 285.7832 407.0176 Q285.7832 405.4297 286.5303 404.4629 Q287.2773 403.4961 288.4961 403.4961 Q289.627 403.4961 290.3711 404.3633 L290.3711 400.748 L291.5312 400.748 L291.5312 410 ZM290.3711 405.1543 Q289.4746 404.3633 288.6719 404.3633 Q287.0137 404.3633 287.0137 406.9004 Q287.0137 409.1328 288.4902 409.1328 Q289.4512 409.1328 290.3711 408.084 Z"
                  clip-path="url(#clipPath16)" stroke="none"/>
            <path fill="black"
                  d="M239.1191 425 L239.1191 416.3281 L241.4805 416.3281 Q243.0508 416.3281 243.7363 416.8584 Q244.4219 417.3887 244.4219 418.6016 Q244.4219 419.9844 243.4844 420.7695 Q242.5469 421.5547 240.8828 421.5547 L240.3379 421.5547 L240.3379 425 ZM240.3379 420.623 L240.8359 420.623 Q241.9316 420.623 242.5293 420.1191 Q243.127 419.6152 243.127 418.6953 Q243.127 417.916 242.6582 417.582 Q242.1895 417.248 241.0938 417.248 L240.3379 417.248 ZM248.2773 425.1465 Q246.9121 425.1465 246.0977 424.2412 Q245.2832 423.3359 245.2832 421.8184 Q245.2832 420.2832 246.1006 419.3896 Q246.918 418.4961 248.3184 418.4961 Q249.7188 418.4961 250.5361 419.3896 Q251.3535 420.2832 251.3535 421.8066 Q251.3535 423.3652 250.5332 424.2559 Q249.7129 425.1465 248.2773 425.1465 ZM248.2949 424.2793 Q250.1289 424.2793 250.1289 421.8066 Q250.1289 419.3633 248.3184 419.3633 Q246.5137 419.3633 246.5137 421.8184 Q246.5137 424.2793 248.2949 424.2793 ZM254.8457 425.1465 Q254.0547 425.1465 252.9238 424.7773 L252.9238 423.7168 Q254.0547 424.2793 254.8926 424.2793 Q255.3906 424.2793 255.7188 424.0098 Q256.0469 423.7402 256.0469 423.3359 Q256.0469 422.7441 255.127 422.3574 L254.4531 422.0703 Q252.959 421.4492 252.959 420.2832 Q252.959 419.4512 253.5479 418.9736 Q254.1367 418.4961 255.1621 418.4961 Q255.6953 418.4961 256.4805 418.6426 L256.7207 418.6895 L256.7207 419.6504 Q255.7539 419.3633 255.1855 419.3633 Q254.0723 419.3633 254.0723 420.1719 Q254.0723 420.6934 254.916 421.0508 L255.4727 421.2852 Q256.416 421.6836 256.8086 422.126 Q257.2012 422.5684 257.2012 423.2305 Q257.2012 424.0684 256.5391 424.6074 Q255.877 425.1465 254.8457 425.1465 ZM261.1855 425.1465 Q260.3066 425.1465 259.8145 424.6426 Q259.3223 424.1387 259.3223 423.2422 L259.3223 419.5039 L258.5254 419.5039 L258.5254 418.6367 L259.3223 418.6367 L259.3223 417.4824 L260.4766 417.3711 L260.4766 418.6367 L262.1406 418.6367 L262.1406 419.5039 L260.4766 419.5039 L260.4766 423.0312 Q260.4766 424.2793 261.5547 424.2793 Q261.7832 424.2793 262.1113 424.2031 L262.1113 425 Q261.5781 425.1465 261.1855 425.1465 ZM263.7871 427.1152 L263.9219 426.1133 Q264.9238 426.5879 265.8965 426.5879 Q267.8477 426.5879 267.8477 424.5195 L267.8477 423.5176 Q267.209 424.8535 265.75 424.8535 Q264.6074 424.8535 263.9336 424.0215 Q263.2598 423.1895 263.2598 421.7773 Q263.2598 420.3242 264.0273 419.4102 Q264.7949 418.4961 266.0137 418.4961 Q267.0801 418.4961 267.8477 419.3633 L267.8477 418.6367 L269.0078 418.6367 L269.0078 423.2656 Q269.0078 424.7598 268.8525 425.4775 Q268.6973 426.1953 268.2695 426.6523 Q267.5137 427.4551 265.9199 427.4551 Q264.8066 427.4551 263.7871 427.1152 ZM267.8477 422.7969 L267.8477 420.1543 Q267.0859 419.3633 266.1895 419.3633 Q265.3926 419.3633 264.9414 420.002 Q264.4902 420.6406 264.4902 421.7539 Q264.4902 423.8457 265.9609 423.8457 Q266.9629 423.8457 267.8477 422.7969 ZM271.2461 425 L271.2461 418.6367 L272.4004 418.6367 L272.4004 419.832 Q273.0859 418.4961 274.3926 418.4961 Q274.5684 418.4961 274.7617 418.5254 L274.7617 419.6035 Q274.4629 419.5039 274.2344 419.5039 Q273.1387 419.5039 272.4004 420.8047 L272.4004 425 ZM280.8203 424.7949 Q279.6602 425.1465 278.834 425.1465 Q277.4277 425.1465 276.54 424.2119 Q275.6523 423.2773 275.6523 421.7891 Q275.6523 420.3418 276.4346 419.416 Q277.2168 418.4902 278.4355 418.4902 Q279.5898 418.4902 280.2197 419.3105 Q280.8496 420.1309 280.8496 421.6426 L280.8438 422 L276.8301 422 Q277.082 424.2676 279.0508 424.2676 Q279.7715 424.2676 280.8203 423.8809 ZM276.8828 421.1328 L279.6895 421.1328 Q279.6895 419.3574 278.3652 419.3574 Q277.0352 419.3574 276.8828 421.1328 ZM284.5293 425.1465 Q283.7383 425.1465 282.6074 424.7773 L282.6074 423.7168 Q283.7383 424.2793 284.5762 424.2793 Q285.0742 424.2793 285.4023 424.0098 Q285.7305 423.7402 285.7305 423.3359 Q285.7305 422.7441 284.8105 422.3574 L284.1367 422.0703 Q282.6426 421.4492 282.6426 420.2832 Q282.6426 419.4512 283.2314 418.9736 Q283.8203 418.4961 284.8457 418.4961 Q285.3789 418.4961 286.1641 418.6426 L286.4043 418.6895 L286.4043 419.6504 Q285.4375 419.3633 284.8691 419.3633 Q283.7559 419.3633 283.7559 420.1719 Q283.7559 420.6934 284.5996 421.0508 L285.1562 421.2852 Q286.0996 421.6836 286.4922 422.126 Q286.8848 422.5684 286.8848 423.2305 Q286.8848 424.0684 286.2227 424.6074 Q285.5605 425.1465 284.5293 425.1465 ZM292.7207 425 L292.7207 416.3281 L295.6035 416.3281 Q296.8926 416.3281 297.6865 416.6152 Q298.4805 416.9023 299.0605 417.5879 Q299.9805 418.6777 299.9805 420.459 Q299.9805 422.6211 298.8379 423.8105 Q297.6953 425 295.6211 425 ZM293.9512 424.0801 L295.5273 424.0801 Q297.2148 424.0801 297.918 423.1719 Q298.6738 422.2051 298.6738 420.5762 Q298.6738 419.0469 297.9297 418.1738 Q297.4785 417.6406 296.8516 417.4443 Q296.2246 417.248 294.9648 417.248 L293.9512 417.248 ZM301.709 425 L301.709 416.3281 L303.959 416.3281 Q305.2598 416.3281 305.9541 416.8203 Q306.6484 417.3125 306.6484 418.2383 Q306.6484 419.8145 304.8672 420.4824 Q306.9941 421.1328 306.9941 422.832 Q306.9941 423.8867 306.291 424.4434 Q305.5879 425 304.2637 425 ZM302.9277 424.0801 L303.1797 424.0801 Q304.5332 424.0801 304.9316 423.9102 Q305.6934 423.5879 305.6934 422.7148 Q305.6934 421.9414 305.002 421.4287 Q304.3105 420.916 303.2734 420.916 L302.9277 420.916 ZM302.9277 420.1367 L303.3203 420.1367 Q304.3047 420.1367 304.8467 419.7148 Q305.3887 419.293 305.3887 418.5254 Q305.3887 417.248 303.4082 417.248 L302.9277 417.248 Z"
                  clip-path="url(#clipPath16)" stroke="none"/>
            <rect x="393" y="394" clip-path="url(#clipPath17)"
                  fill="rgb(181,255,255)" width="119" rx="10" ry="10"
                  height="54" stroke="none"/>
            <rect x="393" y="394" clip-path="url(#clipPath17)" fill="none"
                  width="119" rx="10" ry="10" height="54"
                  stroke="rgb(126,178,178)"/>
            <rect x="492" y="401" clip-path="url(#clipPath17)" fill="none"
                  width="16" rx="4" ry="4" height="9" stroke="black"/>
            <path fill="black"
                  d="M440.5137 406.6836 L439.0371 402.9453 L437.5547 406.6836 ZM441.8145 410 L440.8711 407.5977 L437.1973 407.5977 L436.2422 410 L435.0996 410 L438.5391 401.3281 L439.7578 401.3281 L443.1445 410 ZM444 410 L444 409.1328 L447.9375 404.5039 L444.1816 404.5039 L444.1816 403.6367 L449.3613 403.6367 L449.3613 404.5039 L445.4238 409.1328 L449.4375 409.1328 L449.4375 410 ZM455.291 410 L455.291 408.8047 Q454.3711 410.1465 453.0586 410.1465 Q452.2266 410.1465 451.7344 409.6221 Q451.2422 409.0977 451.2422 408.207 L451.2422 403.6367 L452.3965 403.6367 L452.3965 407.832 Q452.3965 408.5469 452.6045 408.8486 Q452.8125 409.1504 453.2988 409.1504 Q454.3535 409.1504 455.291 407.7617 L455.291 403.6367 L456.4453 403.6367 L456.4453 410 ZM458.7598 410 L458.7598 403.6367 L459.9141 403.6367 L459.9141 404.832 Q460.5996 403.4961 461.9062 403.4961 Q462.082 403.4961 462.2754 403.5254 L462.2754 404.6035 Q461.9766 404.5039 461.748 404.5039 Q460.6523 404.5039 459.9141 405.8047 L459.9141 410 ZM468.334 409.7949 Q467.1738 410.1465 466.3477 410.1465 Q464.9414 410.1465 464.0537 409.2119 Q463.166 408.2773 463.166 406.7891 Q463.166 405.3418 463.9482 404.416 Q464.7305 403.4902 465.9492 403.4902 Q467.1035 403.4902 467.7334 404.3105 Q468.3633 405.1309 468.3633 406.6426 L468.3574 407 L464.3438 407 Q464.5957 409.2676 466.5645 409.2676 Q467.2852 409.2676 468.334 408.8809 ZM464.3965 406.1328 L467.2031 406.1328 Q467.2031 404.3574 465.8789 404.3574 Q464.5488 404.3574 464.3965 406.1328 Z"
                  clip-path="url(#clipPath18)" stroke="none"/>
            <path fill="black"
                  d="M422.8184 425.2168 Q421.9453 425.2168 420.5859 424.8359 L420.5859 423.6172 Q422.0508 424.2969 422.9941 424.2969 Q423.7207 424.2969 424.1631 423.916 Q424.6055 423.5352 424.6055 422.9141 Q424.6055 422.4043 424.3154 422.0469 Q424.0254 421.6895 423.2461 421.25 L422.6484 420.9043 Q421.541 420.2715 421.0869 419.7119 Q420.6328 419.1523 420.6328 418.4082 Q420.6328 417.4062 421.3594 416.7588 Q422.0859 416.1113 423.2109 416.1113 Q424.2129 416.1113 425.3262 416.4453 L425.3262 417.5703 Q423.9551 417.0312 423.2812 417.0312 Q422.6426 417.0312 422.2266 417.3711 Q421.8105 417.7109 421.8105 418.2266 Q421.8105 418.6602 422.1152 418.9941 Q422.4199 419.3281 423.2285 419.791 L423.8496 420.1426 Q424.9746 420.7812 425.4199 421.3496 Q425.8652 421.918 425.8652 422.7148 Q425.8652 423.8457 425.0303 424.5312 Q424.1953 425.2168 422.8184 425.2168 ZM432.2812 424.7949 Q431.1211 425.1465 430.2949 425.1465 Q428.8887 425.1465 428.001 424.2119 Q427.1133 423.2773 427.1133 421.7891 Q427.1133 420.3418 427.8955 419.416 Q428.6777 418.4902 429.8965 418.4902 Q431.0508 418.4902 431.6807 419.3105 Q432.3105 420.1309 432.3105 421.6426 L432.3047 422 L428.291 422 Q428.543 424.2676 430.5117 424.2676 Q431.2324 424.2676 432.2812 423.8809 ZM428.3438 421.1328 L431.1504 421.1328 Q431.1504 419.3574 429.8262 419.3574 Q428.4961 419.3574 428.3438 421.1328 ZM434.3027 425 L434.3027 418.6367 L435.457 418.6367 L435.457 419.832 Q436.1426 418.4961 437.4492 418.4961 Q437.625 418.4961 437.8184 418.5254 L437.8184 419.6035 Q437.5195 419.5039 437.291 419.5039 Q436.1953 419.5039 435.457 420.8047 L435.457 425 ZM440.5312 425 L438.1641 418.6367 L439.3184 418.6367 L441.1699 423.5879 L443.1211 418.6367 L444.1992 418.6367 L441.6855 425 ZM445.4238 425 L445.4238 418.6367 L446.5781 418.6367 L446.5781 425 ZM445.4238 417.4824 L445.4238 416.3281 L446.5781 416.3281 L446.5781 417.4824 ZM451.377 425.1465 Q450.0879 425.1465 449.2383 424.1914 Q448.3887 423.2363 448.3887 421.7832 Q448.3887 420.2305 449.2295 419.3633 Q450.0703 418.4961 451.5762 418.4961 Q452.3203 418.4961 453.2402 418.7012 L453.2402 419.668 Q452.2617 419.3809 451.6465 419.3809 Q450.7617 419.3809 450.2256 420.0459 Q449.6895 420.7109 449.6895 421.8184 Q449.6895 422.8906 450.2402 423.5527 Q450.791 424.2148 451.6816 424.2148 Q452.4727 424.2148 453.3105 423.8105 L453.3105 424.8066 Q452.1914 425.1465 451.377 425.1465 ZM459.7031 424.7949 Q458.543 425.1465 457.7168 425.1465 Q456.3105 425.1465 455.4229 424.2119 Q454.5352 423.2773 454.5352 421.7891 Q454.5352 420.3418 455.3174 419.416 Q456.0996 418.4902 457.3184 418.4902 Q458.4727 418.4902 459.1025 419.3105 Q459.7324 420.1309 459.7324 421.6426 L459.7266 422 L455.7129 422 Q455.9648 424.2676 457.9336 424.2676 Q458.6543 424.2676 459.7031 423.8809 ZM455.7656 421.1328 L458.5723 421.1328 Q458.5723 419.3574 457.248 419.3574 Q455.918 419.3574 455.7656 421.1328 ZM465.4863 425 L465.4863 416.3281 L467.7363 416.3281 Q469.0371 416.3281 469.7314 416.8203 Q470.4258 417.3125 470.4258 418.2383 Q470.4258 419.8145 468.6445 420.4824 Q470.7715 421.1328 470.7715 422.832 Q470.7715 423.8867 470.0684 424.4434 Q469.3652 425 468.041 425 ZM466.7051 424.0801 L466.957 424.0801 Q468.3105 424.0801 468.709 423.9102 Q469.4707 423.5879 469.4707 422.7148 Q469.4707 421.9414 468.7793 421.4287 Q468.0879 420.916 467.0508 420.916 L466.7051 420.916 ZM466.7051 420.1367 L467.0977 420.1367 Q468.082 420.1367 468.624 419.7148 Q469.166 419.293 469.166 418.5254 Q469.166 417.248 467.1855 417.248 L466.7051 417.248 ZM476.4023 425 L476.4023 423.8047 Q475.4824 425.1465 474.1699 425.1465 Q473.3379 425.1465 472.8457 424.6221 Q472.3535 424.0977 472.3535 423.207 L472.3535 418.6367 L473.5078 418.6367 L473.5078 422.832 Q473.5078 423.5469 473.7158 423.8486 Q473.9238 424.1504 474.4102 424.1504 Q475.4648 424.1504 476.4023 422.7617 L476.4023 418.6367 L477.5566 418.6367 L477.5566 425 ZM481.5586 425.1465 Q480.7676 425.1465 479.6367 424.7773 L479.6367 423.7168 Q480.7676 424.2793 481.6055 424.2793 Q482.1035 424.2793 482.4316 424.0098 Q482.7598 423.7402 482.7598 423.3359 Q482.7598 422.7441 481.8398 422.3574 L481.166 422.0703 Q479.6719 421.4492 479.6719 420.2832 Q479.6719 419.4512 480.2607 418.9736 Q480.8496 418.4961 481.875 418.4961 Q482.4082 418.4961 483.1934 418.6426 L483.4336 418.6895 L483.4336 419.6504 Q482.4668 419.3633 481.8984 419.3633 Q480.7852 419.3633 480.7852 420.1719 Q480.7852 420.6934 481.6289 421.0508 L482.1855 421.2852 Q483.1289 421.6836 483.5215 422.126 Q483.9141 422.5684 483.9141 423.2305 Q483.9141 424.0684 483.252 424.6074 Q482.5898 425.1465 481.5586 425.1465 Z"
                  clip-path="url(#clipPath18)" stroke="none"/>
        </g>
        <g text-rendering="optimizeLegibility" font-size="13px"
           font-family="'.AppleSystemUIFont'" stroke-linecap="butt">
            <path fill="none" d="M309 94 L309 64" clip-path="url(#clipPath19)"/>
            <path fill="none" d="M249 148 L152 262" clip-path="url(#clipPath20)"/>
            <path fill="none"
                  d="M249 148 L208 210 L207 210 L207 211 L207 211 L206 211 L206 212 L205 212 L152 262"
                  clip-path="url(#clipPath21)"/>
            <path fill="none" d="M155 255 L152 262 L159 259"
                  clip-path="url(#clipPath22)"/>
            <path fill="none" d="M303 148 L303 262" clip-path="url(#clipPath23)"/>
            <path fill="none"
                  d="M303 148 L313 203 L313 203 L313 204 L313 205 L313 206 L313 207 L313 207 L303 262"
                  clip-path="url(#clipPath24)"/>
            <path fill="none" d="M301 255 L303 262 L307 256"
                  clip-path="url(#clipPath25)"/>
            <path fill="none" d="M368 148 L405 262" clip-path="url(#clipPath26)"/>
            <path fill="none" d="M368 148 L561 262" clip-path="url(#clipPath27)"/>
            <path fill="none" d="M152 316 L213 394" clip-path="url(#clipPath28)"/>
            <path fill="none" d="M285 316 L285 394" clip-path="url(#clipPath29)"/>
            <path fill="none" d="M405 316 L332 394" clip-path="url(#clipPath30)"/>
            <path fill="none" d="M561 316 L509 397" clip-path="url(#clipPath31)"/>
        </g>
    </g>
</svg>
