<?xml version="1.0"?>


<svg fill-opacity="1" xmlns:xlink="http://www.w3.org/1999/xlink"
     color-rendering="auto" color-interpolation="auto" text-rendering="auto"
     stroke="black" stroke-linecap="square" width="788" stroke-miterlimit="10"
     shape-rendering="auto" stroke-opacity="1" fill="black"
     stroke-dasharray="none" font-weight="normal" stroke-width="1"
     viewBox="0 0 788 449" height="449" xmlns="http://www.w3.org/2000/svg"
     font-family="'Dialog'" font-style="normal" stroke-linejoin="miter"
     font-size="12px" stroke-dashoffset="0" image-rendering="auto">
    <!--Generated by Archi with Batik SVG Generator-->
    <defs id="genericDefs"/>
    <g>
        <defs id="defs1">
            <clipPath clipPathUnits="userSpaceOnUse" id="clipPath1">
                <path d="M249 9 L451 9 L451 61 L249 61 L249 9 Z"/>
            </clipPath>
            <clipPath clipPathUnits="userSpaceOnUse" id="clipPath2">
                <path d="M325 13 L392 13 L392 30 L325 30 L325 13 Z"/>
            </clipPath>
            <clipPath clipPathUnits="userSpaceOnUse" id="clipPath3">
                <path d="M199 89 L501 89 L501 141 L199 141 L199 89 Z"/>
            </clipPath>
            <clipPath clipPathUnits="userSpaceOnUse" id="clipPath4">
                <path d="M323 93 L395 93 L395 110 L323 110 L323 93 Z"/>
            </clipPath>
            <clipPath clipPathUnits="userSpaceOnUse" id="clipPath5">
                <path d="M9 177 L131 177 L131 233 L9 233 L9 177 Z"/>
            </clipPath>
            <clipPath clipPathUnits="userSpaceOnUse" id="clipPath6">
                <path d="M46 181 L111 181 L111 198 L46 198 L46 181 Z"/>
            </clipPath>
            <clipPath clipPathUnits="userSpaceOnUse" id="clipPath7">
                <path d="M153 177 L275 177 L275 233 L153 233 L153 177 Z"/>
            </clipPath>
            <clipPath clipPathUnits="userSpaceOnUse" id="clipPath8">
                <path d="M185 181 L260 181 L260 198 L185 198 L185 181 Z"/>
            </clipPath>
            <clipPath clipPathUnits="userSpaceOnUse" id="clipPath9">
                <path d="M289 177 L411 177 L411 233 L289 233 L289 177 Z"/>
            </clipPath>
            <clipPath clipPathUnits="userSpaceOnUse" id="clipPath10">
                <path d="M322 181 L395 181 L395 198 L322 198 L322 181 Z"/>
            </clipPath>
            <clipPath clipPathUnits="userSpaceOnUse" id="clipPath11">
                <path d="M417 177 L539 177 L539 233 L417 233 L417 177 Z"/>
            </clipPath>
            <clipPath clipPathUnits="userSpaceOnUse" id="clipPath12">
                <path d="M448 181 L526 181 L526 198 L448 198 L448 181 Z"/>
            </clipPath>
            <clipPath clipPathUnits="userSpaceOnUse" id="clipPath13">
                <path d="M549 177 L671 177 L671 233 L549 233 L549 177 Z"/>
            </clipPath>
            <clipPath clipPathUnits="userSpaceOnUse" id="clipPath14">
                <path d="M578 181 L659 181 L659 198 L578 198 L578 181 Z"/>
            </clipPath>
            <clipPath clipPathUnits="userSpaceOnUse" id="clipPath15">
                <path d="M139 279 L561 279 L561 325 L139 325 L139 279 Z"/>
            </clipPath>
            <clipPath clipPathUnits="userSpaceOnUse" id="clipPath16">
                <path d="M297 283 L402 283 L402 300 L297 300 L297 283 Z"/>
            </clipPath>
            <clipPath clipPathUnits="userSpaceOnUse" id="clipPath17">
                <path d="M199 386 L361 386 L361 438 L199 438 L199 386 Z"/>
            </clipPath>
            <clipPath clipPathUnits="userSpaceOnUse" id="clipPath18">
                <path d="M253 390 L325 390 L325 407 L253 407 L253 390 Z"/>
            </clipPath>
            <clipPath clipPathUnits="userSpaceOnUse" id="clipPath19">
                <path d="M448 383 L570 383 L570 440 L448 440 L448 383 Z"/>
            </clipPath>
            <clipPath clipPathUnits="userSpaceOnUse" id="clipPath20">
                <path d="M485 387 L533 387 L533 404 L485 404 L485 387 Z"/>
            </clipPath>
            <clipPath clipPathUnits="userSpaceOnUse" id="clipPath21">
                <path d="M657 332 L779 332 L779 389 L657 389 L657 332 Z"/>
            </clipPath>
            <clipPath clipPathUnits="userSpaceOnUse" id="clipPath22">
                <path d="M685 336 L751 336 L751 368 L685 368 L685 336 Z"/>
            </clipPath>
            <clipPath clipPathUnits="userSpaceOnUse" id="clipPath23">
                <path d="M335 48 L366 48 L366 103 L335 103 L335 48 Z"/>
            </clipPath>
            <clipPath clipPathUnits="userSpaceOnUse" id="clipPath24">
                <path d="M345 81 L356 81 L356 93 L345 93 L345 81 Z"/>
            </clipPath>
            <clipPath clipPathUnits="userSpaceOnUse" id="clipPath25">
                <path d="M117 128 L212 128 L212 191 L117 191 L117 128 Z"/>
            </clipPath>
            <clipPath clipPathUnits="userSpaceOnUse" id="clipPath26">
                <path d="M127 170 L140 170 L140 181 L127 181 L127 170 Z"/>
            </clipPath>
            <clipPath clipPathUnits="userSpaceOnUse" id="clipPath27">
                <path d="M222 128 L253 128 L253 191 L222 191 L222 128 Z"/>
            </clipPath>
            <clipPath clipPathUnits="userSpaceOnUse" id="clipPath28">
                <path d="M232 169 L243 169 L243 181 L232 181 L232 169 Z"/>
            </clipPath>
            <clipPath clipPathUnits="userSpaceOnUse" id="clipPath29">
                <path d="M335 128 L366 128 L366 191 L335 191 L335 128 Z"/>
            </clipPath>
            <clipPath clipPathUnits="userSpaceOnUse" id="clipPath30">
                <path d="M345 169 L356 169 L356 181 L345 181 L345 169 Z"/>
            </clipPath>
            <clipPath clipPathUnits="userSpaceOnUse" id="clipPath31">
                <path d="M444 128 L475 128 L475 191 L444 191 L444 128 Z"/>
            </clipPath>
            <clipPath clipPathUnits="userSpaceOnUse" id="clipPath32">
                <path d="M454 169 L465 169 L465 181 L454 181 L454 169 Z"/>
            </clipPath>
            <clipPath clipPathUnits="userSpaceOnUse" id="clipPath33">
                <path d="M488 128 L563 128 L563 191 L488 191 L488 128 Z"/>
            </clipPath>
            <clipPath clipPathUnits="userSpaceOnUse" id="clipPath34">
                <path d="M541 169 L553 169 L553 181 L541 181 L541 169 Z"/>
            </clipPath>
            <clipPath clipPathUnits="userSpaceOnUse" id="clipPath35">
                <path d="M118 220 L157 220 L157 296 L118 296 L118 220 Z"/>
            </clipPath>
            <clipPath clipPathUnits="userSpaceOnUse" id="clipPath36">
                <path d="M136 273 L147 273 L147 286 L136 286 L136 273 Z"/>
            </clipPath>
            <clipPath clipPathUnits="userSpaceOnUse" id="clipPath37">
                <path d="M199 220 L230 220 L230 293 L199 293 L199 220 Z"/>
            </clipPath>
            <clipPath clipPathUnits="userSpaceOnUse" id="clipPath38">
                <path d="M209 271 L220 271 L220 283 L209 283 L209 271 Z"/>
            </clipPath>
            <clipPath clipPathUnits="userSpaceOnUse" id="clipPath39">
                <path d="M335 220 L366 220 L366 293 L335 293 L335 220 Z"/>
            </clipPath>
            <clipPath clipPathUnits="userSpaceOnUse" id="clipPath40">
                <path d="M345 271 L356 271 L356 283 L345 283 L345 271 Z"/>
            </clipPath>
            <clipPath clipPathUnits="userSpaceOnUse" id="clipPath41">
                <path d="M463 220 L494 220 L494 293 L463 293 L463 220 Z"/>
            </clipPath>
            <clipPath clipPathUnits="userSpaceOnUse" id="clipPath42">
                <path d="M473 271 L484 271 L484 283 L473 283 L473 271 Z"/>
            </clipPath>
            <clipPath clipPathUnits="userSpaceOnUse" id="clipPath43">
                <path d="M540 220 L571 220 L571 295 L540 295 L540 220 Z"/>
            </clipPath>
            <clipPath clipPathUnits="userSpaceOnUse" id="clipPath44">
                <path d="M550 273 L561 273 L561 285 L550 285 L550 273 Z"/>
            </clipPath>
            <clipPath clipPathUnits="userSpaceOnUse" id="clipPath45">
                <path d="M649 220 L680 220 L680 347 L649 347 L649 220 Z"/>
            </clipPath>
            <clipPath clipPathUnits="userSpaceOnUse" id="clipPath46">
                <path d="M659 325 L670 325 L670 337 L659 337 L659 325 Z"/>
            </clipPath>
            <clipPath clipPathUnits="userSpaceOnUse" id="clipPath47">
                <path d="M265 312 L296 312 L296 400 L265 400 L265 312 Z"/>
            </clipPath>
            <clipPath clipPathUnits="userSpaceOnUse" id="clipPath48">
                <path d="M275 378 L286 378 L286 390 L275 390 L275 378 Z"/>
            </clipPath>
            <clipPath clipPathUnits="userSpaceOnUse" id="clipPath49">
                <path d="M348 397 L462 397 L462 428 L348 428 L348 397 Z"/>
            </clipPath>
            <clipPath clipPathUnits="userSpaceOnUse" id="clipPath50">
                <path d="M440 407 L452 407 L452 418 L440 418 L440 407 Z"/>
            </clipPath>
        </defs>
        <g fill="rgb(181,255,255)" text-rendering="optimizeLegibility"
           font-family="'Lucida Grande'" stroke-linejoin="round"
           stroke="rgb(181,255,255)" stroke-width="0" stroke-miterlimit="0">
            <rect x="260" width="189" height="49" y="10"
                  clip-path="url(#clipPath1)" stroke="none"/>
        </g>
        <g fill="rgb(126,178,178)" text-rendering="optimizeLegibility"
           font-family="'Lucida Grande'" stroke-linecap="butt"
           stroke="rgb(126,178,178)">
            <path fill="none"
                  d="M260 20 L260 10 L449 10 L449 59 L260 59 L260 53"
                  clip-path="url(#clipPath1)"/>
            <line y2="40" fill="none" x1="260" clip-path="url(#clipPath1)"
                  x2="260" y1="33"/>
            <rect x="250" y="20" clip-path="url(#clipPath1)"
                  fill="rgb(162,229,229)" width="20" height="13" stroke="none"/>
            <rect x="250" y="40" clip-path="url(#clipPath1)"
                  fill="rgb(162,229,229)" width="20" height="13" stroke="none"/>
            <rect fill="none" x="250" width="20" height="13" y="20"
                  clip-path="url(#clipPath1)"/>
            <rect fill="none" x="250" width="20" height="13" y="40"
                  clip-path="url(#clipPath1)"/>
            <path fill="black"
                  d="M327.1191 26 L327.1191 17.3281 L328.8242 17.3281 L331.2266 24.0371 L333.6992 17.3281 L335.2227 17.3281 L335.2227 26 L334.0742 26 L334.0742 18.9453 L331.6836 25.4199 L330.4941 25.4199 L328.1738 18.9277 L328.1738 26 ZM339.9805 26.1465 Q338.6152 26.1465 337.8008 25.2412 Q336.9863 24.3359 336.9863 22.8184 Q336.9863 21.2832 337.8037 20.3896 Q338.6211 19.4961 340.0215 19.4961 Q341.4219 19.4961 342.2393 20.3896 Q343.0566 21.2832 343.0566 22.8066 Q343.0566 24.3652 342.2363 25.2559 Q341.416 26.1465 339.9805 26.1465 ZM339.998 25.2793 Q341.832 25.2793 341.832 22.8066 Q341.832 20.3633 340.0215 20.3633 Q338.2168 20.3633 338.2168 22.8184 Q338.2168 25.2793 339.998 25.2793 ZM344.8613 26.0703 L344.8613 16.748 L346.0156 16.748 L346.0156 20.832 Q346.7246 19.4961 348.1426 19.4961 Q349.291 19.4961 349.9502 20.334 Q350.6094 21.1719 350.6094 22.625 Q350.6094 24.207 349.8623 25.1768 Q349.1152 26.1465 347.8965 26.1465 Q346.7656 26.1465 346.0156 25.2793 L345.875 26.0703 ZM346.0156 24.4824 Q346.9062 25.2793 347.7148 25.2793 Q349.3789 25.2793 349.3789 22.7422 Q349.3789 20.5039 347.9023 20.5039 Q346.9355 20.5039 346.0156 21.5527 ZM352.4141 26 L352.4141 19.6367 L353.5684 19.6367 L353.5684 26 ZM352.4141 18.4824 L352.4141 17.3281 L353.5684 17.3281 L353.5684 18.4824 ZM355.8828 26 L355.8828 16.748 L357.0371 16.748 L357.0371 26 ZM364.0156 25.7949 Q362.8555 26.1465 362.0293 26.1465 Q360.623 26.1465 359.7354 25.2119 Q358.8477 24.2773 358.8477 22.7891 Q358.8477 21.3418 359.6299 20.416 Q360.4121 19.4902 361.6309 19.4902 Q362.7852 19.4902 363.415 20.3105 Q364.0449 21.1309 364.0449 22.6426 L364.0391 23 L360.0254 23 Q360.2773 25.2676 362.2461 25.2676 Q362.9668 25.2676 364.0156 24.8809 ZM360.0781 22.1328 L362.8848 22.1328 Q362.8848 20.3574 361.5605 20.3574 Q360.2305 20.3574 360.0781 22.1328 ZM373.1152 25.1914 Q372.0781 26.1465 371.1172 26.1465 Q370.3262 26.1465 369.8047 25.6514 Q369.2832 25.1562 369.2832 24.4004 Q369.2832 23.3574 370.1592 22.7979 Q371.0352 22.2383 372.6699 22.2383 L372.9453 22.2383 L372.9453 21.4707 Q372.9453 20.3633 371.8086 20.3633 Q370.8945 20.3633 369.834 20.9258 L369.834 19.9707 Q371 19.4961 372.0195 19.4961 Q373.0859 19.4961 373.5928 19.9766 Q374.0996 20.457 374.0996 21.4707 L374.0996 24.3535 Q374.0996 25.3438 374.709 25.3438 Q374.7852 25.3438 374.9316 25.3203 L375.0137 25.959 Q374.6211 26.1465 374.1465 26.1465 Q373.3379 26.1465 373.1152 25.1914 ZM372.9453 24.5645 L372.9453 22.918 L372.5586 22.9062 Q371.6094 22.9062 371.0234 23.2666 Q370.4375 23.627 370.4375 24.2129 Q370.4375 24.6289 370.7305 24.916 Q371.0234 25.2031 371.4453 25.2031 Q372.166 25.2031 372.9453 24.5645 ZM376.4609 28.3145 L376.4609 19.6367 L377.6152 19.6367 L377.6152 20.832 Q378.3242 19.4961 379.7422 19.4961 Q380.8906 19.4961 381.5498 20.334 Q382.209 21.1719 382.209 22.625 Q382.209 24.207 381.4619 25.1768 Q380.7148 26.1465 379.4961 26.1465 Q378.3652 26.1465 377.6152 25.2793 L377.6152 28.3145 ZM377.6152 24.4824 Q378.5059 25.2793 379.3145 25.2793 Q380.9785 25.2793 380.9785 22.7422 Q380.9785 20.5039 379.502 20.5039 Q378.5352 20.5039 377.6152 21.5527 ZM384.0137 28.3145 L384.0137 19.6367 L385.168 19.6367 L385.168 20.832 Q385.877 19.4961 387.2949 19.4961 Q388.4434 19.4961 389.1025 20.334 Q389.7617 21.1719 389.7617 22.625 Q389.7617 24.207 389.0146 25.1768 Q388.2676 26.1465 387.0488 26.1465 Q385.918 26.1465 385.168 25.2793 L385.168 28.3145 ZM385.168 24.4824 Q386.0586 25.2793 386.8672 25.2793 Q388.5312 25.2793 388.5312 22.7422 Q388.5312 20.5039 387.0547 20.5039 Q386.0879 20.5039 385.168 21.5527 Z"
                  clip-path="url(#clipPath2)" stroke="none"/>
            <rect x="210" y="90" clip-path="url(#clipPath3)"
                  fill="rgb(181,255,255)" width="289" height="49" stroke="none"/>
            <path fill="none"
                  d="M210 100 L210 90 L499 90 L499 139 L210 139 L210 133"
                  clip-path="url(#clipPath3)"/>
            <line y2="120" fill="none" x1="210" clip-path="url(#clipPath3)"
                  x2="210" y1="113"/>
            <rect x="200" y="100" clip-path="url(#clipPath3)"
                  fill="rgb(162,229,229)" width="20" height="13" stroke="none"/>
            <rect x="200" y="120" clip-path="url(#clipPath3)"
                  fill="rgb(162,229,229)" width="20" height="13" stroke="none"/>
            <rect fill="none" x="200" width="20" height="13" y="100"
                  clip-path="url(#clipPath3)"/>
            <rect fill="none" x="200" width="20" height="13" y="120"
                  clip-path="url(#clipPath3)"/>
            <path fill="black"
                  d="M329.5137 102.6836 L328.0371 98.9453 L326.5547 102.6836 ZM330.8145 106 L329.8711 103.5977 L326.1973 103.5977 L325.2422 106 L324.0996 106 L327.5391 97.3281 L328.7578 97.3281 L332.1445 106 ZM333.3984 106 L333.3984 97.3281 L335.7598 97.3281 Q337.3301 97.3281 338.0156 97.8584 Q338.7012 98.3887 338.7012 99.6016 Q338.7012 100.9844 337.7637 101.7695 Q336.8262 102.5547 335.1621 102.5547 L334.6172 102.5547 L334.6172 106 ZM334.6172 101.623 L335.1152 101.623 Q336.2109 101.623 336.8086 101.1191 Q337.4062 100.6152 337.4062 99.6953 Q337.4062 98.916 336.9375 98.582 Q336.4688 98.248 335.373 98.248 L334.6172 98.248 ZM340.0254 106 L340.0254 97.3281 L341.2559 97.3281 L341.2559 106 ZM347.3438 108.1152 L347.4785 107.1133 Q348.4805 107.5879 349.4531 107.5879 Q351.4043 107.5879 351.4043 105.5195 L351.4043 104.5176 Q350.7656 105.8535 349.3066 105.8535 Q348.1641 105.8535 347.4902 105.0215 Q346.8164 104.1895 346.8164 102.7773 Q346.8164 101.3242 347.584 100.4102 Q348.3516 99.4961 349.5703 99.4961 Q350.6367 99.4961 351.4043 100.3633 L351.4043 99.6367 L352.5645 99.6367 L352.5645 104.2656 Q352.5645 105.7598 352.4092 106.4775 Q352.2539 107.1953 351.8262 107.6523 Q351.0703 108.4551 349.4766 108.4551 Q348.3633 108.4551 347.3438 108.1152 ZM351.4043 103.7969 L351.4043 101.1543 Q350.6426 100.3633 349.7461 100.3633 Q348.9492 100.3633 348.498 101.002 Q348.0469 101.6406 348.0469 102.7539 Q348.0469 104.8457 349.5176 104.8457 Q350.5195 104.8457 351.4043 103.7969 ZM358.084 105.1914 Q357.0469 106.1465 356.0859 106.1465 Q355.2949 106.1465 354.7734 105.6514 Q354.252 105.1562 354.252 104.4004 Q354.252 103.3574 355.1279 102.7979 Q356.0039 102.2383 357.6387 102.2383 L357.9141 102.2383 L357.9141 101.4707 Q357.9141 100.3633 356.7773 100.3633 Q355.8633 100.3633 354.8027 100.9258 L354.8027 99.9707 Q355.9688 99.4961 356.9883 99.4961 Q358.0547 99.4961 358.5615 99.9766 Q359.0684 100.457 359.0684 101.4707 L359.0684 104.3535 Q359.0684 105.3438 359.6777 105.3438 Q359.7539 105.3438 359.9004 105.3203 L359.9824 105.959 Q359.5898 106.1465 359.1152 106.1465 Q358.3066 106.1465 358.084 105.1914 ZM357.9141 104.5645 L357.9141 102.918 L357.5273 102.9062 Q356.5781 102.9062 355.9922 103.2666 Q355.4062 103.627 355.4062 104.2129 Q355.4062 104.6289 355.6992 104.916 Q355.9922 105.2031 356.4141 105.2031 Q357.1348 105.2031 357.9141 104.5645 ZM363.3398 106.1465 Q362.4609 106.1465 361.9688 105.6426 Q361.4766 105.1387 361.4766 104.2422 L361.4766 100.5039 L360.6797 100.5039 L360.6797 99.6367 L361.4766 99.6367 L361.4766 98.4824 L362.6309 98.3711 L362.6309 99.6367 L364.2949 99.6367 L364.2949 100.5039 L362.6309 100.5039 L362.6309 104.0312 Q362.6309 105.2793 363.709 105.2793 Q363.9375 105.2793 364.2656 105.2031 L364.2656 106 Q363.7324 106.1465 363.3398 106.1465 ZM370.582 105.7949 Q369.4219 106.1465 368.5957 106.1465 Q367.1895 106.1465 366.3018 105.2119 Q365.4141 104.2773 365.4141 102.7891 Q365.4141 101.3418 366.1963 100.416 Q366.9785 99.4902 368.1973 99.4902 Q369.3516 99.4902 369.9814 100.3105 Q370.6113 101.1309 370.6113 102.6426 L370.6055 103 L366.5918 103 Q366.8438 105.2676 368.8125 105.2676 Q369.5332 105.2676 370.582 104.8809 ZM366.6445 102.1328 L369.4512 102.1328 Q369.4512 100.3574 368.127 100.3574 Q366.7969 100.3574 366.6445 102.1328 ZM373.3418 106 L371.5195 99.6367 L372.6504 99.6367 L374.0449 104.5645 L375.5508 99.6367 L376.7051 99.6367 L378.0234 104.5645 L379.623 99.6367 L380.6133 99.6367 L378.5391 106 L377.3789 106 L376.0312 101.0723 L374.5078 106 ZM385.1309 105.1914 Q384.0938 106.1465 383.1328 106.1465 Q382.3418 106.1465 381.8203 105.6514 Q381.2988 105.1562 381.2988 104.4004 Q381.2988 103.3574 382.1748 102.7979 Q383.0508 102.2383 384.6855 102.2383 L384.9609 102.2383 L384.9609 101.4707 Q384.9609 100.3633 383.8242 100.3633 Q382.9102 100.3633 381.8496 100.9258 L381.8496 99.9707 Q383.0156 99.4961 384.0352 99.4961 Q385.1016 99.4961 385.6084 99.9766 Q386.1152 100.457 386.1152 101.4707 L386.1152 104.3535 Q386.1152 105.3438 386.7246 105.3438 Q386.8008 105.3438 386.9473 105.3203 L387.0293 105.959 Q386.6367 106.1465 386.1621 106.1465 Q385.3535 106.1465 385.1309 105.1914 ZM384.9609 104.5645 L384.9609 102.918 L384.5742 102.9062 Q383.625 102.9062 383.0391 103.2666 Q382.4531 103.627 382.4531 104.2129 Q382.4531 104.6289 382.7461 104.916 Q383.0391 105.2031 383.4609 105.2031 Q384.1816 105.2031 384.9609 104.5645 ZM388.8457 108.3145 L389.877 106 L387.416 99.6367 L388.6641 99.6367 L390.4863 104.4297 L392.4316 99.6367 L393.5215 99.6367 L390.0469 108.3145 Z"
                  clip-path="url(#clipPath4)" stroke="none"/>
            <rect x="20" y="178" clip-path="url(#clipPath5)"
                  fill="rgb(181,255,255)" width="109" height="53" stroke="none"/>
            <path fill="none"
                  d="M20 188 L20 178 L129 178 L129 231 L20 231 L20 221"
                  clip-path="url(#clipPath5)"/>
            <line y2="208" fill="none" x1="20" clip-path="url(#clipPath5)"
                  x2="20" y1="201"/>
            <rect x="10" y="188" clip-path="url(#clipPath5)"
                  fill="rgb(162,229,229)" width="20" height="13" stroke="none"/>
            <rect x="10" y="208" clip-path="url(#clipPath5)"
                  fill="rgb(162,229,229)" width="20" height="13" stroke="none"/>
            <rect fill="none" x="10" width="20" height="13" y="188"
                  clip-path="url(#clipPath5)"/>
            <rect fill="none" x="10" width="20" height="13" y="208"
                  clip-path="url(#clipPath5)"/>
            <path fill="black"
                  d="M45.9219 195.6113 L45.9219 194.5215 Q46.625 194.75 47.1641 194.75 Q47.8672 194.75 48.1455 194.3486 Q48.4238 193.9473 48.4238 192.9453 L48.4238 185.3281 L49.6543 185.3281 L49.6543 192.9043 Q49.6543 195.7344 46.9766 195.7344 Q46.5664 195.7344 45.9219 195.6113 ZM54.377 194.1465 Q53.0117 194.1465 52.1973 193.2412 Q51.3828 192.3359 51.3828 190.8184 Q51.3828 189.2832 52.2002 188.3896 Q53.0176 187.4961 54.418 187.4961 Q55.8184 187.4961 56.6357 188.3896 Q57.4531 189.2832 57.4531 190.8066 Q57.4531 192.3652 56.6328 193.2559 Q55.8125 194.1465 54.377 194.1465 ZM54.3945 193.2793 Q56.2285 193.2793 56.2285 190.8066 Q56.2285 188.3633 54.418 188.3633 Q52.6133 188.3633 52.6133 190.8184 Q52.6133 193.2793 54.3945 193.2793 ZM59.2578 194.0703 L59.2578 184.748 L60.4121 184.748 L60.4121 188.832 Q61.1211 187.4961 62.5391 187.4961 Q63.6875 187.4961 64.3467 188.334 Q65.0059 189.1719 65.0059 190.625 Q65.0059 192.207 64.2588 193.1768 Q63.5117 194.1465 62.293 194.1465 Q61.1621 194.1465 60.4121 193.2793 L60.2715 194.0703 ZM60.4121 192.4824 Q61.3027 193.2793 62.1113 193.2793 Q63.7754 193.2793 63.7754 190.7422 Q63.7754 188.5039 62.2988 188.5039 Q61.332 188.5039 60.4121 189.5527 ZM72.2949 194.1465 Q71.5039 194.1465 70.373 193.7773 L70.373 192.7168 Q71.5039 193.2793 72.3418 193.2793 Q72.8398 193.2793 73.168 193.0098 Q73.4961 192.7402 73.4961 192.3359 Q73.4961 191.7441 72.5762 191.3574 L71.9023 191.0703 Q70.4082 190.4492 70.4082 189.2832 Q70.4082 188.4512 70.9971 187.9736 Q71.5859 187.4961 72.6113 187.4961 Q73.1445 187.4961 73.9297 187.6426 L74.1699 187.6895 L74.1699 188.6504 Q73.2031 188.3633 72.6348 188.3633 Q71.5215 188.3633 71.5215 189.1719 Q71.5215 189.6934 72.3652 190.0508 L72.9219 190.2852 Q73.8652 190.6836 74.2578 191.126 Q74.6504 191.5684 74.6504 192.2305 Q74.6504 193.0684 73.9883 193.6074 Q73.3262 194.1465 72.2949 194.1465 ZM81.3887 193.7949 Q80.2285 194.1465 79.4023 194.1465 Q77.9961 194.1465 77.1084 193.2119 Q76.2207 192.2773 76.2207 190.7891 Q76.2207 189.3418 77.0029 188.416 Q77.7852 187.4902 79.0039 187.4902 Q80.1582 187.4902 80.7881 188.3105 Q81.418 189.1309 81.418 190.6426 L81.4121 191 L77.3984 191 Q77.6504 193.2676 79.6191 193.2676 Q80.3398 193.2676 81.3887 192.8809 ZM77.4512 190.1328 L80.2578 190.1328 Q80.2578 188.3574 78.9336 188.3574 Q77.6035 188.3574 77.4512 190.1328 ZM83.4102 194 L83.4102 187.6367 L84.5645 187.6367 L84.5645 188.832 Q85.25 187.4961 86.5566 187.4961 Q86.7324 187.4961 86.9258 187.5254 L86.9258 188.6035 Q86.627 188.5039 86.3984 188.5039 Q85.3027 188.5039 84.5645 189.8047 L84.5645 194 ZM89.6387 194 L87.2715 187.6367 L88.4258 187.6367 L90.2773 192.5879 L92.2285 187.6367 L93.3066 187.6367 L90.793 194 ZM94.5312 194 L94.5312 187.6367 L95.6855 187.6367 L95.6855 194 ZM94.5312 186.4824 L94.5312 185.3281 L95.6855 185.3281 L95.6855 186.4824 ZM100.4844 194.1465 Q99.1953 194.1465 98.3457 193.1914 Q97.4961 192.2363 97.4961 190.7832 Q97.4961 189.2305 98.3369 188.3633 Q99.1777 187.4961 100.6836 187.4961 Q101.4277 187.4961 102.3477 187.7012 L102.3477 188.668 Q101.3691 188.3809 100.7539 188.3809 Q99.8691 188.3809 99.333 189.0459 Q98.7969 189.7109 98.7969 190.8184 Q98.7969 191.8906 99.3477 192.5527 Q99.8984 193.2148 100.7891 193.2148 Q101.5801 193.2148 102.418 192.8105 L102.418 193.8066 Q101.2988 194.1465 100.4844 194.1465 ZM108.8105 193.7949 Q107.6504 194.1465 106.8242 194.1465 Q105.418 194.1465 104.5303 193.2119 Q103.6426 192.2773 103.6426 190.7891 Q103.6426 189.3418 104.4248 188.416 Q105.207 187.4902 106.4258 187.4902 Q107.5801 187.4902 108.21 188.3105 Q108.8398 189.1309 108.8398 190.6426 L108.834 191 L104.8203 191 Q105.0723 193.2676 107.041 193.2676 Q107.7617 193.2676 108.8105 192.8809 ZM104.873 190.1328 L107.6797 190.1328 Q107.6797 188.3574 106.3555 188.3574 Q105.0254 188.3574 104.873 190.1328 Z"
                  clip-path="url(#clipPath6)" stroke="none"/>
            <rect x="164" y="178" clip-path="url(#clipPath7)"
                  fill="rgb(181,255,255)" width="109" height="53" stroke="none"/>
            <path fill="none"
                  d="M164 188 L164 178 L273 178 L273 231 L164 231 L164 221"
                  clip-path="url(#clipPath7)"/>
            <line y2="208" fill="none" x1="164" clip-path="url(#clipPath7)"
                  x2="164" y1="201"/>
            <rect x="154" y="188" clip-path="url(#clipPath7)"
                  fill="rgb(162,229,229)" width="20" height="13" stroke="none"/>
            <rect x="154" y="208" clip-path="url(#clipPath7)"
                  fill="rgb(162,229,229)" width="20" height="13" stroke="none"/>
            <rect fill="none" x="154" width="20" height="13" y="188"
                  clip-path="url(#clipPath7)"/>
            <rect fill="none" x="154" width="20" height="13" y="208"
                  clip-path="url(#clipPath7)"/>
            <path fill="black"
                  d="M187.1191 194 L187.1191 185.3281 L189.4805 185.3281 Q191.0508 185.3281 191.7363 185.8584 Q192.4219 186.3887 192.4219 187.6016 Q192.4219 188.9844 191.4844 189.7695 Q190.5469 190.5547 188.8828 190.5547 L188.3379 190.5547 L188.3379 194 ZM188.3379 189.623 L188.8359 189.623 Q189.9316 189.623 190.5293 189.1191 Q191.127 188.6152 191.127 187.6953 Q191.127 186.916 190.6582 186.582 Q190.1895 186.248 189.0938 186.248 L188.3379 186.248 ZM197.0684 193.1914 Q196.0312 194.1465 195.0703 194.1465 Q194.2793 194.1465 193.7578 193.6514 Q193.2363 193.1562 193.2363 192.4004 Q193.2363 191.3574 194.1123 190.7979 Q194.9883 190.2383 196.623 190.2383 L196.8984 190.2383 L196.8984 189.4707 Q196.8984 188.3633 195.7617 188.3633 Q194.8477 188.3633 193.7871 188.9258 L193.7871 187.9707 Q194.9531 187.4961 195.9727 187.4961 Q197.0391 187.4961 197.5459 187.9766 Q198.0527 188.457 198.0527 189.4707 L198.0527 192.3535 Q198.0527 193.3438 198.6621 193.3438 Q198.7383 193.3438 198.8848 193.3203 L198.9668 193.959 Q198.5742 194.1465 198.0996 194.1465 Q197.291 194.1465 197.0684 193.1914 ZM196.8984 192.5645 L196.8984 190.918 L196.5117 190.9062 Q195.5625 190.9062 194.9766 191.2666 Q194.3906 191.627 194.3906 192.2129 Q194.3906 192.6289 194.6836 192.916 Q194.9766 193.2031 195.3984 193.2031 Q196.1191 193.2031 196.8984 192.5645 ZM200.4141 194 L200.4141 187.6367 L201.5684 187.6367 L201.5684 188.832 Q202.2539 187.4961 203.5605 187.4961 Q203.7363 187.4961 203.9297 187.5254 L203.9297 188.6035 Q203.6309 188.5039 203.4023 188.5039 Q202.3066 188.5039 201.5684 189.8047 L201.5684 194 ZM207.2344 194.1465 Q206.3555 194.1465 205.8633 193.6426 Q205.3711 193.1387 205.3711 192.2422 L205.3711 188.5039 L204.5742 188.5039 L204.5742 187.6367 L205.3711 187.6367 L205.3711 186.4824 L206.5254 186.3711 L206.5254 187.6367 L208.1895 187.6367 L208.1895 188.5039 L206.5254 188.5039 L206.5254 192.0312 Q206.5254 193.2793 207.6035 193.2793 Q207.832 193.2793 208.1602 193.2031 L208.1602 194 Q207.627 194.1465 207.2344 194.1465 ZM211.5 194.1465 Q210.709 194.1465 209.5781 193.7773 L209.5781 192.7168 Q210.709 193.2793 211.5469 193.2793 Q212.0449 193.2793 212.373 193.0098 Q212.7012 192.7402 212.7012 192.3359 Q212.7012 191.7441 211.7812 191.3574 L211.1074 191.0703 Q209.6133 190.4492 209.6133 189.2832 Q209.6133 188.4512 210.2021 187.9736 Q210.791 187.4961 211.8164 187.4961 Q212.3496 187.4961 213.1348 187.6426 L213.375 187.6895 L213.375 188.6504 Q212.4082 188.3633 211.8398 188.3633 Q210.7266 188.3633 210.7266 189.1719 Q210.7266 189.6934 211.5703 190.0508 L212.127 190.2852 Q213.0703 190.6836 213.4629 191.126 Q213.8555 191.5684 213.8555 192.2305 Q213.8555 193.0684 213.1934 193.6074 Q212.5312 194.1465 211.5 194.1465 ZM221.4141 194.1465 Q220.623 194.1465 219.4922 193.7773 L219.4922 192.7168 Q220.623 193.2793 221.4609 193.2793 Q221.959 193.2793 222.2871 193.0098 Q222.6152 192.7402 222.6152 192.3359 Q222.6152 191.7441 221.6953 191.3574 L221.0215 191.0703 Q219.5273 190.4492 219.5273 189.2832 Q219.5273 188.4512 220.1162 187.9736 Q220.7051 187.4961 221.7305 187.4961 Q222.2637 187.4961 223.0488 187.6426 L223.2891 187.6895 L223.2891 188.6504 Q222.3223 188.3633 221.7539 188.3633 Q220.6406 188.3633 220.6406 189.1719 Q220.6406 189.6934 221.4844 190.0508 L222.041 190.2852 Q222.9844 190.6836 223.377 191.126 Q223.7695 191.5684 223.7695 192.2305 Q223.7695 193.0684 223.1074 193.6074 Q222.4453 194.1465 221.4141 194.1465 ZM230.5078 193.7949 Q229.3477 194.1465 228.5215 194.1465 Q227.1152 194.1465 226.2275 193.2119 Q225.3398 192.2773 225.3398 190.7891 Q225.3398 189.3418 226.1221 188.416 Q226.9043 187.4902 228.123 187.4902 Q229.2773 187.4902 229.9072 188.3105 Q230.5371 189.1309 230.5371 190.6426 L230.5312 191 L226.5176 191 Q226.7695 193.2676 228.7383 193.2676 Q229.459 193.2676 230.5078 192.8809 ZM226.5703 190.1328 L229.377 190.1328 Q229.377 188.3574 228.0527 188.3574 Q226.7227 188.3574 226.5703 190.1328 ZM232.5293 194 L232.5293 187.6367 L233.6836 187.6367 L233.6836 188.832 Q234.3691 187.4961 235.6758 187.4961 Q235.8516 187.4961 236.0449 187.5254 L236.0449 188.6035 Q235.7461 188.5039 235.5176 188.5039 Q234.4219 188.5039 233.6836 189.8047 L233.6836 194 ZM238.7578 194 L236.3906 187.6367 L237.5449 187.6367 L239.3965 192.5879 L241.3477 187.6367 L242.4258 187.6367 L239.9121 194 ZM243.6504 194 L243.6504 187.6367 L244.8047 187.6367 L244.8047 194 ZM243.6504 186.4824 L243.6504 185.3281 L244.8047 185.3281 L244.8047 186.4824 ZM249.6035 194.1465 Q248.3145 194.1465 247.4648 193.1914 Q246.6152 192.2363 246.6152 190.7832 Q246.6152 189.2305 247.4561 188.3633 Q248.2969 187.4961 249.8027 187.4961 Q250.5469 187.4961 251.4668 187.7012 L251.4668 188.668 Q250.4883 188.3809 249.873 188.3809 Q248.9883 188.3809 248.4521 189.0459 Q247.916 189.7109 247.916 190.8184 Q247.916 191.8906 248.4668 192.5527 Q249.0176 193.2148 249.9082 193.2148 Q250.6992 193.2148 251.5371 192.8105 L251.5371 193.8066 Q250.418 194.1465 249.6035 194.1465 ZM257.9297 193.7949 Q256.7695 194.1465 255.9434 194.1465 Q254.5371 194.1465 253.6494 193.2119 Q252.7617 192.2773 252.7617 190.7891 Q252.7617 189.3418 253.5439 188.416 Q254.3262 187.4902 255.5449 187.4902 Q256.6992 187.4902 257.3291 188.3105 Q257.959 189.1309 257.959 190.6426 L257.9531 191 L253.9395 191 Q254.1914 193.2676 256.1602 193.2676 Q256.8809 193.2676 257.9297 192.8809 ZM253.9922 190.1328 L256.7988 190.1328 Q256.7988 188.3574 255.4746 188.3574 Q254.1445 188.3574 253.9922 190.1328 Z"
                  clip-path="url(#clipPath8)" stroke="none"/>
            <rect x="300" y="178" clip-path="url(#clipPath9)"
                  fill="rgb(181,255,255)" width="109" height="53" stroke="none"/>
            <path fill="none"
                  d="M300 188 L300 178 L409 178 L409 231 L300 231 L300 221"
                  clip-path="url(#clipPath9)"/>
            <line y2="208" fill="none" x1="300" clip-path="url(#clipPath9)"
                  x2="300" y1="201"/>
            <rect x="290" y="188" clip-path="url(#clipPath9)"
                  fill="rgb(162,229,229)" width="20" height="13" stroke="none"/>
            <rect x="290" y="208" clip-path="url(#clipPath9)"
                  fill="rgb(162,229,229)" width="20" height="13" stroke="none"/>
            <rect fill="none" x="290" width="20" height="13" y="188"
                  clip-path="url(#clipPath9)"/>
            <rect fill="none" x="290" width="20" height="13" y="208"
                  clip-path="url(#clipPath9)"/>
            <path fill="black"
                  d="M325.8184 194.2168 Q324.9453 194.2168 323.5859 193.8359 L323.5859 192.6172 Q325.0508 193.2969 325.9941 193.2969 Q326.7207 193.2969 327.1631 192.916 Q327.6055 192.5352 327.6055 191.9141 Q327.6055 191.4043 327.3154 191.0469 Q327.0254 190.6895 326.2461 190.25 L325.6484 189.9043 Q324.541 189.2715 324.0869 188.7119 Q323.6328 188.1523 323.6328 187.4082 Q323.6328 186.4062 324.3594 185.7588 Q325.0859 185.1113 326.2109 185.1113 Q327.2129 185.1113 328.3262 185.4453 L328.3262 186.5703 Q326.9551 186.0312 326.2812 186.0312 Q325.6426 186.0312 325.2266 186.3711 Q324.8105 186.7109 324.8105 187.2266 Q324.8105 187.6602 325.1152 187.9941 Q325.4199 188.3281 326.2285 188.791 L326.8496 189.1426 Q327.9746 189.7812 328.4199 190.3496 Q328.8652 190.918 328.8652 191.7148 Q328.8652 192.8457 328.0303 193.5312 Q327.1953 194.2168 325.8184 194.2168 ZM330.9863 196.3145 L332.0176 194 L329.5566 187.6367 L330.8047 187.6367 L332.627 192.4297 L334.5723 187.6367 L335.6621 187.6367 L332.1875 196.3145 ZM336.8867 194 L336.8867 187.6367 L338.041 187.6367 L338.041 188.832 Q338.9551 187.4961 340.2793 187.4961 Q341.1055 187.4961 341.5977 188.0205 Q342.0898 188.5449 342.0898 189.4297 L342.0898 194 L340.9355 194 L340.9355 189.8047 Q340.9355 189.0957 340.7275 188.7939 Q340.5195 188.4922 340.0391 188.4922 Q338.9785 188.4922 338.041 189.8809 L338.041 194 ZM346.8184 194.1465 Q345.5293 194.1465 344.6797 193.1914 Q343.8301 192.2363 343.8301 190.7832 Q343.8301 189.2305 344.6709 188.3633 Q345.5117 187.4961 347.0176 187.4961 Q347.7617 187.4961 348.6816 187.7012 L348.6816 188.668 Q347.7031 188.3809 347.0879 188.3809 Q346.2031 188.3809 345.667 189.0459 Q345.1309 189.7109 345.1309 190.8184 Q345.1309 191.8906 345.6816 192.5527 Q346.2324 193.2148 347.123 193.2148 Q347.9141 193.2148 348.752 192.8105 L348.752 193.8066 Q347.6328 194.1465 346.8184 194.1465 ZM355.9648 194.1465 Q355.1738 194.1465 354.043 193.7773 L354.043 192.7168 Q355.1738 193.2793 356.0117 193.2793 Q356.5098 193.2793 356.8379 193.0098 Q357.166 192.7402 357.166 192.3359 Q357.166 191.7441 356.2461 191.3574 L355.5723 191.0703 Q354.0781 190.4492 354.0781 189.2832 Q354.0781 188.4512 354.667 187.9736 Q355.2559 187.4961 356.2812 187.4961 Q356.8145 187.4961 357.5996 187.6426 L357.8398 187.6895 L357.8398 188.6504 Q356.873 188.3633 356.3047 188.3633 Q355.1914 188.3633 355.1914 189.1719 Q355.1914 189.6934 356.0352 190.0508 L356.5918 190.2852 Q357.5352 190.6836 357.9277 191.126 Q358.3203 191.5684 358.3203 192.2305 Q358.3203 193.0684 357.6582 193.6074 Q356.9961 194.1465 355.9648 194.1465 ZM365.0586 193.7949 Q363.8984 194.1465 363.0723 194.1465 Q361.666 194.1465 360.7783 193.2119 Q359.8906 192.2773 359.8906 190.7891 Q359.8906 189.3418 360.6729 188.416 Q361.4551 187.4902 362.6738 187.4902 Q363.8281 187.4902 364.458 188.3105 Q365.0879 189.1309 365.0879 190.6426 L365.082 191 L361.0684 191 Q361.3203 193.2676 363.2891 193.2676 Q364.0098 193.2676 365.0586 192.8809 ZM361.1211 190.1328 L363.9277 190.1328 Q363.9277 188.3574 362.6035 188.3574 Q361.2734 188.3574 361.1211 190.1328 ZM367.0801 194 L367.0801 187.6367 L368.2344 187.6367 L368.2344 188.832 Q368.9199 187.4961 370.2266 187.4961 Q370.4023 187.4961 370.5957 187.5254 L370.5957 188.6035 Q370.2969 188.5039 370.0684 188.5039 Q368.9727 188.5039 368.2344 189.8047 L368.2344 194 ZM373.3086 194 L370.9414 187.6367 L372.0957 187.6367 L373.9473 192.5879 L375.8984 187.6367 L376.9766 187.6367 L374.4629 194 ZM378.2012 194 L378.2012 187.6367 L379.3555 187.6367 L379.3555 194 ZM378.2012 186.4824 L378.2012 185.3281 L379.3555 185.3281 L379.3555 186.4824 ZM384.1543 194.1465 Q382.8652 194.1465 382.0156 193.1914 Q381.166 192.2363 381.166 190.7832 Q381.166 189.2305 382.0068 188.3633 Q382.8477 187.4961 384.3535 187.4961 Q385.0977 187.4961 386.0176 187.7012 L386.0176 188.668 Q385.0391 188.3809 384.4238 188.3809 Q383.5391 188.3809 383.0029 189.0459 Q382.4668 189.7109 382.4668 190.8184 Q382.4668 191.8906 383.0176 192.5527 Q383.5684 193.2148 384.459 193.2148 Q385.25 193.2148 386.0879 192.8105 L386.0879 193.8066 Q384.9688 194.1465 384.1543 194.1465 ZM392.4805 193.7949 Q391.3203 194.1465 390.4941 194.1465 Q389.0879 194.1465 388.2002 193.2119 Q387.3125 192.2773 387.3125 190.7891 Q387.3125 189.3418 388.0947 188.416 Q388.877 187.4902 390.0957 187.4902 Q391.25 187.4902 391.8799 188.3105 Q392.5098 189.1309 392.5098 190.6426 L392.5039 191 L388.4902 191 Q388.7422 193.2676 390.7109 193.2676 Q391.4316 193.2676 392.4805 192.8809 ZM388.543 190.1328 L391.3496 190.1328 Q391.3496 188.3574 390.0254 188.3574 Q388.6953 188.3574 388.543 190.1328 Z"
                  clip-path="url(#clipPath10)" stroke="none"/>
            <rect x="428" y="178" clip-path="url(#clipPath11)"
                  fill="rgb(181,255,255)" width="109" height="53" stroke="none"/>
            <path fill="none"
                  d="M428 188 L428 178 L537 178 L537 231 L428 231 L428 221"
                  clip-path="url(#clipPath11)"/>
            <line y2="208" fill="none" x1="428" clip-path="url(#clipPath11)"
                  x2="428" y1="201"/>
            <rect x="418" y="188" clip-path="url(#clipPath11)"
                  fill="rgb(162,229,229)" width="20" height="13" stroke="none"/>
            <rect x="418" y="208" clip-path="url(#clipPath11)"
                  fill="rgb(162,229,229)" width="20" height="13" stroke="none"/>
            <rect fill="none" x="418" width="20" height="13" y="188"
                  clip-path="url(#clipPath11)"/>
            <rect fill="none" x="418" width="20" height="13" y="208"
                  clip-path="url(#clipPath11)"/>
            <path fill="black"
                  d="M454.5137 190.6836 L453.0371 186.9453 L451.5547 190.6836 ZM455.8145 194 L454.8711 191.5977 L451.1973 191.5977 L450.2422 194 L449.0996 194 L452.5391 185.3281 L453.7578 185.3281 L457.1445 194 ZM462.4121 194 L462.4121 192.8047 Q461.4922 194.1465 460.1797 194.1465 Q459.3477 194.1465 458.8555 193.6221 Q458.3633 193.0977 458.3633 192.207 L458.3633 187.6367 L459.5176 187.6367 L459.5176 191.832 Q459.5176 192.5469 459.7256 192.8486 Q459.9336 193.1504 460.4199 193.1504 Q461.4746 193.1504 462.4121 191.7617 L462.4121 187.6367 L463.5664 187.6367 L463.5664 194 ZM469.9648 194 L469.9648 192.8047 Q469.2617 194.1465 467.8438 194.1465 Q466.6953 194.1465 466.0361 193.3086 Q465.377 192.4707 465.377 191.0176 Q465.377 189.4297 466.124 188.4629 Q466.8711 187.4961 468.0898 187.4961 Q469.2207 187.4961 469.9648 188.3633 L469.9648 184.748 L471.125 184.748 L471.125 194 ZM469.9648 189.1543 Q469.0684 188.3633 468.2656 188.3633 Q466.6074 188.3633 466.6074 190.9004 Q466.6074 193.1328 468.084 193.1328 Q469.0449 193.1328 469.9648 192.084 ZM473.4336 194 L473.4336 187.6367 L474.5879 187.6367 L474.5879 194 ZM473.4336 186.4824 L473.4336 185.3281 L474.5879 185.3281 L474.5879 186.4824 ZM478.8125 194.1465 Q477.9336 194.1465 477.4414 193.6426 Q476.9492 193.1387 476.9492 192.2422 L476.9492 188.5039 L476.1523 188.5039 L476.1523 187.6367 L476.9492 187.6367 L476.9492 186.4824 L478.1035 186.3711 L478.1035 187.6367 L479.7676 187.6367 L479.7676 188.5039 L478.1035 188.5039 L478.1035 192.0312 Q478.1035 193.2793 479.1816 193.2793 Q479.4102 193.2793 479.7383 193.2031 L479.7383 194 Q479.2051 194.1465 478.8125 194.1465 ZM486.875 194.1465 Q486.084 194.1465 484.9531 193.7773 L484.9531 192.7168 Q486.084 193.2793 486.9219 193.2793 Q487.4199 193.2793 487.748 193.0098 Q488.0762 192.7402 488.0762 192.3359 Q488.0762 191.7441 487.1562 191.3574 L486.4824 191.0703 Q484.9883 190.4492 484.9883 189.2832 Q484.9883 188.4512 485.5771 187.9736 Q486.166 187.4961 487.1914 187.4961 Q487.7246 187.4961 488.5098 187.6426 L488.75 187.6895 L488.75 188.6504 Q487.7832 188.3633 487.2148 188.3633 Q486.1016 188.3633 486.1016 189.1719 Q486.1016 189.6934 486.9453 190.0508 L487.502 190.2852 Q488.4453 190.6836 488.8379 191.126 Q489.2305 191.5684 489.2305 192.2305 Q489.2305 193.0684 488.5684 193.6074 Q487.9062 194.1465 486.875 194.1465 ZM495.9688 193.7949 Q494.8086 194.1465 493.9824 194.1465 Q492.5762 194.1465 491.6885 193.2119 Q490.8008 192.2773 490.8008 190.7891 Q490.8008 189.3418 491.583 188.416 Q492.3652 187.4902 493.584 187.4902 Q494.7383 187.4902 495.3682 188.3105 Q495.998 189.1309 495.998 190.6426 L495.9922 191 L491.9785 191 Q492.2305 193.2676 494.1992 193.2676 Q494.9199 193.2676 495.9688 192.8809 ZM492.0312 190.1328 L494.8379 190.1328 Q494.8379 188.3574 493.5137 188.3574 Q492.1836 188.3574 492.0312 190.1328 ZM497.9902 194 L497.9902 187.6367 L499.1445 187.6367 L499.1445 188.832 Q499.8301 187.4961 501.1367 187.4961 Q501.3125 187.4961 501.5059 187.5254 L501.5059 188.6035 Q501.207 188.5039 500.9785 188.5039 Q499.8828 188.5039 499.1445 189.8047 L499.1445 194 ZM504.2188 194 L501.8516 187.6367 L503.0059 187.6367 L504.8574 192.5879 L506.8086 187.6367 L507.8867 187.6367 L505.373 194 ZM509.1113 194 L509.1113 187.6367 L510.2656 187.6367 L510.2656 194 ZM509.1113 186.4824 L509.1113 185.3281 L510.2656 185.3281 L510.2656 186.4824 ZM515.0645 194.1465 Q513.7754 194.1465 512.9258 193.1914 Q512.0762 192.2363 512.0762 190.7832 Q512.0762 189.2305 512.917 188.3633 Q513.7578 187.4961 515.2637 187.4961 Q516.0078 187.4961 516.9277 187.7012 L516.9277 188.668 Q515.9492 188.3809 515.334 188.3809 Q514.4492 188.3809 513.9131 189.0459 Q513.377 189.7109 513.377 190.8184 Q513.377 191.8906 513.9277 192.5527 Q514.4785 193.2148 515.3691 193.2148 Q516.1602 193.2148 516.998 192.8105 L516.998 193.8066 Q515.8789 194.1465 515.0645 194.1465 ZM523.3906 193.7949 Q522.2305 194.1465 521.4043 194.1465 Q519.998 194.1465 519.1104 193.2119 Q518.2227 192.2773 518.2227 190.7891 Q518.2227 189.3418 519.0049 188.416 Q519.7871 187.4902 521.0059 187.4902 Q522.1602 187.4902 522.79 188.3105 Q523.4199 189.1309 523.4199 190.6426 L523.4141 191 L519.4004 191 Q519.6523 193.2676 521.6211 193.2676 Q522.3418 193.2676 523.3906 192.8809 ZM519.4531 190.1328 L522.2598 190.1328 Q522.2598 188.3574 520.9355 188.3574 Q519.6055 188.3574 519.4531 190.1328 Z"
                  clip-path="url(#clipPath12)" stroke="none"/>
            <rect x="560" y="178" clip-path="url(#clipPath13)"
                  fill="rgb(181,255,255)" width="109" height="53" stroke="none"/>
            <path fill="none"
                  d="M560 188 L560 178 L669 178 L669 231 L560 231 L560 221"
                  clip-path="url(#clipPath13)"/>
            <line y2="208" fill="none" x1="560" clip-path="url(#clipPath13)"
                  x2="560" y1="201"/>
            <rect x="550" y="188" clip-path="url(#clipPath13)"
                  fill="rgb(162,229,229)" width="20" height="13" stroke="none"/>
            <rect x="550" y="208" clip-path="url(#clipPath13)"
                  fill="rgb(162,229,229)" width="20" height="13" stroke="none"/>
            <rect fill="none" x="550" width="20" height="13" y="188"
                  clip-path="url(#clipPath13)"/>
            <rect fill="none" x="550" width="20" height="13" y="208"
                  clip-path="url(#clipPath13)"/>
            <path fill="black"
                  d="M580.1191 194 L580.1191 185.3281 L581.8242 185.3281 L584.2266 192.0371 L586.6992 185.3281 L588.2227 185.3281 L588.2227 194 L587.0742 194 L587.0742 186.9453 L584.6836 193.4199 L583.4941 193.4199 L581.1738 186.9277 L581.1738 194 ZM595.1543 193.7949 Q593.9941 194.1465 593.168 194.1465 Q591.7617 194.1465 590.874 193.2119 Q589.9863 192.2773 589.9863 190.7891 Q589.9863 189.3418 590.7686 188.416 Q591.5508 187.4902 592.7695 187.4902 Q593.9238 187.4902 594.5537 188.3105 Q595.1836 189.1309 595.1836 190.6426 L595.1777 191 L591.1641 191 Q591.416 193.2676 593.3848 193.2676 Q594.1055 193.2676 595.1543 192.8809 ZM591.2168 190.1328 L594.0234 190.1328 Q594.0234 188.3574 592.6992 188.3574 Q591.3691 188.3574 591.2168 190.1328 ZM601.2598 194 L601.2598 192.8047 Q600.5566 194.1465 599.1387 194.1465 Q597.9902 194.1465 597.3311 193.3086 Q596.6719 192.4707 596.6719 191.0176 Q596.6719 189.4297 597.4189 188.4629 Q598.166 187.4961 599.3848 187.4961 Q600.5156 187.4961 601.2598 188.3633 L601.2598 184.748 L602.4199 184.748 L602.4199 194 ZM601.2598 189.1543 Q600.3633 188.3633 599.5605 188.3633 Q597.9023 188.3633 597.9023 190.9004 Q597.9023 193.1328 599.3789 193.1328 Q600.3398 193.1328 601.2598 192.084 ZM604.7285 194 L604.7285 187.6367 L605.8828 187.6367 L605.8828 194 ZM604.7285 186.4824 L604.7285 185.3281 L605.8828 185.3281 L605.8828 186.4824 ZM611.4785 193.1914 Q610.4414 194.1465 609.4805 194.1465 Q608.6895 194.1465 608.168 193.6514 Q607.6465 193.1562 607.6465 192.4004 Q607.6465 191.3574 608.5225 190.7979 Q609.3984 190.2383 611.0332 190.2383 L611.3086 190.2383 L611.3086 189.4707 Q611.3086 188.3633 610.1719 188.3633 Q609.2578 188.3633 608.1973 188.9258 L608.1973 187.9707 Q609.3633 187.4961 610.3828 187.4961 Q611.4492 187.4961 611.9561 187.9766 Q612.4629 188.457 612.4629 189.4707 L612.4629 192.3535 Q612.4629 193.3438 613.0723 193.3438 Q613.1484 193.3438 613.2949 193.3203 L613.377 193.959 Q612.9844 194.1465 612.5098 194.1465 Q611.7012 194.1465 611.4785 193.1914 ZM611.3086 192.5645 L611.3086 190.918 L610.9219 190.9062 Q609.9727 190.9062 609.3867 191.2666 Q608.8008 191.627 608.8008 192.2129 Q608.8008 192.6289 609.0938 192.916 Q609.3867 193.2031 609.8086 193.2031 Q610.5293 193.2031 611.3086 192.5645 ZM620.3086 194.1465 Q619.5176 194.1465 618.3867 193.7773 L618.3867 192.7168 Q619.5176 193.2793 620.3555 193.2793 Q620.8535 193.2793 621.1816 193.0098 Q621.5098 192.7402 621.5098 192.3359 Q621.5098 191.7441 620.5898 191.3574 L619.916 191.0703 Q618.4219 190.4492 618.4219 189.2832 Q618.4219 188.4512 619.0107 187.9736 Q619.5996 187.4961 620.625 187.4961 Q621.1582 187.4961 621.9434 187.6426 L622.1836 187.6895 L622.1836 188.6504 Q621.2168 188.3633 620.6484 188.3633 Q619.5352 188.3633 619.5352 189.1719 Q619.5352 189.6934 620.3789 190.0508 L620.9355 190.2852 Q621.8789 190.6836 622.2715 191.126 Q622.6641 191.5684 622.6641 192.2305 Q622.6641 193.0684 622.002 193.6074 Q621.3398 194.1465 620.3086 194.1465 ZM629.4023 193.7949 Q628.2422 194.1465 627.416 194.1465 Q626.0098 194.1465 625.1221 193.2119 Q624.2344 192.2773 624.2344 190.7891 Q624.2344 189.3418 625.0166 188.416 Q625.7988 187.4902 627.0176 187.4902 Q628.1719 187.4902 628.8018 188.3105 Q629.4316 189.1309 629.4316 190.6426 L629.4258 191 L625.4121 191 Q625.6641 193.2676 627.6328 193.2676 Q628.3535 193.2676 629.4023 192.8809 ZM625.4648 190.1328 L628.2715 190.1328 Q628.2715 188.3574 626.9473 188.3574 Q625.6172 188.3574 625.4648 190.1328 ZM631.4238 194 L631.4238 187.6367 L632.5781 187.6367 L632.5781 188.832 Q633.2637 187.4961 634.5703 187.4961 Q634.7461 187.4961 634.9395 187.5254 L634.9395 188.6035 Q634.6406 188.5039 634.4121 188.5039 Q633.3164 188.5039 632.5781 189.8047 L632.5781 194 ZM637.6523 194 L635.2852 187.6367 L636.4395 187.6367 L638.291 192.5879 L640.2422 187.6367 L641.3203 187.6367 L638.8066 194 ZM642.5449 194 L642.5449 187.6367 L643.6992 187.6367 L643.6992 194 ZM642.5449 186.4824 L642.5449 185.3281 L643.6992 185.3281 L643.6992 186.4824 ZM648.498 194.1465 Q647.209 194.1465 646.3594 193.1914 Q645.5098 192.2363 645.5098 190.7832 Q645.5098 189.2305 646.3506 188.3633 Q647.1914 187.4961 648.6973 187.4961 Q649.4414 187.4961 650.3613 187.7012 L650.3613 188.668 Q649.3828 188.3809 648.7676 188.3809 Q647.8828 188.3809 647.3467 189.0459 Q646.8105 189.7109 646.8105 190.8184 Q646.8105 191.8906 647.3613 192.5527 Q647.9121 193.2148 648.8027 193.2148 Q649.5938 193.2148 650.4316 192.8105 L650.4316 193.8066 Q649.3125 194.1465 648.498 194.1465 ZM656.8242 193.7949 Q655.6641 194.1465 654.8379 194.1465 Q653.4316 194.1465 652.5439 193.2119 Q651.6562 192.2773 651.6562 190.7891 Q651.6562 189.3418 652.4385 188.416 Q653.2207 187.4902 654.4395 187.4902 Q655.5938 187.4902 656.2236 188.3105 Q656.8535 189.1309 656.8535 190.6426 L656.8477 191 L652.834 191 Q653.0859 193.2676 655.0547 193.2676 Q655.7754 193.2676 656.8242 192.8809 ZM652.8867 190.1328 L655.6934 190.1328 Q655.6934 188.3574 654.3691 188.3574 Q653.0391 188.3574 652.8867 190.1328 Z"
                  clip-path="url(#clipPath14)" stroke="none"/>
            <rect x="140" y="280" clip-path="url(#clipPath15)"
                  fill="rgb(181,255,255)" width="419" rx="10" ry="10"
                  height="43" stroke="none"/>
            <rect x="140" y="280" clip-path="url(#clipPath15)" fill="none"
                  width="419" rx="10" ry="10" height="43"/>
            <rect x="539" y="287" clip-path="url(#clipPath15)" fill="none"
                  width="16" rx="4" ry="4" height="9" stroke="black"/>
            <path fill="black"
                  d="M303.5137 292.6836 L302.0371 288.9453 L300.5547 292.6836 ZM304.8145 296 L303.8711 293.5977 L300.1973 293.5977 L299.2422 296 L298.0996 296 L301.5391 287.3281 L302.7578 287.3281 L306.1445 296 ZM307 296 L307 295.1328 L310.9375 290.5039 L307.1816 290.5039 L307.1816 289.6367 L312.3613 289.6367 L312.3613 290.5039 L308.4238 295.1328 L312.4375 295.1328 L312.4375 296 ZM318.291 296 L318.291 294.8047 Q317.3711 296.1465 316.0586 296.1465 Q315.2266 296.1465 314.7344 295.6221 Q314.2422 295.0977 314.2422 294.207 L314.2422 289.6367 L315.3965 289.6367 L315.3965 293.832 Q315.3965 294.5469 315.6045 294.8486 Q315.8125 295.1504 316.2988 295.1504 Q317.3535 295.1504 318.291 293.7617 L318.291 289.6367 L319.4453 289.6367 L319.4453 296 ZM321.7598 296 L321.7598 289.6367 L322.9141 289.6367 L322.9141 290.832 Q323.5996 289.4961 324.9062 289.4961 Q325.082 289.4961 325.2754 289.5254 L325.2754 290.6035 Q324.9766 290.5039 324.748 290.5039 Q323.6523 290.5039 322.9141 291.8047 L322.9141 296 ZM331.334 295.7949 Q330.1738 296.1465 329.3477 296.1465 Q327.9414 296.1465 327.0537 295.2119 Q326.166 294.2773 326.166 292.7891 Q326.166 291.3418 326.9482 290.416 Q327.7305 289.4902 328.9492 289.4902 Q330.1035 289.4902 330.7334 290.3105 Q331.3633 291.1309 331.3633 292.6426 L331.3574 293 L327.3438 293 Q327.5957 295.2676 329.5645 295.2676 Q330.2852 295.2676 331.334 294.8809 ZM327.3965 292.1328 L330.2031 292.1328 Q330.2031 290.3574 328.8789 290.3574 Q327.5488 290.3574 327.3965 292.1328 ZM338.8164 296.2168 Q337.9434 296.2168 336.584 295.8359 L336.584 294.6172 Q338.0488 295.2969 338.9922 295.2969 Q339.7188 295.2969 340.1611 294.916 Q340.6035 294.5352 340.6035 293.9141 Q340.6035 293.4043 340.3135 293.0469 Q340.0234 292.6895 339.2441 292.25 L338.6465 291.9043 Q337.5391 291.2715 337.085 290.7119 Q336.6309 290.1523 336.6309 289.4082 Q336.6309 288.4062 337.3574 287.7588 Q338.084 287.1113 339.209 287.1113 Q340.2109 287.1113 341.3242 287.4453 L341.3242 288.5703 Q339.9531 288.0312 339.2793 288.0312 Q338.6406 288.0312 338.2246 288.3711 Q337.8086 288.7109 337.8086 289.2266 Q337.8086 289.6602 338.1133 289.9941 Q338.418 290.3281 339.2266 290.791 L339.8477 291.1426 Q340.9727 291.7812 341.418 292.3496 Q341.8633 292.918 341.8633 293.7148 Q341.8633 294.8457 341.0283 295.5312 Q340.1934 296.2168 338.8164 296.2168 ZM348.2793 295.7949 Q347.1191 296.1465 346.293 296.1465 Q344.8867 296.1465 343.999 295.2119 Q343.1113 294.2773 343.1113 292.7891 Q343.1113 291.3418 343.8936 290.416 Q344.6758 289.4902 345.8945 289.4902 Q347.0488 289.4902 347.6787 290.3105 Q348.3086 291.1309 348.3086 292.6426 L348.3027 293 L344.2891 293 Q344.541 295.2676 346.5098 295.2676 Q347.2305 295.2676 348.2793 294.8809 ZM344.3418 292.1328 L347.1484 292.1328 Q347.1484 290.3574 345.8242 290.3574 Q344.4941 290.3574 344.3418 292.1328 ZM350.3008 296 L350.3008 289.6367 L351.4551 289.6367 L351.4551 290.832 Q352.1406 289.4961 353.4473 289.4961 Q353.623 289.4961 353.8164 289.5254 L353.8164 290.6035 Q353.5176 290.5039 353.2891 290.5039 Q352.1934 290.5039 351.4551 291.8047 L351.4551 296 ZM356.5293 296 L354.1621 289.6367 L355.3164 289.6367 L357.168 294.5879 L359.1191 289.6367 L360.1973 289.6367 L357.6836 296 ZM361.4219 296 L361.4219 289.6367 L362.5762 289.6367 L362.5762 296 ZM361.4219 288.4824 L361.4219 287.3281 L362.5762 287.3281 L362.5762 288.4824 ZM367.375 296.1465 Q366.0859 296.1465 365.2363 295.1914 Q364.3867 294.2363 364.3867 292.7832 Q364.3867 291.2305 365.2275 290.3633 Q366.0684 289.4961 367.5742 289.4961 Q368.3184 289.4961 369.2383 289.7012 L369.2383 290.668 Q368.2598 290.3809 367.6445 290.3809 Q366.7598 290.3809 366.2236 291.0459 Q365.6875 291.7109 365.6875 292.8184 Q365.6875 293.8906 366.2383 294.5527 Q366.7891 295.2148 367.6797 295.2148 Q368.4707 295.2148 369.3086 294.8105 L369.3086 295.8066 Q368.1895 296.1465 367.375 296.1465 ZM375.7012 295.7949 Q374.541 296.1465 373.7148 296.1465 Q372.3086 296.1465 371.4209 295.2119 Q370.5332 294.2773 370.5332 292.7891 Q370.5332 291.3418 371.3154 290.416 Q372.0977 289.4902 373.3164 289.4902 Q374.4707 289.4902 375.1006 290.3105 Q375.7305 291.1309 375.7305 292.6426 L375.7246 293 L371.7109 293 Q371.9629 295.2676 373.9316 295.2676 Q374.6523 295.2676 375.7012 294.8809 ZM371.7637 292.1328 L374.5703 292.1328 Q374.5703 290.3574 373.2461 290.3574 Q371.916 290.3574 371.7637 292.1328 ZM381.4844 296 L381.4844 287.3281 L383.7344 287.3281 Q385.0352 287.3281 385.7295 287.8203 Q386.4238 288.3125 386.4238 289.2383 Q386.4238 290.8145 384.6426 291.4824 Q386.7695 292.1328 386.7695 293.832 Q386.7695 294.8867 386.0664 295.4434 Q385.3633 296 384.0391 296 ZM382.7031 295.0801 L382.9551 295.0801 Q384.3086 295.0801 384.707 294.9102 Q385.4688 294.5879 385.4688 293.7148 Q385.4688 292.9414 384.7773 292.4287 Q384.0859 291.916 383.0488 291.916 L382.7031 291.916 ZM382.7031 291.1367 L383.0957 291.1367 Q384.0801 291.1367 384.6221 290.7148 Q385.1641 290.293 385.1641 289.5254 Q385.1641 288.248 383.1836 288.248 L382.7031 288.248 ZM392.4004 296 L392.4004 294.8047 Q391.4805 296.1465 390.168 296.1465 Q389.3359 296.1465 388.8438 295.6221 Q388.3516 295.0977 388.3516 294.207 L388.3516 289.6367 L389.5059 289.6367 L389.5059 293.832 Q389.5059 294.5469 389.7139 294.8486 Q389.9219 295.1504 390.4082 295.1504 Q391.4629 295.1504 392.4004 293.7617 L392.4004 289.6367 L393.5547 289.6367 L393.5547 296 ZM397.5566 296.1465 Q396.7656 296.1465 395.6348 295.7773 L395.6348 294.7168 Q396.7656 295.2793 397.6035 295.2793 Q398.1016 295.2793 398.4297 295.0098 Q398.7578 294.7402 398.7578 294.3359 Q398.7578 293.7441 397.8379 293.3574 L397.1641 293.0703 Q395.6699 292.4492 395.6699 291.2832 Q395.6699 290.4512 396.2588 289.9736 Q396.8477 289.4961 397.873 289.4961 Q398.4062 289.4961 399.1914 289.6426 L399.4316 289.6895 L399.4316 290.6504 Q398.4648 290.3633 397.8965 290.3633 Q396.7832 290.3633 396.7832 291.1719 Q396.7832 291.6934 397.627 292.0508 L398.1836 292.2852 Q399.127 292.6836 399.5195 293.126 Q399.9121 293.5684 399.9121 294.2305 Q399.9121 295.0684 399.25 295.6074 Q398.5879 296.1465 397.5566 296.1465 Z"
                  clip-path="url(#clipPath16)" stroke="none"/>
            <rect x="210" y="387" clip-path="url(#clipPath17)"
                  fill="rgb(181,255,255)" width="149" height="49" stroke="none"/>
            <path fill="none"
                  d="M210 397 L210 387 L359 387 L359 436 L210 436 L210 430"
                  clip-path="url(#clipPath17)"/>
            <line y2="417" fill="none" x1="210" clip-path="url(#clipPath17)"
                  x2="210" y1="410"/>
            <rect x="200" y="397" clip-path="url(#clipPath17)"
                  fill="rgb(162,229,229)" width="20" height="13" stroke="none"/>
            <rect x="200" y="417" clip-path="url(#clipPath17)"
                  fill="rgb(162,229,229)" width="20" height="13" stroke="none"/>
            <rect fill="none" x="200" width="20" height="13" y="397"
                  clip-path="url(#clipPath17)"/>
            <rect fill="none" x="200" width="20" height="13" y="417"
                  clip-path="url(#clipPath17)"/>
            <path fill="black"
                  d="M256.8184 403.2168 Q255.9453 403.2168 254.5859 402.8359 L254.5859 401.6172 Q256.0508 402.2969 256.9941 402.2969 Q257.7207 402.2969 258.1631 401.916 Q258.6055 401.5352 258.6055 400.9141 Q258.6055 400.4043 258.3154 400.0469 Q258.0254 399.6895 257.2461 399.25 L256.6484 398.9043 Q255.541 398.2715 255.0869 397.7119 Q254.6328 397.1523 254.6328 396.4082 Q254.6328 395.4062 255.3594 394.7588 Q256.0859 394.1113 257.2109 394.1113 Q258.2129 394.1113 259.3262 394.4453 L259.3262 395.5703 Q257.9551 395.0312 257.2812 395.0312 Q256.6426 395.0312 256.2266 395.3711 Q255.8105 395.7109 255.8105 396.2266 Q255.8105 396.6602 256.1152 396.9941 Q256.4199 397.3281 257.2285 397.791 L257.8496 398.1426 Q258.9746 398.7812 259.4199 399.3496 Q259.8652 399.918 259.8652 400.7148 Q259.8652 401.8457 259.0303 402.5312 Q258.1953 403.2168 256.8184 403.2168 ZM265.9766 399.6836 L264.5 395.9453 L263.0176 399.6836 ZM267.2773 403 L266.334 400.5977 L262.6602 400.5977 L261.7051 403 L260.5625 403 L264.002 394.3281 L265.2207 394.3281 L268.6074 403 ZM269.8613 403 L269.8613 394.3281 L272.2227 394.3281 Q273.793 394.3281 274.4785 394.8584 Q275.1641 395.3887 275.1641 396.6016 Q275.1641 397.9844 274.2266 398.7695 Q273.2891 399.5547 271.625 399.5547 L271.0801 399.5547 L271.0801 403 ZM271.0801 398.623 L271.5781 398.623 Q272.6738 398.623 273.2715 398.1191 Q273.8691 397.6152 273.8691 396.6953 Q273.8691 395.916 273.4004 395.582 Q272.9316 395.248 271.8359 395.248 L271.0801 395.248 ZM283.6074 402.1914 Q282.5703 403.1465 281.6094 403.1465 Q280.8184 403.1465 280.2969 402.6514 Q279.7754 402.1562 279.7754 401.4004 Q279.7754 400.3574 280.6514 399.7979 Q281.5273 399.2383 283.1621 399.2383 L283.4375 399.2383 L283.4375 398.4707 Q283.4375 397.3633 282.3008 397.3633 Q281.3867 397.3633 280.3262 397.9258 L280.3262 396.9707 Q281.4922 396.4961 282.5117 396.4961 Q283.5781 396.4961 284.085 396.9766 Q284.5918 397.457 284.5918 398.4707 L284.5918 401.3535 Q284.5918 402.3438 285.2012 402.3438 Q285.2773 402.3438 285.4238 402.3203 L285.5059 402.959 Q285.1133 403.1465 284.6387 403.1465 Q283.8301 403.1465 283.6074 402.1914 ZM283.4375 401.5645 L283.4375 399.918 L283.0508 399.9062 Q282.1016 399.9062 281.5156 400.2666 Q280.9297 400.627 280.9297 401.2129 Q280.9297 401.6289 281.2227 401.916 Q281.5156 402.2031 281.9375 402.2031 Q282.6582 402.2031 283.4375 401.5645 ZM291.0371 403 L291.0371 401.8047 Q290.334 403.1465 288.916 403.1465 Q287.7676 403.1465 287.1084 402.3086 Q286.4492 401.4707 286.4492 400.0176 Q286.4492 398.4297 287.1963 397.4629 Q287.9434 396.4961 289.1621 396.4961 Q290.293 396.4961 291.0371 397.3633 L291.0371 393.748 L292.1973 393.748 L292.1973 403 ZM291.0371 398.1543 Q290.1406 397.3633 289.3379 397.3633 Q287.6797 397.3633 287.6797 399.9004 Q287.6797 402.1328 289.1562 402.1328 Q290.1172 402.1328 291.0371 401.084 ZM297.7871 402.1914 Q296.75 403.1465 295.7891 403.1465 Q294.998 403.1465 294.4766 402.6514 Q293.9551 402.1562 293.9551 401.4004 Q293.9551 400.3574 294.8311 399.7979 Q295.707 399.2383 297.3418 399.2383 L297.6172 399.2383 L297.6172 398.4707 Q297.6172 397.3633 296.4805 397.3633 Q295.5664 397.3633 294.5059 397.9258 L294.5059 396.9707 Q295.6719 396.4961 296.6914 396.4961 Q297.7578 396.4961 298.2646 396.9766 Q298.7715 397.457 298.7715 398.4707 L298.7715 401.3535 Q298.7715 402.3438 299.3809 402.3438 Q299.457 402.3438 299.6035 402.3203 L299.6855 402.959 Q299.293 403.1465 298.8184 403.1465 Q298.0098 403.1465 297.7871 402.1914 ZM297.6172 401.5645 L297.6172 399.918 L297.2305 399.9062 Q296.2812 399.9062 295.6953 400.2666 Q295.1094 400.627 295.1094 401.2129 Q295.1094 401.6289 295.4023 401.916 Q295.6953 402.2031 296.1172 402.2031 Q296.8379 402.2031 297.6172 401.5645 ZM301.1328 405.3145 L301.1328 396.6367 L302.2871 396.6367 L302.2871 397.832 Q302.9961 396.4961 304.4141 396.4961 Q305.5625 396.4961 306.2217 397.334 Q306.8809 398.1719 306.8809 399.625 Q306.8809 401.207 306.1338 402.1768 Q305.3867 403.1465 304.168 403.1465 Q303.0371 403.1465 302.2871 402.2793 L302.2871 405.3145 ZM302.2871 401.4824 Q303.1777 402.2793 303.9863 402.2793 Q305.6504 402.2793 305.6504 399.7422 Q305.6504 397.5039 304.1738 397.5039 Q303.207 397.5039 302.2871 398.5527 ZM310.5957 403.1465 Q309.7168 403.1465 309.2246 402.6426 Q308.7324 402.1387 308.7324 401.2422 L308.7324 397.5039 L307.9355 397.5039 L307.9355 396.6367 L308.7324 396.6367 L308.7324 395.4824 L309.8867 395.3711 L309.8867 396.6367 L311.5508 396.6367 L311.5508 397.5039 L309.8867 397.5039 L309.8867 401.0312 Q309.8867 402.2793 310.9648 402.2793 Q311.1934 402.2793 311.5215 402.2031 L311.5215 403 Q310.9883 403.1465 310.5957 403.1465 ZM317.8379 402.7949 Q316.6777 403.1465 315.8516 403.1465 Q314.4453 403.1465 313.5576 402.2119 Q312.6699 401.2773 312.6699 399.7891 Q312.6699 398.3418 313.4521 397.416 Q314.2344 396.4902 315.4531 396.4902 Q316.6074 396.4902 317.2373 397.3105 Q317.8672 398.1309 317.8672 399.6426 L317.8613 400 L313.8477 400 Q314.0996 402.2676 316.0684 402.2676 Q316.7891 402.2676 317.8379 401.8809 ZM313.9004 399.1328 L316.707 399.1328 Q316.707 397.3574 315.3828 397.3574 Q314.0527 397.3574 313.9004 399.1328 ZM319.8594 403 L319.8594 396.6367 L321.0137 396.6367 L321.0137 397.832 Q321.6992 396.4961 323.0059 396.4961 Q323.1816 396.4961 323.375 396.5254 L323.375 397.6035 Q323.0762 397.5039 322.8477 397.5039 Q321.752 397.5039 321.0137 398.8047 L321.0137 403 Z"
                  clip-path="url(#clipPath18)" stroke="none"/>
            <rect x="449" y="384" clip-path="url(#clipPath19)"
                  fill="rgb(201,231,183)" width="119" height="54" stroke="none"/>
            <rect x="449" y="384" clip-path="url(#clipPath19)" fill="none"
                  width="119" height="54" stroke="rgb(140,161,128)"/>
            <path fill="none"
                  d="M551 392 L562 392 L562 403 L551 403 ZM550.8 392 L554.2 389 L565 389 L565 400 L562 403.2 M562 392 L565 389"
                  clip-path="url(#clipPath19)" fill-rule="evenodd"
                  stroke="black"/>
            <path fill="black"
                  d="M488.8184 400.2168 Q487.9453 400.2168 486.5859 399.8359 L486.5859 398.6172 Q488.0508 399.2969 488.9941 399.2969 Q489.7207 399.2969 490.1631 398.916 Q490.6055 398.5352 490.6055 397.9141 Q490.6055 397.4043 490.3154 397.0469 Q490.0254 396.6895 489.2461 396.25 L488.6484 395.9043 Q487.541 395.2715 487.0869 394.7119 Q486.6328 394.1523 486.6328 393.4082 Q486.6328 392.4062 487.3594 391.7588 Q488.0859 391.1113 489.2109 391.1113 Q490.2129 391.1113 491.3262 391.4453 L491.3262 392.5703 Q489.9551 392.0312 489.2812 392.0312 Q488.6426 392.0312 488.2266 392.3711 Q487.8105 392.7109 487.8105 393.2266 Q487.8105 393.6602 488.1152 393.9941 Q488.4199 394.3281 489.2285 394.791 L489.8496 395.1426 Q490.9746 395.7812 491.4199 396.3496 Q491.8652 396.918 491.8652 397.7148 Q491.8652 398.8457 491.0303 399.5312 Q490.1953 400.2168 488.8184 400.2168 ZM497.9766 396.6836 L496.5 392.9453 L495.0176 396.6836 ZM499.2773 400 L498.334 397.5977 L494.6602 397.5977 L493.7051 400 L492.5625 400 L496.002 391.3281 L497.2207 391.3281 L500.6074 400 ZM501.8613 400 L501.8613 391.3281 L504.2227 391.3281 Q505.793 391.3281 506.4785 391.8584 Q507.1641 392.3887 507.1641 393.6016 Q507.1641 394.9844 506.2266 395.7695 Q505.2891 396.5547 503.625 396.5547 L503.0801 396.5547 L503.0801 400 ZM503.0801 395.623 L503.5781 395.623 Q504.6738 395.623 505.2715 395.1191 Q505.8691 394.6152 505.8691 393.6953 Q505.8691 392.916 505.4004 392.582 Q504.9316 392.248 503.8359 392.248 L503.0801 392.248 ZM512.291 400 L512.291 391.3281 L517.1367 391.3281 L517.1367 392.248 L513.5215 392.248 L513.5215 395.0312 L516.5508 395.0312 L516.5508 395.9395 L513.5215 395.9395 L513.5215 399.0801 L517.3887 399.0801 L517.3887 400 ZM518.7949 400 L518.7949 391.3281 L521.4199 391.3281 Q522.668 391.3281 523.333 391.8789 Q523.998 392.4297 523.998 393.4785 Q523.998 395.2129 522.2461 395.9395 L525.1406 400 L523.6289 400 L521.1621 396.332 L520.0137 396.332 L520.0137 400 ZM520.0137 395.4121 L520.4121 395.4121 Q522.7324 395.4121 522.7324 393.5898 Q522.7324 392.248 520.7871 392.248 L520.0137 392.248 ZM526.3828 400 L526.3828 391.3281 L528.7441 391.3281 Q530.3145 391.3281 531 391.8584 Q531.6855 392.3887 531.6855 393.6016 Q531.6855 394.9844 530.748 395.7695 Q529.8105 396.5547 528.1465 396.5547 L527.6016 396.5547 L527.6016 400 ZM527.6016 395.623 L528.0996 395.623 Q529.1953 395.623 529.793 395.1191 Q530.3906 394.6152 530.3906 393.6953 Q530.3906 392.916 529.9219 392.582 Q529.4531 392.248 528.3574 392.248 L527.6016 392.248 Z"
                  clip-path="url(#clipPath20)" stroke="none"/>
            <rect x="658" y="333" clip-path="url(#clipPath21)"
                  fill="rgb(201,231,183)" width="119" rx="10" ry="10"
                  height="54" stroke="none"/>
            <rect x="658" y="333" clip-path="url(#clipPath21)" fill="none"
                  width="119" rx="10" ry="10" height="54"
                  stroke="rgb(140,161,128)"/>
            <rect x="757" y="340" clip-path="url(#clipPath21)" fill="none"
                  width="16" rx="4" ry="4" height="9" stroke="black"/>
            <path fill="black"
                  d="M691.5137 345.6836 L690.0371 341.9453 L688.5547 345.6836 ZM692.8145 349 L691.8711 346.5977 L688.1973 346.5977 L687.2422 349 L686.0996 349 L689.5391 340.3281 L690.7578 340.3281 L694.1445 349 ZM695 349 L695 348.1328 L698.9375 343.5039 L695.1816 343.5039 L695.1816 342.6367 L700.3613 342.6367 L700.3613 343.5039 L696.4238 348.1328 L700.4375 348.1328 L700.4375 349 ZM706.291 349 L706.291 347.8047 Q705.3711 349.1465 704.0586 349.1465 Q703.2266 349.1465 702.7344 348.6221 Q702.2422 348.0977 702.2422 347.207 L702.2422 342.6367 L703.3965 342.6367 L703.3965 346.832 Q703.3965 347.5469 703.6045 347.8486 Q703.8125 348.1504 704.2988 348.1504 Q705.3535 348.1504 706.291 346.7617 L706.291 342.6367 L707.4453 342.6367 L707.4453 349 ZM709.7598 349 L709.7598 342.6367 L710.9141 342.6367 L710.9141 343.832 Q711.5996 342.4961 712.9062 342.4961 Q713.082 342.4961 713.2754 342.5254 L713.2754 343.6035 Q712.9766 343.5039 712.748 343.5039 Q711.6523 343.5039 710.9141 344.8047 L710.9141 349 ZM719.334 348.7949 Q718.1738 349.1465 717.3477 349.1465 Q715.9414 349.1465 715.0537 348.2119 Q714.166 347.2773 714.166 345.7891 Q714.166 344.3418 714.9482 343.416 Q715.7305 342.4902 716.9492 342.4902 Q718.1035 342.4902 718.7334 343.3105 Q719.3633 344.1309 719.3633 345.6426 L719.3574 346 L715.3438 346 Q715.5957 348.2676 717.5645 348.2676 Q718.2852 348.2676 719.334 347.8809 ZM715.3965 345.1328 L718.2031 345.1328 Q718.2031 343.3574 716.8789 343.3574 Q715.5488 343.3574 715.3965 345.1328 ZM725.1172 349 L725.1172 340.3281 L727.3672 340.3281 Q728.668 340.3281 729.3623 340.8203 Q730.0566 341.3125 730.0566 342.2383 Q730.0566 343.8145 728.2754 344.4824 Q730.4023 345.1328 730.4023 346.832 Q730.4023 347.8867 729.6992 348.4434 Q728.9961 349 727.6719 349 ZM726.3359 348.0801 L726.5879 348.0801 Q727.9414 348.0801 728.3398 347.9102 Q729.1016 347.5879 729.1016 346.7148 Q729.1016 345.9414 728.4102 345.4287 Q727.7188 344.916 726.6816 344.916 L726.3359 344.916 ZM726.3359 344.1367 L726.7285 344.1367 Q727.7129 344.1367 728.2549 343.7148 Q728.7969 343.293 728.7969 342.5254 Q728.7969 341.248 726.8164 341.248 L726.3359 341.248 ZM732.0547 349 L732.0547 339.748 L733.209 339.748 L733.209 349 ZM738.0137 349.1465 Q736.6484 349.1465 735.834 348.2412 Q735.0195 347.3359 735.0195 345.8184 Q735.0195 344.2832 735.8369 343.3896 Q736.6543 342.4961 738.0547 342.4961 Q739.4551 342.4961 740.2725 343.3896 Q741.0898 344.2832 741.0898 345.8066 Q741.0898 347.3652 740.2695 348.2559 Q739.4492 349.1465 738.0137 349.1465 ZM738.0312 348.2793 Q739.8652 348.2793 739.8652 345.8066 Q739.8652 343.3633 738.0547 343.3633 Q736.25 343.3633 736.25 345.8184 Q736.25 348.2793 738.0312 348.2793 ZM742.8945 349.0703 L742.8945 339.748 L744.0488 339.748 L744.0488 343.832 Q744.7578 342.4961 746.1758 342.4961 Q747.3242 342.4961 747.9834 343.334 Q748.6426 344.1719 748.6426 345.625 Q748.6426 347.207 747.8955 348.1768 Q747.1484 349.1465 745.9297 349.1465 Q744.7988 349.1465 744.0488 348.2793 L743.9082 349.0703 ZM744.0488 347.4824 Q744.9395 348.2793 745.748 348.2793 Q747.4121 348.2793 747.4121 345.7422 Q747.4121 343.5039 745.9355 343.5039 Q744.9688 343.5039 744.0488 344.5527 Z"
                  clip-path="url(#clipPath22)" stroke="none"/>
            <path fill="black"
                  d="M698.8418 364.1465 Q698.0508 364.1465 696.9199 363.7773 L696.9199 362.7168 Q698.0508 363.2793 698.8887 363.2793 Q699.3867 363.2793 699.7148 363.0098 Q700.043 362.7402 700.043 362.3359 Q700.043 361.7441 699.123 361.3574 L698.4492 361.0703 Q696.9551 360.4492 696.9551 359.2832 Q696.9551 358.4512 697.5439 357.9736 Q698.1328 357.4961 699.1582 357.4961 Q699.6914 357.4961 700.4766 357.6426 L700.7168 357.6895 L700.7168 358.6504 Q699.75 358.3633 699.1816 358.3633 Q698.0684 358.3633 698.0684 359.1719 Q698.0684 359.6934 698.9121 360.0508 L699.4688 360.2852 Q700.4121 360.6836 700.8047 361.126 Q701.1973 361.5684 701.1973 362.2305 Q701.1973 363.0684 700.5352 363.6074 Q699.873 364.1465 698.8418 364.1465 ZM705.1816 364.1465 Q704.3027 364.1465 703.8105 363.6426 Q703.3184 363.1387 703.3184 362.2422 L703.3184 358.5039 L702.5215 358.5039 L702.5215 357.6367 L703.3184 357.6367 L703.3184 356.4824 L704.4727 356.3711 L704.4727 357.6367 L706.1367 357.6367 L706.1367 358.5039 L704.4727 358.5039 L704.4727 362.0312 Q704.4727 363.2793 705.5508 363.2793 Q705.7793 363.2793 706.1074 363.2031 L706.1074 364 Q705.5742 364.1465 705.1816 364.1465 ZM710.25 364.1465 Q708.8848 364.1465 708.0703 363.2412 Q707.2559 362.3359 707.2559 360.8184 Q707.2559 359.2832 708.0732 358.3896 Q708.8906 357.4961 710.291 357.4961 Q711.6914 357.4961 712.5088 358.3896 Q713.3262 359.2832 713.3262 360.8066 Q713.3262 362.3652 712.5059 363.2559 Q711.6855 364.1465 710.25 364.1465 ZM710.2676 363.2793 Q712.1016 363.2793 712.1016 360.8066 Q712.1016 358.3633 710.291 358.3633 Q708.4863 358.3633 708.4863 360.8184 Q708.4863 363.2793 710.2676 363.2793 ZM715.1309 364 L715.1309 357.6367 L716.2852 357.6367 L716.2852 358.832 Q716.9707 357.4961 718.2773 357.4961 Q718.4531 357.4961 718.6465 357.5254 L718.6465 358.6035 Q718.3477 358.5039 718.1191 358.5039 Q717.0234 358.5039 716.2852 359.8047 L716.2852 364 ZM723.3223 363.1914 Q722.2852 364.1465 721.3242 364.1465 Q720.5332 364.1465 720.0117 363.6514 Q719.4902 363.1562 719.4902 362.4004 Q719.4902 361.3574 720.3662 360.7979 Q721.2422 360.2383 722.877 360.2383 L723.1523 360.2383 L723.1523 359.4707 Q723.1523 358.3633 722.0156 358.3633 Q721.1016 358.3633 720.041 358.9258 L720.041 357.9707 Q721.207 357.4961 722.2266 357.4961 Q723.293 357.4961 723.7998 357.9766 Q724.3066 358.457 724.3066 359.4707 L724.3066 362.3535 Q724.3066 363.3438 724.916 363.3438 Q724.9922 363.3438 725.1387 363.3203 L725.2207 363.959 Q724.8281 364.1465 724.3535 364.1465 Q723.5449 364.1465 723.3223 363.1914 ZM723.1523 362.5645 L723.1523 360.918 L722.7656 360.9062 Q721.8164 360.9062 721.2305 361.2666 Q720.6445 361.627 720.6445 362.2129 Q720.6445 362.6289 720.9375 362.916 Q721.2305 363.2031 721.6523 363.2031 Q722.373 363.2031 723.1523 362.5645 ZM726.6914 366.1152 L726.8262 365.1133 Q727.8281 365.5879 728.8008 365.5879 Q730.752 365.5879 730.752 363.5195 L730.752 362.5176 Q730.1133 363.8535 728.6543 363.8535 Q727.5117 363.8535 726.8379 363.0215 Q726.1641 362.1895 726.1641 360.7773 Q726.1641 359.3242 726.9316 358.4102 Q727.6992 357.4961 728.918 357.4961 Q729.9844 357.4961 730.752 358.3633 L730.752 357.6367 L731.9121 357.6367 L731.9121 362.2656 Q731.9121 363.7598 731.7568 364.4775 Q731.6016 365.1953 731.1738 365.6523 Q730.418 366.4551 728.8242 366.4551 Q727.7109 366.4551 726.6914 366.1152 ZM730.752 361.7969 L730.752 359.1543 Q729.9902 358.3633 729.0938 358.3633 Q728.2969 358.3633 727.8457 359.002 Q727.3945 359.6406 727.3945 360.7539 Q727.3945 362.8457 728.8652 362.8457 Q729.8672 362.8457 730.752 361.7969 ZM738.8145 363.7949 Q737.6543 364.1465 736.8281 364.1465 Q735.4219 364.1465 734.5342 363.2119 Q733.6465 362.2773 733.6465 360.7891 Q733.6465 359.3418 734.4287 358.416 Q735.2109 357.4902 736.4297 357.4902 Q737.584 357.4902 738.2139 358.3105 Q738.8438 359.1309 738.8438 360.6426 L738.8379 361 L734.8242 361 Q735.0762 363.2676 737.0449 363.2676 Q737.7656 363.2676 738.8145 362.8809 ZM734.877 360.1328 L737.6836 360.1328 Q737.6836 358.3574 736.3594 358.3574 Q735.0293 358.3574 734.877 360.1328 Z"
                  clip-path="url(#clipPath22)" stroke="none"/>
        </g>
        <g text-rendering="optimizeLegibility" font-size="13px"
           font-family="'.AppleSystemUIFont'" stroke-linecap="butt">
            <path fill="none" d="M350 59 L350 90" clip-path="url(#clipPath23)"/>
            <path fill="none" d="M347 83 L350 90 L353 83"
                  clip-path="url(#clipPath24)"/>
            <path fill="none" d="M200 139 L129 178" clip-path="url(#clipPath25)"/>
            <path fill="none" d="M134 172 L129 178 L137 177"
                  clip-path="url(#clipPath26)"/>
            <path fill="none" d="M237 139 L237 178" clip-path="url(#clipPath27)"/>
            <path fill="none" d="M234 171 L237 178 L240 171"
                  clip-path="url(#clipPath28)"/>
            <path fill="none" d="M350 139 L350 178" clip-path="url(#clipPath29)"/>
            <path fill="none" d="M347 171 L350 178 L353 171"
                  clip-path="url(#clipPath30)"/>
            <path fill="none" d="M459 139 L459 178" clip-path="url(#clipPath31)"/>
            <path fill="none" d="M456 171 L459 178 L462 171"
                  clip-path="url(#clipPath32)"/>
            <path fill="none" d="M499 139 L550 178" clip-path="url(#clipPath33)"/>
            <path fill="none" d="M543 176 L550 178 L546 171"
                  clip-path="url(#clipPath34)"/>
            <path fill="none" stroke-dasharray="6,3" d="M129 231 L143 283"
                  clip-path="url(#clipPath35)"/>
            <polygon stroke-dasharray="6,3" clip-path="url(#clipPath36)"
                     points=" 143 283 138 277 144 275" stroke="none"/>
            <polygon fill="none" points=" 143 283 138 277 144 275"
                     clip-path="url(#clipPath36)"/>
            <path fill="none" stroke-dasharray="6,3" d="M214 231 L214 280"
                  clip-path="url(#clipPath37)"/>
            <polygon stroke-dasharray="6,3" clip-path="url(#clipPath38)"
                     points=" 214 280 211 273 217 273" stroke="none"/>
            <polygon fill="none" points=" 214 280 211 273 217 273"
                     clip-path="url(#clipPath38)"/>
            <path fill="none" stroke-dasharray="6,3" d="M350 231 L350 280"
                  clip-path="url(#clipPath39)"/>
            <polygon stroke-dasharray="6,3" clip-path="url(#clipPath40)"
                     points=" 350 280 347 273 353 273" stroke="none"/>
            <polygon fill="none" points=" 350 280 347 273 353 273"
                     clip-path="url(#clipPath40)"/>
            <path fill="none" stroke-dasharray="6,3" d="M478 231 L478 280"
                  clip-path="url(#clipPath41)"/>
            <polygon stroke-dasharray="6,3" clip-path="url(#clipPath42)"
                     points=" 478 280 475 273 481 273" stroke="none"/>
            <polygon fill="none" points=" 478 280 475 273 481 273"
                     clip-path="url(#clipPath42)"/>
            <path fill="none" stroke-dasharray="6,3" d="M555 231 L555 282"
                  clip-path="url(#clipPath43)"/>
            <polygon stroke-dasharray="6,3" clip-path="url(#clipPath44)"
                     points=" 555 282 552 275 558 275" stroke="none"/>
            <polygon fill="none" points=" 555 282 552 275 558 275"
                     clip-path="url(#clipPath44)"/>
            <path fill="none" d="M664 231 L664 334" clip-path="url(#clipPath45)"/>
            <path fill="none" d="M661 327 L664 334 L667 327"
                  clip-path="url(#clipPath46)"/>
            <path fill="none" stroke-dasharray="6,3" d="M280 323 L280 387"
                  clip-path="url(#clipPath47)"/>
            <polygon stroke-dasharray="6,3" clip-path="url(#clipPath48)"
                     points=" 280 387 277 380 283 380" stroke="none"/>
            <polygon fill="none" points=" 280 387 277 380 283 380"
                     clip-path="url(#clipPath48)"/>
            <path fill="none" d="M359 412 L449 412" clip-path="url(#clipPath49)"/>
            <path fill="none" d="M442 415 L449 412 L442 409"
                  clip-path="url(#clipPath50)"/>
        </g>
    </g>
</svg>
