<?xml version="1.0"?>


<svg fill-opacity="1" xmlns:xlink="http://www.w3.org/1999/xlink"
     color-rendering="auto" color-interpolation="auto" text-rendering="auto"
     stroke="black" stroke-linecap="square" width="848" stroke-miterlimit="10"
     shape-rendering="auto" stroke-opacity="1" fill="black"
     stroke-dasharray="none" font-weight="normal" stroke-width="1"
     viewBox="0 0 848 495" height="495" xmlns="http://www.w3.org/2000/svg"
     font-family="'Dialog'" font-style="normal" stroke-linejoin="miter"
     font-size="12px" stroke-dashoffset="0" image-rendering="auto">
    <!--Generated by Archi with Batik SVG Generator-->
    <defs id="genericDefs"/>
    <g>
        <defs id="defs1">
            <clipPath clipPathUnits="userSpaceOnUse" id="clipPath1">
                <path d="M21 9 L143 9 L143 66 L21 66 L21 9 Z"/>
            </clipPath>
            <clipPath clipPathUnits="userSpaceOnUse" id="clipPath2">
                <path d="M56 13 L107 13 L107 60 L56 60 L56 13 Z"/>
            </clipPath>
            <clipPath clipPathUnits="userSpaceOnUse" id="clipPath3">
                <path d="M261 9 L383 9 L383 66 L261 66 L261 9 Z"/>
            </clipPath>
            <clipPath clipPathUnits="userSpaceOnUse" id="clipPath4">
                <path d="M281 13 L362 13 L362 45 L281 45 L281 13 Z"/>
            </clipPath>
            <clipPath clipPathUnits="userSpaceOnUse" id="clipPath5">
                <path d="M513 9 L635 9 L635 66 L513 66 L513 9 Z"/>
            </clipPath>
            <clipPath clipPathUnits="userSpaceOnUse" id="clipPath6">
                <path d="M542 13 L605 13 L605 45 L542 45 L542 13 Z"/>
            </clipPath>
            <clipPath clipPathUnits="userSpaceOnUse" id="clipPath7">
                <path d="M9 177 L131 177 L131 234 L9 234 L9 177 Z"/>
            </clipPath>
            <clipPath clipPathUnits="userSpaceOnUse" id="clipPath8">
                <path d="M35 181 L105 181 L105 213 L35 213 L35 181 Z"/>
            </clipPath>
            <clipPath clipPathUnits="userSpaceOnUse" id="clipPath9">
                <path d="M249 189 L371 189 L371 246 L249 246 L249 189 Z"/>
            </clipPath>
            <clipPath clipPathUnits="userSpaceOnUse" id="clipPath10">
                <path d="M275 193 L344 193 L344 225 L275 225 L275 193 Z"/>
            </clipPath>
            <clipPath clipPathUnits="userSpaceOnUse" id="clipPath11">
                <path d="M477 189 L599 189 L599 246 L477 246 L477 189 Z"/>
            </clipPath>
            <clipPath clipPathUnits="userSpaceOnUse" id="clipPath12">
                <path d="M506 193 L570 193 L570 240 L506 240 L506 193 Z"/>
            </clipPath>
            <clipPath clipPathUnits="userSpaceOnUse" id="clipPath13">
                <path d="M717 189 L839 189 L839 246 L717 246 L717 189 Z"/>
            </clipPath>
            <clipPath clipPathUnits="userSpaceOnUse" id="clipPath14">
                <path d="M745 193 L811 193 L811 240 L745 240 L745 193 Z"/>
            </clipPath>
            <clipPath clipPathUnits="userSpaceOnUse" id="clipPath15">
                <path d="M309 297 L431 297 L431 354 L309 354 L309 297 Z"/>
            </clipPath>
            <clipPath clipPathUnits="userSpaceOnUse" id="clipPath16">
                <path d="M344 301 L395 301 L395 333 L344 333 L344 301 Z"/>
            </clipPath>
            <clipPath clipPathUnits="userSpaceOnUse" id="clipPath17">
                <path d="M96 412 L218 412 L218 469 L96 469 L96 412 Z"/>
            </clipPath>
            <clipPath clipPathUnits="userSpaceOnUse" id="clipPath18">
                <path d="M128 416 L186 416 L186 465 L128 465 L128 416 Z"/>
            </clipPath>
            <clipPath clipPathUnits="userSpaceOnUse" id="clipPath19">
                <path d="M477 429 L599 429 L599 486 L477 486 L477 429 Z"/>
            </clipPath>
            <clipPath clipPathUnits="userSpaceOnUse" id="clipPath20">
                <path d="M509 433 L567 433 L567 480 L509 480 L509 433 Z"/>
            </clipPath>
            <clipPath clipPathUnits="userSpaceOnUse" id="clipPath21">
                <path d="M64 53 L93 53 L93 191 L64 191 L64 53 Z"/>
            </clipPath>
            <clipPath clipPathUnits="userSpaceOnUse" id="clipPath22">
                <path d="M74 167 L83 167 L83 181 L74 181 L74 167 Z"/>
            </clipPath>
            <clipPath clipPathUnits="userSpaceOnUse" id="clipPath23">
                <path d="M130 53 L263 53 L263 203 L130 203 L130 53 Z"/>
            </clipPath>
            <clipPath clipPathUnits="userSpaceOnUse" id="clipPath24">
                <path d="M245 179 L253 179 L253 193 L245 193 L245 179 Z"/>
            </clipPath>
            <clipPath clipPathUnits="userSpaceOnUse" id="clipPath25">
                <path d="M130 53 L491 53 L491 203 L130 203 L130 53 Z"/>
            </clipPath>
            <clipPath clipPathUnits="userSpaceOnUse" id="clipPath26">
                <path d="M469 181 L481 181 L481 193 L469 193 L469 181 Z"/>
            </clipPath>
            <clipPath clipPathUnits="userSpaceOnUse" id="clipPath27">
                <path d="M130 53 L731 53 L731 203 L130 203 L130 53 Z"/>
            </clipPath>
            <clipPath clipPathUnits="userSpaceOnUse" id="clipPath28">
                <path d="M708 182 L721 182 L721 193 L708 193 L708 182 Z"/>
            </clipPath>
            <clipPath clipPathUnits="userSpaceOnUse" id="clipPath29">
                <path d="M129 52 L326 52 L326 314 L129 314 L129 52 Z"/>
            </clipPath>
            <clipPath clipPathUnits="userSpaceOnUse" id="clipPath30">
                <path d="M139 62 L148 62 L148 71 L139 71 L139 62 Z"/>
            </clipPath>
            <clipPath clipPathUnits="userSpaceOnUse" id="clipPath31">
                <path d="M304 292 L316 292 L316 304 L304 304 L304 292 Z"/>
            </clipPath>
            <clipPath clipPathUnits="userSpaceOnUse" id="clipPath32">
                <path d="M304 53 L333 53 L333 203 L304 203 L304 53 Z"/>
            </clipPath>
            <clipPath clipPathUnits="userSpaceOnUse" id="clipPath33">
                <path d="M314 179 L323 179 L323 193 L314 193 L314 179 Z"/>
            </clipPath>
            <clipPath clipPathUnits="userSpaceOnUse" id="clipPath34">
                <path d="M370 53 L491 53 L491 203 L370 203 L370 53 Z"/>
            </clipPath>
            <clipPath clipPathUnits="userSpaceOnUse" id="clipPath35">
                <path d="M474 178 L481 178 L481 193 L474 193 L474 178 Z"/>
            </clipPath>
            <clipPath clipPathUnits="userSpaceOnUse" id="clipPath36">
                <path d="M544 53 L573 53 L573 203 L544 203 L544 53 Z"/>
            </clipPath>
            <clipPath clipPathUnits="userSpaceOnUse" id="clipPath37">
                <path d="M554 179 L563 179 L563 193 L554 193 L554 179 Z"/>
            </clipPath>
            <clipPath clipPathUnits="userSpaceOnUse" id="clipPath38">
                <path d="M325 232 L356 232 L356 310 L325 310 L325 232 Z"/>
            </clipPath>
            <clipPath clipPathUnits="userSpaceOnUse" id="clipPath39">
                <path d="M335 242 L346 242 L346 254 L335 254 L335 242 Z"/>
            </clipPath>
            <clipPath clipPathUnits="userSpaceOnUse" id="clipPath40">
                <path d="M202 232 L264 232 L264 428 L202 428 L202 232 Z"/>
            </clipPath>
            <clipPath clipPathUnits="userSpaceOnUse" id="clipPath41">
                <path d="M244 242 L254 242 L254 254 L244 254 L244 242 Z"/>
            </clipPath>
            <clipPath clipPathUnits="userSpaceOnUse" id="clipPath42">
                <path d="M202 232 L491 232 L491 428 L202 428 L202 232 Z"/>
            </clipPath>
            <clipPath clipPathUnits="userSpaceOnUse" id="clipPath43">
                <path d="M468 242 L481 242 L481 253 L468 253 L468 242 Z"/>
            </clipPath>
            <clipPath clipPathUnits="userSpaceOnUse" id="clipPath44">
                <path d="M415 230 L731 230 L731 313 L415 313 L415 230 Z"/>
            </clipPath>
            <clipPath clipPathUnits="userSpaceOnUse" id="clipPath45">
                <path d="M709 240 L721 240 L721 251 L709 251 L709 240 Z"/>
            </clipPath>
            <clipPath clipPathUnits="userSpaceOnUse" id="clipPath46">
                <path d="M583 232 L731 232 L731 445 L583 445 L583 232 Z"/>
            </clipPath>
            <clipPath clipPathUnits="userSpaceOnUse" id="clipPath47">
                <path d="M710 242 L721 242 L721 254 L710 254 L710 242 Z"/>
            </clipPath>
        </defs>
        <g fill="rgb(201,231,183)" text-rendering="optimizeLegibility"
           font-family="'Lucida Grande'" stroke-linejoin="round"
           stroke="rgb(201,231,183)" stroke-width="0" stroke-miterlimit="0">
            <rect x="22" width="119" height="54" y="10"
                  clip-path="url(#clipPath1)" stroke="none"/>
        </g>
        <g fill="rgb(140,161,128)" text-rendering="optimizeLegibility"
           font-family="'Lucida Grande'" stroke-linecap="butt"
           stroke="rgb(140,161,128)">
            <rect fill="none" x="22" width="119" height="54" y="10"
                  clip-path="url(#clipPath1)"/>
            <path fill="none"
                  d="M124 18 L135 18 L135 29 L124 29 ZM123.8 18 L127.2 15 L138 15 L138 26 L135 29.2 M135 18 L138 15"
                  clip-path="url(#clipPath1)" fill-rule="evenodd" stroke="black"/>
            <path fill="black"
                  d="M63.1191 26 L63.1191 17.3281 L65.4805 17.3281 Q67.0508 17.3281 67.7363 17.8584 Q68.4219 18.3887 68.4219 19.6016 Q68.4219 20.9844 67.4844 21.7695 Q66.5469 22.5547 64.8828 22.5547 L64.3379 22.5547 L64.3379 26 ZM64.3379 21.623 L64.8359 21.623 Q65.9316 21.623 66.5293 21.1191 Q67.127 20.6152 67.127 19.6953 Q67.127 18.916 66.6582 18.582 Q66.1895 18.248 65.0938 18.248 L64.3379 18.248 ZM70.1562 28.3145 L71.1875 26 L68.7266 19.6367 L69.9746 19.6367 L71.7969 24.4297 L73.7422 19.6367 L74.832 19.6367 L71.3574 28.3145 ZM77.9668 26.1465 Q77.0879 26.1465 76.5957 25.6426 Q76.1035 25.1387 76.1035 24.2422 L76.1035 20.5039 L75.3066 20.5039 L75.3066 19.6367 L76.1035 19.6367 L76.1035 18.4824 L77.2578 18.3711 L77.2578 19.6367 L78.9219 19.6367 L78.9219 20.5039 L77.2578 20.5039 L77.2578 24.0312 Q77.2578 25.2793 78.3359 25.2793 Q78.5645 25.2793 78.8926 25.2031 L78.8926 26 Q78.3594 26.1465 77.9668 26.1465 ZM80.5449 26 L80.5449 16.748 L81.6992 16.748 L81.6992 20.832 Q82.6133 19.4961 83.9375 19.4961 Q84.7637 19.4961 85.2559 20.0205 Q85.748 20.5449 85.748 21.4297 L85.748 26 L84.5938 26 L84.5938 21.8047 Q84.5938 21.0957 84.3857 20.7939 Q84.1777 20.4922 83.6973 20.4922 Q82.6367 20.4922 81.6992 21.8809 L81.6992 26 ZM90.4824 26.1465 Q89.1172 26.1465 88.3027 25.2412 Q87.4883 24.3359 87.4883 22.8184 Q87.4883 21.2832 88.3057 20.3896 Q89.123 19.4961 90.5234 19.4961 Q91.9238 19.4961 92.7412 20.3896 Q93.5586 21.2832 93.5586 22.8066 Q93.5586 24.3652 92.7383 25.2559 Q91.918 26.1465 90.4824 26.1465 ZM90.5 25.2793 Q92.334 25.2793 92.334 22.8066 Q92.334 20.3633 90.5234 20.3633 Q88.7188 20.3633 88.7188 22.8184 Q88.7188 25.2793 90.5 25.2793 ZM95.3633 26 L95.3633 19.6367 L96.5176 19.6367 L96.5176 20.832 Q97.4316 19.4961 98.7559 19.4961 Q99.582 19.4961 100.0742 20.0205 Q100.5664 20.5449 100.5664 21.4297 L100.5664 26 L99.4121 26 L99.4121 21.8047 Q99.4121 21.0957 99.2041 20.7939 Q98.9961 20.4922 98.5156 20.4922 Q97.4551 20.4922 96.5176 21.8809 L96.5176 26 Z"
                  clip-path="url(#clipPath2)" stroke="none"/>
            <path fill="black"
                  d="M58.1191 41 L58.1191 32.3281 L60.7441 32.3281 Q61.9922 32.3281 62.6572 32.8789 Q63.3223 33.4297 63.3223 34.4785 Q63.3223 36.2129 61.5703 36.9395 L64.4648 41 L62.9531 41 L60.4863 37.332 L59.3379 37.332 L59.3379 41 ZM59.3379 36.4121 L59.7363 36.4121 Q62.0566 36.4121 62.0566 34.5898 Q62.0566 33.248 60.1113 33.248 L59.3379 33.248 ZM69.7207 41 L69.7207 39.8047 Q68.8008 41.1465 67.4883 41.1465 Q66.6562 41.1465 66.1641 40.6221 Q65.6719 40.0977 65.6719 39.207 L65.6719 34.6367 L66.8262 34.6367 L66.8262 38.832 Q66.8262 39.5469 67.0342 39.8486 Q67.2422 40.1504 67.7285 40.1504 Q68.7832 40.1504 69.7207 38.7617 L69.7207 34.6367 L70.875 34.6367 L70.875 41 ZM73.1895 41 L73.1895 34.6367 L74.3438 34.6367 L74.3438 35.832 Q75.2578 34.4961 76.582 34.4961 Q77.4082 34.4961 77.9004 35.0205 Q78.3926 35.5449 78.3926 36.4297 L78.3926 41 L77.2383 41 L77.2383 36.8047 Q77.2383 36.0957 77.0303 35.7939 Q76.8223 35.4922 76.3418 35.4922 Q75.2812 35.4922 74.3438 36.8809 L74.3438 41 ZM82.5469 41.1465 Q81.668 41.1465 81.1758 40.6426 Q80.6836 40.1387 80.6836 39.2422 L80.6836 35.5039 L79.8867 35.5039 L79.8867 34.6367 L80.6836 34.6367 L80.6836 33.4824 L81.8379 33.3711 L81.8379 34.6367 L83.502 34.6367 L83.502 35.5039 L81.8379 35.5039 L81.8379 39.0312 Q81.8379 40.2793 82.916 40.2793 Q83.1445 40.2793 83.4727 40.2031 L83.4727 41 Q82.9395 41.1465 82.5469 41.1465 ZM85.125 41 L85.125 34.6367 L86.2793 34.6367 L86.2793 41 ZM85.125 33.4824 L85.125 32.3281 L86.2793 32.3281 L86.2793 33.4824 ZM88.5938 41 L88.5938 34.6367 L89.748 34.6367 L89.748 35.832 Q90.5918 34.4961 91.916 34.4961 Q93.1934 34.4961 93.6562 35.832 Q94.4766 34.4902 95.7891 34.4902 Q96.6328 34.4902 97.0957 34.9854 Q97.5586 35.4805 97.5586 36.3711 L97.5586 41 L96.3984 41 L96.3984 36.5527 Q96.3984 35.4629 95.5371 35.4629 Q94.6406 35.4629 93.6562 36.7344 L93.6562 41 L92.4961 41 L92.4961 36.5527 Q92.4961 35.457 91.6172 35.457 Q90.7441 35.457 89.748 36.7344 L89.748 41 ZM104.4609 40.7949 Q103.3008 41.1465 102.4746 41.1465 Q101.0684 41.1465 100.1807 40.2119 Q99.293 39.2773 99.293 37.7891 Q99.293 36.3418 100.0752 35.416 Q100.8574 34.4902 102.0762 34.4902 Q103.2305 34.4902 103.8604 35.3105 Q104.4902 36.1309 104.4902 37.6426 L104.4844 38 L100.4707 38 Q100.7227 40.2676 102.6914 40.2676 Q103.4121 40.2676 104.4609 39.8809 ZM100.5234 37.1328 L103.3301 37.1328 Q103.3301 35.3574 102.0059 35.3574 Q100.6758 35.3574 100.5234 37.1328 Z"
                  clip-path="url(#clipPath2)" stroke="none"/>
            <path fill="black"
                  d="M63.4688 56.9375 L63.4688 57.7344 Q62.2031 56.873 61.4619 55.3936 Q60.7207 53.9141 60.7207 52.2383 Q60.7207 50.5684 61.4619 49.0889 Q62.2031 47.6094 63.4688 46.748 L63.4688 47.5449 Q62.6074 48.4824 62.2412 49.5605 Q61.875 50.6387 61.875 52.2383 Q61.875 53.8438 62.2412 54.9219 Q62.6074 56 63.4688 56.9375 ZM65.1211 55.9355 L65.1211 54.8574 Q66.3633 55.3496 67.0781 55.3496 Q67.9043 55.3496 68.4229 54.8662 Q68.9414 54.3828 68.9414 53.6152 Q68.9414 51.7871 66.3809 51.7871 L65.9238 51.7871 L65.9238 51.0078 L66.3281 51.002 Q68.7305 51.002 68.7305 49.3086 Q68.7305 47.9785 67.1484 47.9785 Q66.2812 47.9785 65.2383 48.4648 L65.2383 47.457 Q66.2637 47.1113 67.2305 47.1113 Q69.8906 47.1113 69.8906 49.1211 Q69.8906 50.6504 68.0801 51.3008 Q70.1777 51.7871 70.1777 53.5977 Q70.1777 54.8223 69.3691 55.5195 Q68.5605 56.2168 67.1484 56.2168 Q66.3457 56.2168 65.1211 55.9355 ZM72.6621 56 L72.6621 54.5527 L74.1094 54.5527 L74.1094 56 ZM77.0918 56 L77.0918 55.1328 L78.8262 55.1328 L78.8262 48.2891 L77.0918 48.7227 L77.0918 47.832 L79.9863 47.1113 L79.9863 55.1328 L81.7207 55.1328 L81.7207 56 ZM86.6367 56.2168 Q85.2949 56.2168 84.4658 54.9541 Q83.6367 53.6914 83.6367 51.6582 Q83.6367 49.6074 84.4717 48.3594 Q85.3066 47.1113 86.6719 47.1113 Q88.0371 47.1113 88.8721 48.3594 Q89.707 49.6074 89.707 51.6406 Q89.707 53.7266 88.8721 54.9717 Q88.0371 56.2168 86.6367 56.2168 ZM86.6484 55.3496 Q88.4824 55.3496 88.4824 51.623 Q88.4824 47.9785 86.6719 47.9785 Q84.8672 47.9785 84.8672 51.6582 Q84.8672 55.3496 86.6484 55.3496 ZM94.7988 56 L94.7988 52.9648 L91.7637 52.9648 L91.7637 52.0977 L94.7988 52.0977 L94.7988 49.0625 L95.666 49.0625 L95.666 52.0977 L98.7012 52.0977 L98.7012 52.9648 L95.666 52.9648 L95.666 56 ZM100.4355 56.9375 L100.4355 57.7344 Q101.7012 56.873 102.4424 55.3936 Q103.1836 53.9141 103.1836 52.2383 Q103.1836 50.5684 102.4424 49.0889 Q101.7012 47.6094 100.4355 46.748 L100.4355 47.5449 Q101.2969 48.4824 101.6631 49.5605 Q102.0293 50.6387 102.0293 52.2383 Q102.0293 53.8438 101.6631 54.9219 Q101.2969 56 100.4355 56.9375 Z"
                  clip-path="url(#clipPath2)" stroke="none"/>
            <rect x="262" y="10" clip-path="url(#clipPath3)"
                  fill="rgb(201,231,183)" width="119" height="54" stroke="none"/>
            <rect fill="none" x="262" width="119" height="54" y="10"
                  clip-path="url(#clipPath3)"/>
            <path fill="none"
                  d="M364 18 L375 18 L375 29 L364 29 ZM363.8 18 L367.2 15 L378 15 L378 26 L375 29.2 M375 18 L378 15"
                  clip-path="url(#clipPath3)" fill-rule="evenodd" stroke="black"/>
            <path fill="black"
                  d="M295.834 26.2168 Q293.8125 26.2168 292.7109 25.0303 Q291.6094 23.8438 291.6094 21.6699 Q291.6094 19.502 292.7314 18.3066 Q293.8535 17.1113 295.8926 17.1113 Q297.0586 17.1113 298.623 17.4922 L298.623 18.6465 Q296.8418 18.0312 295.875 18.0312 Q294.4629 18.0312 293.6895 18.9863 Q292.916 19.9414 292.916 21.6816 Q292.916 23.3398 293.7422 24.2979 Q294.5684 25.2559 295.998 25.2559 Q297.2285 25.2559 298.6348 24.5 L298.6348 25.5547 Q297.3516 26.2168 295.834 26.2168 ZM300.457 26 L300.457 16.748 L301.6113 16.748 L301.6113 20.832 Q302.5254 19.4961 303.8496 19.4961 Q304.6758 19.4961 305.168 20.0205 Q305.6602 20.5449 305.6602 21.4297 L305.6602 26 L304.5059 26 L304.5059 21.8047 Q304.5059 21.0957 304.2979 20.7939 Q304.0898 20.4922 303.6094 20.4922 Q302.5488 20.4922 301.6113 21.8809 L301.6113 26 ZM307.9043 26 L307.9043 19.6367 L309.0586 19.6367 L309.0586 20.832 Q309.7441 19.4961 311.0508 19.4961 Q311.2266 19.4961 311.4199 19.5254 L311.4199 20.6035 Q311.1211 20.5039 310.8926 20.5039 Q309.7969 20.5039 309.0586 21.8047 L309.0586 26 ZM315.3047 26.1465 Q313.9395 26.1465 313.125 25.2412 Q312.3105 24.3359 312.3105 22.8184 Q312.3105 21.2832 313.1279 20.3896 Q313.9453 19.4961 315.3457 19.4961 Q316.7461 19.4961 317.5635 20.3896 Q318.3809 21.2832 318.3809 22.8066 Q318.3809 24.3652 317.5605 25.2559 Q316.7402 26.1465 315.3047 26.1465 ZM315.3223 25.2793 Q317.1562 25.2793 317.1562 22.8066 Q317.1562 20.3633 315.3457 20.3633 Q313.541 20.3633 313.541 22.8184 Q313.541 25.2793 315.3223 25.2793 ZM320.1855 26 L320.1855 19.6367 L321.3398 19.6367 L321.3398 20.832 Q322.1836 19.4961 323.5078 19.4961 Q324.7852 19.4961 325.248 20.832 Q326.0684 19.4902 327.3809 19.4902 Q328.2246 19.4902 328.6875 19.9854 Q329.1504 20.4805 329.1504 21.3711 L329.1504 26 L327.9902 26 L327.9902 21.5527 Q327.9902 20.4629 327.1289 20.4629 Q326.2324 20.4629 325.248 21.7344 L325.248 26 L324.0879 26 L324.0879 21.5527 Q324.0879 20.457 323.209 20.457 Q322.3359 20.457 321.3398 21.7344 L321.3398 26 ZM334.6699 25.1914 Q333.6328 26.1465 332.6719 26.1465 Q331.8809 26.1465 331.3594 25.6514 Q330.8379 25.1562 330.8379 24.4004 Q330.8379 23.3574 331.7139 22.7979 Q332.5898 22.2383 334.2246 22.2383 L334.5 22.2383 L334.5 21.4707 Q334.5 20.3633 333.3633 20.3633 Q332.4492 20.3633 331.3887 20.9258 L331.3887 19.9707 Q332.5547 19.4961 333.5742 19.4961 Q334.6406 19.4961 335.1475 19.9766 Q335.6543 20.457 335.6543 21.4707 L335.6543 24.3535 Q335.6543 25.3438 336.2637 25.3438 Q336.3398 25.3438 336.4863 25.3203 L336.5684 25.959 Q336.1758 26.1465 335.7012 26.1465 Q334.8926 26.1465 334.6699 25.1914 ZM334.5 24.5645 L334.5 22.918 L334.1133 22.9062 Q333.1641 22.9062 332.5781 23.2666 Q331.9922 23.627 331.9922 24.2129 Q331.9922 24.6289 332.2852 24.916 Q332.5781 25.2031 333 25.2031 Q333.7207 25.2031 334.5 24.5645 ZM337.9805 26 L337.9805 17.3281 L340.8633 17.3281 Q342.1523 17.3281 342.9463 17.6152 Q343.7402 17.9023 344.3203 18.5879 Q345.2402 19.6777 345.2402 21.459 Q345.2402 23.6211 344.0977 24.8105 Q342.9551 26 340.8809 26 ZM339.2109 25.0801 L340.7871 25.0801 Q342.4746 25.0801 343.1777 24.1719 Q343.9336 23.2051 343.9336 21.5762 Q343.9336 20.0469 343.1895 19.1738 Q342.7383 18.6406 342.1113 18.4443 Q341.4844 18.248 340.2246 18.248 L339.2109 18.248 ZM346.9688 26 L346.9688 17.3281 L349.2188 17.3281 Q350.5195 17.3281 351.2139 17.8203 Q351.9082 18.3125 351.9082 19.2383 Q351.9082 20.8145 350.127 21.4824 Q352.2539 22.1328 352.2539 23.832 Q352.2539 24.8867 351.5508 25.4434 Q350.8477 26 349.5234 26 ZM348.1875 25.0801 L348.4395 25.0801 Q349.793 25.0801 350.1914 24.9102 Q350.9531 24.5879 350.9531 23.7148 Q350.9531 22.9414 350.2617 22.4287 Q349.5703 21.916 348.5332 21.916 L348.1875 21.916 ZM348.1875 21.1367 L348.5801 21.1367 Q349.5645 21.1367 350.1064 20.7148 Q350.6484 20.293 350.6484 19.5254 Q350.6484 18.248 348.668 18.248 L348.1875 18.248 Z"
                  clip-path="url(#clipPath4)" stroke="none"/>
            <path fill="black"
                  d="M285.4688 41.9375 L285.4688 42.7344 Q284.2031 41.873 283.4619 40.3936 Q282.7207 38.9141 282.7207 37.2383 Q282.7207 35.5684 283.4619 34.0889 Q284.2031 32.6094 285.4688 31.748 L285.4688 32.5449 Q284.6074 33.4824 284.2412 34.5605 Q283.875 35.6387 283.875 37.2383 Q283.875 38.8438 284.2412 39.9219 Q284.6074 41 285.4688 41.9375 ZM289.3887 41 L286.1133 32.3281 L287.3438 32.3281 L290.0273 39.4297 L292.6172 32.3281 L293.6953 32.3281 L290.5488 41 ZM299.5664 40.7949 Q298.4062 41.1465 297.5801 41.1465 Q296.1738 41.1465 295.2861 40.2119 Q294.3984 39.2773 294.3984 37.7891 Q294.3984 36.3418 295.1807 35.416 Q295.9629 34.4902 297.1816 34.4902 Q298.3359 34.4902 298.9658 35.3105 Q299.5957 36.1309 299.5957 37.6426 L299.5898 38 L295.5762 38 Q295.8281 40.2676 297.7969 40.2676 Q298.5176 40.2676 299.5664 39.8809 ZM295.6289 37.1328 L298.4355 37.1328 Q298.4355 35.3574 297.1113 35.3574 Q295.7812 35.3574 295.6289 37.1328 ZM304.0723 41.1465 Q302.7832 41.1465 301.9336 40.1914 Q301.084 39.2363 301.084 37.7832 Q301.084 36.2305 301.9248 35.3633 Q302.7656 34.4961 304.2715 34.4961 Q305.0156 34.4961 305.9355 34.7012 L305.9355 35.668 Q304.957 35.3809 304.3418 35.3809 Q303.457 35.3809 302.9209 36.0459 Q302.3848 36.7109 302.3848 37.8184 Q302.3848 38.8906 302.9355 39.5527 Q303.4863 40.2148 304.377 40.2148 Q305.168 40.2148 306.0059 39.8105 L306.0059 40.8066 Q304.8867 41.1465 304.0723 41.1465 ZM309.6445 41.1465 Q308.7656 41.1465 308.2734 40.6426 Q307.7812 40.1387 307.7812 39.2422 L307.7812 35.5039 L306.9844 35.5039 L306.9844 34.6367 L307.7812 34.6367 L307.7812 33.4824 L308.9355 33.3711 L308.9355 34.6367 L310.5996 34.6367 L310.5996 35.5039 L308.9355 35.5039 L308.9355 39.0312 Q308.9355 40.2793 310.0137 40.2793 Q310.2422 40.2793 310.5703 40.2031 L310.5703 41 Q310.0371 41.1465 309.6445 41.1465 ZM314.7129 41.1465 Q313.3477 41.1465 312.5332 40.2412 Q311.7188 39.3359 311.7188 37.8184 Q311.7188 36.2832 312.5361 35.3896 Q313.3535 34.4961 314.7539 34.4961 Q316.1543 34.4961 316.9717 35.3896 Q317.7891 36.2832 317.7891 37.8066 Q317.7891 39.3652 316.9688 40.2559 Q316.1484 41.1465 314.7129 41.1465 ZM314.7305 40.2793 Q316.5645 40.2793 316.5645 37.8066 Q316.5645 35.3633 314.7539 35.3633 Q312.9492 35.3633 312.9492 37.8184 Q312.9492 40.2793 314.7305 40.2793 ZM319.5938 41 L319.5938 34.6367 L320.748 34.6367 L320.748 35.832 Q321.4336 34.4961 322.7402 34.4961 Q322.916 34.4961 323.1094 34.5254 L323.1094 35.6035 Q322.8105 35.5039 322.582 35.5039 Q321.4863 35.5039 320.748 36.8047 L320.748 41 ZM329.9648 41.2168 Q329.0918 41.2168 327.7324 40.8359 L327.7324 39.6172 Q329.1973 40.2969 330.1406 40.2969 Q330.8672 40.2969 331.3096 39.916 Q331.752 39.5352 331.752 38.9141 Q331.752 38.4043 331.4619 38.0469 Q331.1719 37.6895 330.3926 37.25 L329.7949 36.9043 Q328.6875 36.2715 328.2334 35.7119 Q327.7793 35.1523 327.7793 34.4082 Q327.7793 33.4062 328.5059 32.7588 Q329.2324 32.1113 330.3574 32.1113 Q331.3594 32.1113 332.4727 32.4453 L332.4727 33.5703 Q331.1016 33.0312 330.4277 33.0312 Q329.7891 33.0312 329.373 33.3711 Q328.957 33.7109 328.957 34.2266 Q328.957 34.6602 329.2617 34.9941 Q329.5664 35.3281 330.375 35.791 L330.9961 36.1426 Q332.1211 36.7812 332.5664 37.3496 Q333.0117 37.918 333.0117 38.7148 Q333.0117 39.8457 332.1768 40.5312 Q331.3418 41.2168 329.9648 41.2168 ZM336.6738 41.1465 Q335.7949 41.1465 335.3027 40.6426 Q334.8105 40.1387 334.8105 39.2422 L334.8105 35.5039 L334.0137 35.5039 L334.0137 34.6367 L334.8105 34.6367 L334.8105 33.4824 L335.9648 33.3711 L335.9648 34.6367 L337.6289 34.6367 L337.6289 35.5039 L335.9648 35.5039 L335.9648 39.0312 Q335.9648 40.2793 337.043 40.2793 Q337.2715 40.2793 337.5996 40.2031 L337.5996 41 Q337.0664 41.1465 336.6738 41.1465 ZM341.7422 41.1465 Q340.377 41.1465 339.5625 40.2412 Q338.748 39.3359 338.748 37.8184 Q338.748 36.2832 339.5654 35.3896 Q340.3828 34.4961 341.7832 34.4961 Q343.1836 34.4961 344.001 35.3896 Q344.8184 36.2832 344.8184 37.8066 Q344.8184 39.3652 343.998 40.2559 Q343.1777 41.1465 341.7422 41.1465 ZM341.7598 40.2793 Q343.5938 40.2793 343.5938 37.8066 Q343.5938 35.3633 341.7832 35.3633 Q339.9785 35.3633 339.9785 37.8184 Q339.9785 40.2793 341.7598 40.2793 ZM346.623 41 L346.623 34.6367 L347.7773 34.6367 L347.7773 35.832 Q348.4629 34.4961 349.7695 34.4961 Q349.9453 34.4961 350.1387 34.5254 L350.1387 35.6035 Q349.8398 35.5039 349.6113 35.5039 Q348.5156 35.5039 347.7773 36.8047 L347.7773 41 ZM356.1973 40.7949 Q355.0371 41.1465 354.2109 41.1465 Q352.8047 41.1465 351.917 40.2119 Q351.0293 39.2773 351.0293 37.7891 Q351.0293 36.3418 351.8115 35.416 Q352.5938 34.4902 353.8125 34.4902 Q354.9668 34.4902 355.5967 35.3105 Q356.2266 36.1309 356.2266 37.6426 L356.2207 38 L352.207 38 Q352.459 40.2676 354.4277 40.2676 Q355.1484 40.2676 356.1973 39.8809 ZM352.2598 37.1328 L355.0664 37.1328 Q355.0664 35.3574 353.7422 35.3574 Q352.4121 35.3574 352.2598 37.1328 ZM357.498 41.9375 L357.498 42.7344 Q358.7637 41.873 359.5049 40.3936 Q360.2461 38.9141 360.2461 37.2383 Q360.2461 35.5684 359.5049 34.0889 Q358.7637 32.6094 357.498 31.748 L357.498 32.5449 Q358.3594 33.4824 358.7256 34.5605 Q359.0918 35.6387 359.0918 37.2383 Q359.0918 38.8438 358.7256 39.9219 Q358.3594 41 357.498 41.9375 Z"
                  clip-path="url(#clipPath4)" stroke="none"/>
            <rect x="514" y="10" clip-path="url(#clipPath5)"
                  fill="rgb(201,231,183)" width="119" height="54" stroke="none"/>
            <rect fill="none" x="514" width="119" height="54" y="10"
                  clip-path="url(#clipPath5)"/>
            <path fill="none"
                  d="M616 18 L627 18 L627 29 L616 29 ZM615.8 18 L619.2 15 L630 15 L630 26 L627 29.2 M627 18 L630 15"
                  clip-path="url(#clipPath5)" fill-rule="evenodd" stroke="black"/>
            <path fill="black"
                  d="M559.1191 26 L559.1191 17.3281 L560.3496 17.3281 L560.3496 25.0801 L564.252 25.0801 L564.252 26 ZM568.043 26.1465 Q566.6777 26.1465 565.8633 25.2412 Q565.0488 24.3359 565.0488 22.8184 Q565.0488 21.2832 565.8662 20.3896 Q566.6836 19.4961 568.084 19.4961 Q569.4844 19.4961 570.3018 20.3896 Q571.1191 21.2832 571.1191 22.8066 Q571.1191 24.3652 570.2988 25.2559 Q569.4785 26.1465 568.043 26.1465 ZM568.0605 25.2793 Q569.8945 25.2793 569.8945 22.8066 Q569.8945 20.3633 568.084 20.3633 Q566.2793 20.3633 566.2793 22.8184 Q566.2793 25.2793 568.0605 25.2793 ZM575.4082 26.1465 Q574.1191 26.1465 573.2695 25.1914 Q572.4199 24.2363 572.4199 22.7832 Q572.4199 21.2305 573.2607 20.3633 Q574.1016 19.4961 575.6074 19.4961 Q576.3516 19.4961 577.2715 19.7012 L577.2715 20.668 Q576.293 20.3809 575.6777 20.3809 Q574.793 20.3809 574.2568 21.0459 Q573.7207 21.7109 573.7207 22.8184 Q573.7207 23.8906 574.2715 24.5527 Q574.8223 25.2148 575.7129 25.2148 Q576.5039 25.2148 577.3418 24.8105 L577.3418 25.8066 Q576.2227 26.1465 575.4082 26.1465 ZM582.3516 25.1914 Q581.3145 26.1465 580.3535 26.1465 Q579.5625 26.1465 579.041 25.6514 Q578.5195 25.1562 578.5195 24.4004 Q578.5195 23.3574 579.3955 22.7979 Q580.2715 22.2383 581.9062 22.2383 L582.1816 22.2383 L582.1816 21.4707 Q582.1816 20.3633 581.0449 20.3633 Q580.1309 20.3633 579.0703 20.9258 L579.0703 19.9707 Q580.2363 19.4961 581.2559 19.4961 Q582.3223 19.4961 582.8291 19.9766 Q583.3359 20.457 583.3359 21.4707 L583.3359 24.3535 Q583.3359 25.3438 583.9453 25.3438 Q584.0215 25.3438 584.168 25.3203 L584.25 25.959 Q583.8574 26.1465 583.3828 26.1465 Q582.5742 26.1465 582.3516 25.1914 ZM582.1816 24.5645 L582.1816 22.918 L581.7949 22.9062 Q580.8457 22.9062 580.2598 23.2666 Q579.6738 23.627 579.6738 24.2129 Q579.6738 24.6289 579.9668 24.916 Q580.2598 25.2031 580.6816 25.2031 Q581.4023 25.2031 582.1816 24.5645 ZM585.6973 26 L585.6973 16.748 L586.8516 16.748 L586.8516 26 Z"
                  clip-path="url(#clipPath6)" stroke="none"/>
            <path fill="black"
                  d="M544.1191 41 L544.1191 32.3281 L548.9648 32.3281 L548.9648 33.248 L545.3496 33.248 L545.3496 36.1543 L548.3848 36.1543 L548.3848 37.0625 L545.3496 37.0625 L545.3496 41 ZM550.5879 41 L550.5879 34.6367 L551.7422 34.6367 L551.7422 41 ZM550.5879 33.4824 L550.5879 32.3281 L551.7422 32.3281 L551.7422 33.4824 ZM554.0566 41 L554.0566 31.748 L555.2109 31.748 L555.2109 41 ZM562.1895 40.7949 Q561.0293 41.1465 560.2031 41.1465 Q558.7969 41.1465 557.9092 40.2119 Q557.0215 39.2773 557.0215 37.7891 Q557.0215 36.3418 557.8037 35.416 Q558.5859 34.4902 559.8047 34.4902 Q560.959 34.4902 561.5889 35.3105 Q562.2188 36.1309 562.2188 37.6426 L562.2129 38 L558.1992 38 Q558.4512 40.2676 560.4199 40.2676 Q561.1406 40.2676 562.1895 39.8809 ZM558.252 37.1328 L561.0586 37.1328 Q561.0586 35.3574 559.7344 35.3574 Q558.4043 35.3574 558.252 37.1328 ZM565.8984 41.1465 Q565.1074 41.1465 563.9766 40.7773 L563.9766 39.7168 Q565.1074 40.2793 565.9453 40.2793 Q566.4434 40.2793 566.7715 40.0098 Q567.0996 39.7402 567.0996 39.3359 Q567.0996 38.7441 566.1797 38.3574 L565.5059 38.0703 Q564.0117 37.4492 564.0117 36.2832 Q564.0117 35.4512 564.6006 34.9736 Q565.1895 34.4961 566.2148 34.4961 Q566.748 34.4961 567.5332 34.6426 L567.7734 34.6895 L567.7734 35.6504 Q566.8066 35.3633 566.2383 35.3633 Q565.125 35.3633 565.125 36.1719 Q565.125 36.6934 565.9688 37.0508 L566.5254 37.2852 Q567.4688 37.6836 567.8613 38.126 Q568.2539 38.5684 568.2539 39.2305 Q568.2539 40.0684 567.5918 40.6074 Q566.9297 41.1465 565.8984 41.1465 ZM570.6973 43.3145 L571.7285 41 L569.2676 34.6367 L570.5156 34.6367 L572.3379 39.4297 L574.2832 34.6367 L575.373 34.6367 L571.8984 43.3145 ZM578.2852 41.1465 Q577.4941 41.1465 576.3633 40.7773 L576.3633 39.7168 Q577.4941 40.2793 578.332 40.2793 Q578.8301 40.2793 579.1582 40.0098 Q579.4863 39.7402 579.4863 39.3359 Q579.4863 38.7441 578.5664 38.3574 L577.8926 38.0703 Q576.3984 37.4492 576.3984 36.2832 Q576.3984 35.4512 576.9873 34.9736 Q577.5762 34.4961 578.6016 34.4961 Q579.1348 34.4961 579.9199 34.6426 L580.1602 34.6895 L580.1602 35.6504 Q579.1934 35.3633 578.625 35.3633 Q577.5117 35.3633 577.5117 36.1719 Q577.5117 36.6934 578.3555 37.0508 L578.9121 37.2852 Q579.8555 37.6836 580.248 38.126 Q580.6406 38.5684 580.6406 39.2305 Q580.6406 40.0684 579.9785 40.6074 Q579.3164 41.1465 578.2852 41.1465 ZM584.625 41.1465 Q583.7461 41.1465 583.2539 40.6426 Q582.7617 40.1387 582.7617 39.2422 L582.7617 35.5039 L581.9648 35.5039 L581.9648 34.6367 L582.7617 34.6367 L582.7617 33.4824 L583.916 33.3711 L583.916 34.6367 L585.5801 34.6367 L585.5801 35.5039 L583.916 35.5039 L583.916 39.0312 Q583.916 40.2793 584.9941 40.2793 Q585.2227 40.2793 585.5508 40.2031 L585.5508 41 Q585.0176 41.1465 584.625 41.1465 ZM591.8672 40.7949 Q590.707 41.1465 589.8809 41.1465 Q588.4746 41.1465 587.5869 40.2119 Q586.6992 39.2773 586.6992 37.7891 Q586.6992 36.3418 587.4814 35.416 Q588.2637 34.4902 589.4824 34.4902 Q590.6367 34.4902 591.2666 35.3105 Q591.8965 36.1309 591.8965 37.6426 L591.8906 38 L587.877 38 Q588.1289 40.2676 590.0977 40.2676 Q590.8184 40.2676 591.8672 39.8809 ZM587.9297 37.1328 L590.7363 37.1328 Q590.7363 35.3574 589.4121 35.3574 Q588.082 35.3574 587.9297 37.1328 ZM593.8887 41 L593.8887 34.6367 L595.043 34.6367 L595.043 35.832 Q595.8867 34.4961 597.2109 34.4961 Q598.4883 34.4961 598.9512 35.832 Q599.7715 34.4902 601.084 34.4902 Q601.9277 34.4902 602.3906 34.9854 Q602.8535 35.4805 602.8535 36.3711 L602.8535 41 L601.6934 41 L601.6934 36.5527 Q601.6934 35.4629 600.832 35.4629 Q599.9355 35.4629 598.9512 36.7344 L598.9512 41 L597.791 41 L597.791 36.5527 Q597.791 35.457 596.9121 35.457 Q596.0391 35.457 595.043 36.7344 L595.043 41 Z"
                  clip-path="url(#clipPath6)" stroke="none"/>
            <rect x="10" y="178" clip-path="url(#clipPath7)"
                  fill="rgb(181,255,255)" width="119" height="54" stroke="none"/>
            <rect x="10" y="178" clip-path="url(#clipPath7)" fill="none"
                  width="119" height="54" stroke="rgb(126,178,178)"/>
            <path fill="none"
                  d="M115 197 L115 193 M115 191 L115 189 M115 186 L115 184 L125 184 L125 197 L114.5 197 M112 186 L118 186 L118 188.5 L112 188.5 ZM112 191 L118 191 L118 193.5 L112 193.5 Z"
                  clip-path="url(#clipPath7)" fill-rule="evenodd" stroke="black"/>
            <path fill="black"
                  d="M38.8184 194.2168 Q37.9453 194.2168 36.5859 193.8359 L36.5859 192.6172 Q38.0508 193.2969 38.9941 193.2969 Q39.7207 193.2969 40.1631 192.916 Q40.6055 192.5352 40.6055 191.9141 Q40.6055 191.4043 40.3154 191.0469 Q40.0254 190.6895 39.2461 190.25 L38.6484 189.9043 Q37.541 189.2715 37.0869 188.7119 Q36.6328 188.1523 36.6328 187.4082 Q36.6328 186.4062 37.3594 185.7588 Q38.0859 185.1113 39.2109 185.1113 Q40.2129 185.1113 41.3262 185.4453 L41.3262 186.5703 Q39.9551 186.0312 39.2812 186.0312 Q38.6426 186.0312 38.2266 186.3711 Q37.8105 186.7109 37.8105 187.2266 Q37.8105 187.6602 38.1152 187.9941 Q38.4199 188.3281 39.2285 188.791 L39.8496 189.1426 Q40.9746 189.7812 41.4199 190.3496 Q41.8652 190.918 41.8652 191.7148 Q41.8652 192.8457 41.0303 193.5312 Q40.1953 194.2168 38.8184 194.2168 ZM45.5273 194.1465 Q44.6484 194.1465 44.1562 193.6426 Q43.6641 193.1387 43.6641 192.2422 L43.6641 188.5039 L42.8672 188.5039 L42.8672 187.6367 L43.6641 187.6367 L43.6641 186.4824 L44.8184 186.3711 L44.8184 187.6367 L46.4824 187.6367 L46.4824 188.5039 L44.8184 188.5039 L44.8184 192.0312 Q44.8184 193.2793 45.8965 193.2793 Q46.125 193.2793 46.4531 193.2031 L46.4531 194 Q45.9199 194.1465 45.5273 194.1465 ZM48.1055 194 L48.1055 187.6367 L49.2598 187.6367 L49.2598 188.832 Q49.9453 187.4961 51.252 187.4961 Q51.4277 187.4961 51.6211 187.5254 L51.6211 188.6035 Q51.3223 188.5039 51.0938 188.5039 Q49.998 188.5039 49.2598 189.8047 L49.2598 194 ZM57.6797 193.7949 Q56.5195 194.1465 55.6934 194.1465 Q54.2871 194.1465 53.3994 193.2119 Q52.5117 192.2773 52.5117 190.7891 Q52.5117 189.3418 53.2939 188.416 Q54.0762 187.4902 55.2949 187.4902 Q56.4492 187.4902 57.0791 188.3105 Q57.709 189.1309 57.709 190.6426 L57.7031 191 L53.6895 191 Q53.9414 193.2676 55.9102 193.2676 Q56.6309 193.2676 57.6797 192.8809 ZM53.7422 190.1328 L56.5488 190.1328 Q56.5488 188.3574 55.2246 188.3574 Q53.8945 188.3574 53.7422 190.1328 ZM62.9824 193.1914 Q61.9453 194.1465 60.9844 194.1465 Q60.1934 194.1465 59.6719 193.6514 Q59.1504 193.1562 59.1504 192.4004 Q59.1504 191.3574 60.0264 190.7979 Q60.9023 190.2383 62.5371 190.2383 L62.8125 190.2383 L62.8125 189.4707 Q62.8125 188.3633 61.6758 188.3633 Q60.7617 188.3633 59.7012 188.9258 L59.7012 187.9707 Q60.8672 187.4961 61.8867 187.4961 Q62.9531 187.4961 63.46 187.9766 Q63.9668 188.457 63.9668 189.4707 L63.9668 192.3535 Q63.9668 193.3438 64.5762 193.3438 Q64.6523 193.3438 64.7988 193.3203 L64.8809 193.959 Q64.4883 194.1465 64.0137 194.1465 Q63.2051 194.1465 62.9824 193.1914 ZM62.8125 192.5645 L62.8125 190.918 L62.4258 190.9062 Q61.4766 190.9062 60.8906 191.2666 Q60.3047 191.627 60.3047 192.2129 Q60.3047 192.6289 60.5977 192.916 Q60.8906 193.2031 61.3125 193.2031 Q62.0332 193.2031 62.8125 192.5645 ZM66.3281 194 L66.3281 187.6367 L67.4824 187.6367 L67.4824 188.832 Q68.3262 187.4961 69.6504 187.4961 Q70.9277 187.4961 71.3906 188.832 Q72.2109 187.4902 73.5234 187.4902 Q74.3672 187.4902 74.8301 187.9854 Q75.293 188.4805 75.293 189.3711 L75.293 194 L74.1328 194 L74.1328 189.5527 Q74.1328 188.4629 73.2715 188.4629 Q72.375 188.4629 71.3906 189.7344 L71.3906 194 L70.2305 194 L70.2305 189.5527 Q70.2305 188.457 69.3516 188.457 Q68.4785 188.457 67.4824 189.7344 L67.4824 194 ZM77.5312 194 L77.5312 184.748 L78.6855 184.748 L78.6855 194 ZM81 194 L81 187.6367 L82.1543 187.6367 L82.1543 194 ZM81 186.4824 L81 185.3281 L82.1543 185.3281 L82.1543 186.4824 ZM86.3789 194.1465 Q85.5 194.1465 85.0078 193.6426 Q84.5156 193.1387 84.5156 192.2422 L84.5156 188.5039 L83.7188 188.5039 L83.7188 187.6367 L84.5156 187.6367 L84.5156 186.4824 L85.6699 186.3711 L85.6699 187.6367 L87.334 187.6367 L87.334 188.5039 L85.6699 188.5039 L85.6699 192.0312 Q85.6699 193.2793 86.748 193.2793 Q86.9766 193.2793 87.3047 193.2031 L87.3047 194 Q86.7715 194.1465 86.3789 194.1465 ZM92.6484 185.3281 L93.8789 185.3281 L93.8789 190.8008 Q93.8789 192.1074 94.3623 192.7021 Q94.8457 193.2969 95.9004 193.2969 Q96.9316 193.2969 97.3623 192.7373 Q97.793 192.1777 97.793 190.8418 L97.793 185.3281 L98.8711 185.3281 L98.8711 190.8242 Q98.8711 192.5996 98.1416 193.4082 Q97.4121 194.2168 95.8184 194.2168 Q94.1953 194.2168 93.4219 193.3789 Q92.6484 192.541 92.6484 190.7891 ZM101.0273 194 L101.0273 185.3281 L102.2578 185.3281 L102.2578 194 Z"
                  clip-path="url(#clipPath8)" stroke="none"/>
            <path fill="black"
                  d="M49.4688 209.9375 L49.4688 210.7344 Q48.2031 209.873 47.4619 208.3936 Q46.7207 206.9141 46.7207 205.2383 Q46.7207 203.5684 47.4619 202.0889 Q48.2031 200.6094 49.4688 199.748 L49.4688 200.5449 Q48.6074 201.4824 48.2412 202.5605 Q47.875 203.6387 47.875 205.2383 Q47.875 206.8438 48.2412 207.9219 Q48.6074 209 49.4688 209.9375 ZM54.3379 208.1914 Q53.3008 209.1465 52.3398 209.1465 Q51.5488 209.1465 51.0273 208.6514 Q50.5059 208.1562 50.5059 207.4004 Q50.5059 206.3574 51.3818 205.7979 Q52.2578 205.2383 53.8926 205.2383 L54.168 205.2383 L54.168 204.4707 Q54.168 203.3633 53.0312 203.3633 Q52.1172 203.3633 51.0566 203.9258 L51.0566 202.9707 Q52.2227 202.4961 53.2422 202.4961 Q54.3086 202.4961 54.8154 202.9766 Q55.3223 203.457 55.3223 204.4707 L55.3223 207.3535 Q55.3223 208.3438 55.9316 208.3438 Q56.0078 208.3438 56.1543 208.3203 L56.2363 208.959 Q55.8438 209.1465 55.3691 209.1465 Q54.5605 209.1465 54.3379 208.1914 ZM54.168 207.5645 L54.168 205.918 L53.7812 205.9062 Q52.832 205.9062 52.2461 206.2666 Q51.6602 206.627 51.6602 207.2129 Q51.6602 207.6289 51.9531 207.916 Q52.2461 208.2031 52.668 208.2031 Q53.3887 208.2031 54.168 207.5645 ZM57.6836 211.3145 L57.6836 202.6367 L58.8379 202.6367 L58.8379 203.832 Q59.5469 202.4961 60.9648 202.4961 Q62.1133 202.4961 62.7725 203.334 Q63.4316 204.1719 63.4316 205.625 Q63.4316 207.207 62.6846 208.1768 Q61.9375 209.1465 60.7188 209.1465 Q59.5879 209.1465 58.8379 208.2793 L58.8379 211.3145 ZM58.8379 207.4824 Q59.7285 208.2793 60.5371 208.2793 Q62.2012 208.2793 62.2012 205.7422 Q62.2012 203.5039 60.7246 203.5039 Q59.7578 203.5039 58.8379 204.5527 ZM65.2363 211.3145 L65.2363 202.6367 L66.3906 202.6367 L66.3906 203.832 Q67.0996 202.4961 68.5176 202.4961 Q69.666 202.4961 70.3252 203.334 Q70.9844 204.1719 70.9844 205.625 Q70.9844 207.207 70.2373 208.1768 Q69.4902 209.1465 68.2715 209.1465 Q67.1406 209.1465 66.3906 208.2793 L66.3906 211.3145 ZM66.3906 207.4824 Q67.2812 208.2793 68.0898 208.2793 Q69.7539 208.2793 69.7539 205.7422 Q69.7539 203.5039 68.2773 203.5039 Q67.3105 203.5039 66.3906 204.5527 ZM72.8066 209 L72.8066 207.5527 L74.2539 207.5527 L74.2539 209 ZM76.5859 211.3145 L76.5859 202.6367 L77.7402 202.6367 L77.7402 203.832 Q78.4492 202.4961 79.8672 202.4961 Q81.0156 202.4961 81.6748 203.334 Q82.334 204.1719 82.334 205.625 Q82.334 207.207 81.5869 208.1768 Q80.8398 209.1465 79.6211 209.1465 Q78.4902 209.1465 77.7402 208.2793 L77.7402 211.3145 ZM77.7402 207.4824 Q78.6309 208.2793 79.4395 208.2793 Q81.1035 208.2793 81.1035 205.7422 Q81.1035 203.5039 79.627 203.5039 Q78.6602 203.5039 77.7402 204.5527 ZM84.5078 211.3145 L85.5391 209 L83.0781 202.6367 L84.3262 202.6367 L86.1484 207.4297 L88.0938 202.6367 L89.1836 202.6367 L85.709 211.3145 ZM89.6875 209.9375 L89.6875 210.7344 Q90.9531 209.873 91.6943 208.3936 Q92.4355 206.9141 92.4355 205.2383 Q92.4355 203.5684 91.6943 202.0889 Q90.9531 200.6094 89.6875 199.748 L89.6875 200.5449 Q90.5488 201.4824 90.915 202.5605 Q91.2812 203.6387 91.2812 205.2383 Q91.2812 206.8438 90.915 207.9219 Q90.5488 209 89.6875 209.9375 Z"
                  clip-path="url(#clipPath8)" stroke="none"/>
            <rect x="250" y="190" clip-path="url(#clipPath9)"
                  fill="rgb(181,255,255)" width="119" height="54" stroke="none"/>
            <rect x="250" y="190" clip-path="url(#clipPath9)" fill="none"
                  width="119" height="54" stroke="rgb(126,178,178)"/>
            <path fill="none"
                  d="M355 209 L355 205 M355 203 L355 201 M355 198 L355 196 L365 196 L365 209 L354.5 209 M352 198 L358 198 L358 200.5 L352 200.5 ZM352 203 L358 203 L358 205.5 L352 205.5 Z"
                  clip-path="url(#clipPath9)" fill-rule="evenodd" stroke="black"/>
            <path fill="black"
                  d="M281.5137 202.6836 L280.0371 198.9453 L278.5547 202.6836 ZM282.8145 206 L281.8711 203.5977 L278.1973 203.5977 L277.2422 206 L276.0996 206 L279.5391 197.3281 L280.7578 197.3281 L284.1445 206 ZM285.457 208.1152 L285.5918 207.1133 Q286.5938 207.5879 287.5664 207.5879 Q289.5176 207.5879 289.5176 205.5195 L289.5176 204.5176 Q288.8789 205.8535 287.4199 205.8535 Q286.2773 205.8535 285.6035 205.0215 Q284.9297 204.1895 284.9297 202.7773 Q284.9297 201.3242 285.6973 200.4102 Q286.4648 199.4961 287.6836 199.4961 Q288.75 199.4961 289.5176 200.3633 L289.5176 199.6367 L290.6777 199.6367 L290.6777 204.2656 Q290.6777 205.7598 290.5225 206.4775 Q290.3672 207.1953 289.9395 207.6523 Q289.1836 208.4551 287.5898 208.4551 Q286.4766 208.4551 285.457 208.1152 ZM289.5176 203.7969 L289.5176 201.1543 Q288.7559 200.3633 287.8594 200.3633 Q287.0625 200.3633 286.6113 201.002 Q286.1602 201.6406 286.1602 202.7539 Q286.1602 204.8457 287.6309 204.8457 Q288.6328 204.8457 289.5176 203.7969 ZM297.5801 205.7949 Q296.4199 206.1465 295.5938 206.1465 Q294.1875 206.1465 293.2998 205.2119 Q292.4121 204.2773 292.4121 202.7891 Q292.4121 201.3418 293.1943 200.416 Q293.9766 199.4902 295.1953 199.4902 Q296.3496 199.4902 296.9795 200.3105 Q297.6094 201.1309 297.6094 202.6426 L297.6035 203 L293.5898 203 Q293.8418 205.2676 295.8105 205.2676 Q296.5312 205.2676 297.5801 204.8809 ZM293.6426 202.1328 L296.4492 202.1328 Q296.4492 200.3574 295.125 200.3574 Q293.7949 200.3574 293.6426 202.1328 ZM299.6016 206 L299.6016 199.6367 L300.7559 199.6367 L300.7559 200.832 Q301.6699 199.4961 302.9941 199.4961 Q303.8203 199.4961 304.3125 200.0205 Q304.8047 200.5449 304.8047 201.4297 L304.8047 206 L303.6504 206 L303.6504 201.8047 Q303.6504 201.0957 303.4424 200.7939 Q303.2344 200.4922 302.7539 200.4922 Q301.6934 200.4922 300.7559 201.8809 L300.7559 206 ZM308.959 206.1465 Q308.0801 206.1465 307.5879 205.6426 Q307.0957 205.1387 307.0957 204.2422 L307.0957 200.5039 L306.2988 200.5039 L306.2988 199.6367 L307.0957 199.6367 L307.0957 198.4824 L308.25 198.3711 L308.25 199.6367 L309.9141 199.6367 L309.9141 200.5039 L308.25 200.5039 L308.25 204.0312 Q308.25 205.2793 309.3281 205.2793 Q309.5566 205.2793 309.8848 205.2031 L309.8848 206 Q309.3516 206.1465 308.959 206.1465 ZM315.2988 206 L315.2988 197.3281 L316.5293 197.3281 L316.5293 205.0801 L320.4316 205.0801 L320.4316 206 ZM324.2227 206.1465 Q322.8574 206.1465 322.043 205.2412 Q321.2285 204.3359 321.2285 202.8184 Q321.2285 201.2832 322.0459 200.3896 Q322.8633 199.4961 324.2637 199.4961 Q325.6641 199.4961 326.4814 200.3896 Q327.2988 201.2832 327.2988 202.8066 Q327.2988 204.3652 326.4785 205.2559 Q325.6582 206.1465 324.2227 206.1465 ZM324.2402 205.2793 Q326.0742 205.2793 326.0742 202.8066 Q326.0742 200.3633 324.2637 200.3633 Q322.459 200.3633 322.459 202.8184 Q322.459 205.2793 324.2402 205.2793 ZM331.5938 206.1465 Q330.2285 206.1465 329.4141 205.2412 Q328.5996 204.3359 328.5996 202.8184 Q328.5996 201.2832 329.417 200.3896 Q330.2344 199.4961 331.6348 199.4961 Q333.0352 199.4961 333.8525 200.3896 Q334.6699 201.2832 334.6699 202.8066 Q334.6699 204.3652 333.8496 205.2559 Q333.0293 206.1465 331.5938 206.1465 ZM331.6113 205.2793 Q333.4453 205.2793 333.4453 202.8066 Q333.4453 200.3633 331.6348 200.3633 Q329.8301 200.3633 329.8301 202.8184 Q329.8301 205.2793 331.6113 205.2793 ZM336.4746 208.3145 L336.4746 199.6367 L337.6289 199.6367 L337.6289 200.832 Q338.3379 199.4961 339.7559 199.4961 Q340.9043 199.4961 341.5635 200.334 Q342.2227 201.1719 342.2227 202.625 Q342.2227 204.207 341.4756 205.1768 Q340.7285 206.1465 339.5098 206.1465 Q338.3789 206.1465 337.6289 205.2793 L337.6289 208.3145 ZM337.6289 204.4824 Q338.5195 205.2793 339.3281 205.2793 Q340.9922 205.2793 340.9922 202.7422 Q340.9922 200.5039 339.5156 200.5039 Q338.5488 200.5039 337.6289 201.5527 Z"
                  clip-path="url(#clipPath10)" stroke="none"/>
            <path fill="black"
                  d="M283.4688 221.9375 L283.4688 222.7344 Q282.2031 221.873 281.4619 220.3936 Q280.7207 218.9141 280.7207 217.2383 Q280.7207 215.5684 281.4619 214.0889 Q282.2031 212.6094 283.4688 211.748 L283.4688 212.5449 Q282.6074 213.4824 282.2412 214.5605 Q281.875 215.6387 281.875 217.2383 Q281.875 218.8438 282.2412 219.9219 Q282.6074 221 283.4688 221.9375 ZM288.3379 220.1914 Q287.3008 221.1465 286.3398 221.1465 Q285.5488 221.1465 285.0273 220.6514 Q284.5059 220.1562 284.5059 219.4004 Q284.5059 218.3574 285.3818 217.7979 Q286.2578 217.2383 287.8926 217.2383 L288.168 217.2383 L288.168 216.4707 Q288.168 215.3633 287.0312 215.3633 Q286.1172 215.3633 285.0566 215.9258 L285.0566 214.9707 Q286.2227 214.4961 287.2422 214.4961 Q288.3086 214.4961 288.8154 214.9766 Q289.3223 215.457 289.3223 216.4707 L289.3223 219.3535 Q289.3223 220.3438 289.9316 220.3438 Q290.0078 220.3438 290.1543 220.3203 L290.2363 220.959 Q289.8438 221.1465 289.3691 221.1465 Q288.5605 221.1465 288.3379 220.1914 ZM288.168 219.5645 L288.168 217.918 L287.7812 217.9062 Q286.832 217.9062 286.2461 218.2666 Q285.6602 218.627 285.6602 219.2129 Q285.6602 219.6289 285.9531 219.916 Q286.2461 220.2031 286.668 220.2031 Q287.3887 220.2031 288.168 219.5645 ZM291.707 223.1152 L291.8418 222.1133 Q292.8438 222.5879 293.8164 222.5879 Q295.7676 222.5879 295.7676 220.5195 L295.7676 219.5176 Q295.1289 220.8535 293.6699 220.8535 Q292.5273 220.8535 291.8535 220.0215 Q291.1797 219.1895 291.1797 217.7773 Q291.1797 216.3242 291.9473 215.4102 Q292.7148 214.4961 293.9336 214.4961 Q295 214.4961 295.7676 215.3633 L295.7676 214.6367 L296.9277 214.6367 L296.9277 219.2656 Q296.9277 220.7598 296.7725 221.4775 Q296.6172 222.1953 296.1895 222.6523 Q295.4336 223.4551 293.8398 223.4551 Q292.7266 223.4551 291.707 223.1152 ZM295.7676 218.7969 L295.7676 216.1543 Q295.0059 215.3633 294.1094 215.3633 Q293.3125 215.3633 292.8613 216.002 Q292.4102 216.6406 292.4102 217.7539 Q292.4102 219.8457 293.8809 219.8457 Q294.8828 219.8457 295.7676 218.7969 ZM303.8301 220.7949 Q302.6699 221.1465 301.8438 221.1465 Q300.4375 221.1465 299.5498 220.2119 Q298.6621 219.2773 298.6621 217.7891 Q298.6621 216.3418 299.4443 215.416 Q300.2266 214.4902 301.4453 214.4902 Q302.5996 214.4902 303.2295 215.3105 Q303.8594 216.1309 303.8594 217.6426 L303.8535 218 L299.8398 218 Q300.0918 220.2676 302.0605 220.2676 Q302.7812 220.2676 303.8301 219.8809 ZM299.8926 217.1328 L302.6992 217.1328 Q302.6992 215.3574 301.375 215.3574 Q300.0449 215.3574 299.8926 217.1328 ZM305.8516 221 L305.8516 214.6367 L307.0059 214.6367 L307.0059 215.832 Q307.9199 214.4961 309.2441 214.4961 Q310.0703 214.4961 310.5625 215.0205 Q311.0547 215.5449 311.0547 216.4297 L311.0547 221 L309.9004 221 L309.9004 216.8047 Q309.9004 216.0957 309.6924 215.7939 Q309.4844 215.4922 309.0039 215.4922 Q307.9434 215.4922 307.0059 216.8809 L307.0059 221 ZM315.209 221.1465 Q314.3301 221.1465 313.8379 220.6426 Q313.3457 220.1387 313.3457 219.2422 L313.3457 215.5039 L312.5488 215.5039 L312.5488 214.6367 L313.3457 214.6367 L313.3457 213.4824 L314.5 213.3711 L314.5 214.6367 L316.1641 214.6367 L316.1641 215.5039 L314.5 215.5039 L314.5 219.0312 Q314.5 220.2793 315.5781 220.2793 Q315.8066 220.2793 316.1348 220.2031 L316.1348 221 Q315.6016 221.1465 315.209 221.1465 ZM317.8047 221 L317.8047 219.5527 L319.252 219.5527 L319.252 221 ZM321.584 223.3145 L321.584 214.6367 L322.7383 214.6367 L322.7383 215.832 Q323.4473 214.4961 324.8652 214.4961 Q326.0137 214.4961 326.6729 215.334 Q327.332 216.1719 327.332 217.625 Q327.332 219.207 326.585 220.1768 Q325.8379 221.1465 324.6191 221.1465 Q323.4883 221.1465 322.7383 220.2793 L322.7383 223.3145 ZM322.7383 219.4824 Q323.6289 220.2793 324.4375 220.2793 Q326.1016 220.2793 326.1016 217.7422 Q326.1016 215.5039 324.625 215.5039 Q323.6582 215.5039 322.7383 216.5527 ZM329.5059 223.3145 L330.5371 221 L328.0762 214.6367 L329.3242 214.6367 L331.1465 219.4297 L333.0918 214.6367 L334.1816 214.6367 L330.707 223.3145 ZM334.6855 221.9375 L334.6855 222.7344 Q335.9512 221.873 336.6924 220.3936 Q337.4336 218.9141 337.4336 217.2383 Q337.4336 215.5684 336.6924 214.0889 Q335.9512 212.6094 334.6855 211.748 L334.6855 212.5449 Q335.5469 213.4824 335.9131 214.5605 Q336.2793 215.6387 336.2793 217.2383 Q336.2793 218.8438 335.9131 219.9219 Q335.5469 221 334.6855 221.9375 Z"
                  clip-path="url(#clipPath10)" stroke="none"/>
            <rect x="478" y="190" clip-path="url(#clipPath11)"
                  fill="rgb(181,255,255)" width="119" height="54" stroke="none"/>
            <rect x="478" y="190" clip-path="url(#clipPath11)" fill="none"
                  width="119" height="54" stroke="rgb(126,178,178)"/>
            <path fill="none"
                  d="M583 209 L583 205 M583 203 L583 201 M583 198 L583 196 L593 196 L593 209 L582.5 209 M580 198 L586 198 L586 200.5 L580 200.5 ZM580 203 L586 203 L586 205.5 L580 205.5 Z"
                  clip-path="url(#clipPath11)" fill-rule="evenodd"
                  stroke="black"/>
            <path fill="black"
                  d="M512.1133 206 L512.1133 197.3281 L513.3438 197.3281 L513.3438 206 ZM515.6113 206 L515.6113 199.6367 L516.7656 199.6367 L516.7656 200.832 Q517.6797 199.4961 519.0039 199.4961 Q519.8301 199.4961 520.3223 200.0205 Q520.8145 200.5449 520.8145 201.4297 L520.8145 206 L519.6602 206 L519.6602 201.8047 Q519.6602 201.0957 519.4521 200.7939 Q519.2441 200.4922 518.7637 200.4922 Q517.7031 200.4922 516.7656 201.8809 L516.7656 206 ZM523.082 208.1152 L523.2168 207.1133 Q524.2188 207.5879 525.1914 207.5879 Q527.1426 207.5879 527.1426 205.5195 L527.1426 204.5176 Q526.5039 205.8535 525.0449 205.8535 Q523.9023 205.8535 523.2285 205.0215 Q522.5547 204.1895 522.5547 202.7773 Q522.5547 201.3242 523.3223 200.4102 Q524.0898 199.4961 525.3086 199.4961 Q526.375 199.4961 527.1426 200.3633 L527.1426 199.6367 L528.3027 199.6367 L528.3027 204.2656 Q528.3027 205.7598 528.1475 206.4775 Q527.9922 207.1953 527.5645 207.6523 Q526.8086 208.4551 525.2148 208.4551 Q524.1016 208.4551 523.082 208.1152 ZM527.1426 203.7969 L527.1426 201.1543 Q526.3809 200.3633 525.4844 200.3633 Q524.6875 200.3633 524.2363 201.002 Q523.7852 201.6406 523.7852 202.7539 Q523.7852 204.8457 525.2559 204.8457 Q526.2578 204.8457 527.1426 203.7969 ZM535.2051 205.7949 Q534.0449 206.1465 533.2188 206.1465 Q531.8125 206.1465 530.9248 205.2119 Q530.0371 204.2773 530.0371 202.7891 Q530.0371 201.3418 530.8193 200.416 Q531.6016 199.4902 532.8203 199.4902 Q533.9746 199.4902 534.6045 200.3105 Q535.2344 201.1309 535.2344 202.6426 L535.2285 203 L531.2148 203 Q531.4668 205.2676 533.4355 205.2676 Q534.1562 205.2676 535.2051 204.8809 ZM531.2676 202.1328 L534.0742 202.1328 Q534.0742 200.3574 532.75 200.3574 Q531.4199 200.3574 531.2676 202.1328 ZM538.9141 206.1465 Q538.123 206.1465 536.9922 205.7773 L536.9922 204.7168 Q538.123 205.2793 538.9609 205.2793 Q539.459 205.2793 539.7871 205.0098 Q540.1152 204.7402 540.1152 204.3359 Q540.1152 203.7441 539.1953 203.3574 L538.5215 203.0703 Q537.0273 202.4492 537.0273 201.2832 Q537.0273 200.4512 537.6162 199.9736 Q538.2051 199.4961 539.2305 199.4961 Q539.7637 199.4961 540.5488 199.6426 L540.7891 199.6895 L540.7891 200.6504 Q539.8223 200.3633 539.2539 200.3633 Q538.1406 200.3633 538.1406 201.1719 Q538.1406 201.6934 538.9844 202.0508 L539.541 202.2852 Q540.4844 202.6836 540.877 203.126 Q541.2695 203.5684 541.2695 204.2305 Q541.2695 205.0684 540.6074 205.6074 Q539.9453 206.1465 538.9141 206.1465 ZM545.2539 206.1465 Q544.375 206.1465 543.8828 205.6426 Q543.3906 205.1387 543.3906 204.2422 L543.3906 200.5039 L542.5938 200.5039 L542.5938 199.6367 L543.3906 199.6367 L543.3906 198.4824 L544.5449 198.3711 L544.5449 199.6367 L546.209 199.6367 L546.209 200.5039 L544.5449 200.5039 L544.5449 204.0312 Q544.5449 205.2793 545.623 205.2793 Q545.8516 205.2793 546.1797 205.2031 L546.1797 206 Q545.6465 206.1465 545.2539 206.1465 ZM547.832 206 L547.832 199.6367 L548.9863 199.6367 L548.9863 206 ZM547.832 198.4824 L547.832 197.3281 L548.9863 197.3281 L548.9863 198.4824 ZM553.791 206.1465 Q552.4258 206.1465 551.6113 205.2412 Q550.7969 204.3359 550.7969 202.8184 Q550.7969 201.2832 551.6143 200.3896 Q552.4316 199.4961 553.832 199.4961 Q555.2324 199.4961 556.0498 200.3896 Q556.8672 201.2832 556.8672 202.8066 Q556.8672 204.3652 556.0469 205.2559 Q555.2266 206.1465 553.791 206.1465 ZM553.8086 205.2793 Q555.6426 205.2793 555.6426 202.8066 Q555.6426 200.3633 553.832 200.3633 Q552.0273 200.3633 552.0273 202.8184 Q552.0273 205.2793 553.8086 205.2793 ZM558.6719 206 L558.6719 199.6367 L559.8262 199.6367 L559.8262 200.832 Q560.7402 199.4961 562.0645 199.4961 Q562.8906 199.4961 563.3828 200.0205 Q563.875 200.5449 563.875 201.4297 L563.875 206 L562.7207 206 L562.7207 201.8047 Q562.7207 201.0957 562.5127 200.7939 Q562.3047 200.4922 561.8242 200.4922 Q560.7637 200.4922 559.8262 201.8809 L559.8262 206 Z"
                  clip-path="url(#clipPath12)" stroke="none"/>
            <path fill="black"
                  d="M516.1191 221 L516.1191 212.3281 L518.4805 212.3281 Q520.0508 212.3281 520.7363 212.8584 Q521.4219 213.3887 521.4219 214.6016 Q521.4219 215.9844 520.4844 216.7695 Q519.5469 217.5547 517.8828 217.5547 L517.3379 217.5547 L517.3379 221 ZM517.3379 216.623 L517.8359 216.623 Q518.9316 216.623 519.5293 216.1191 Q520.127 215.6152 520.127 214.6953 Q520.127 213.916 519.6582 213.582 Q519.1895 213.248 518.0938 213.248 L517.3379 213.248 ZM522.7871 221 L522.7871 214.6367 L523.9414 214.6367 L523.9414 221 ZM522.7871 213.4824 L522.7871 212.3281 L523.9414 212.3281 L523.9414 213.4824 ZM526.2559 223.3145 L526.2559 214.6367 L527.4102 214.6367 L527.4102 215.832 Q528.1191 214.4961 529.5371 214.4961 Q530.6855 214.4961 531.3447 215.334 Q532.0039 216.1719 532.0039 217.625 Q532.0039 219.207 531.2568 220.1768 Q530.5098 221.1465 529.291 221.1465 Q528.1602 221.1465 527.4102 220.2793 L527.4102 223.3145 ZM527.4102 219.4824 Q528.3008 220.2793 529.1094 220.2793 Q530.7734 220.2793 530.7734 217.7422 Q530.7734 215.5039 529.2969 215.5039 Q528.3301 215.5039 527.4102 216.5527 ZM538.4727 220.7949 Q537.3125 221.1465 536.4863 221.1465 Q535.0801 221.1465 534.1924 220.2119 Q533.3047 219.2773 533.3047 217.7891 Q533.3047 216.3418 534.0869 215.416 Q534.8691 214.4902 536.0879 214.4902 Q537.2422 214.4902 537.8721 215.3105 Q538.502 216.1309 538.502 217.6426 L538.4961 218 L534.4824 218 Q534.7344 220.2676 536.7031 220.2676 Q537.4238 220.2676 538.4727 219.8809 ZM534.5352 217.1328 L537.3418 217.1328 Q537.3418 215.3574 536.0176 215.3574 Q534.6875 215.3574 534.5352 217.1328 ZM540.4941 221 L540.4941 211.748 L541.6484 211.748 L541.6484 221 ZM543.9629 221 L543.9629 214.6367 L545.1172 214.6367 L545.1172 221 ZM543.9629 213.4824 L543.9629 212.3281 L545.1172 212.3281 L545.1172 213.4824 ZM547.4316 221 L547.4316 214.6367 L548.5859 214.6367 L548.5859 215.832 Q549.5 214.4961 550.8242 214.4961 Q551.6504 214.4961 552.1426 215.0205 Q552.6348 215.5449 552.6348 216.4297 L552.6348 221 L551.4805 221 L551.4805 216.8047 Q551.4805 216.0957 551.2725 215.7939 Q551.0645 215.4922 550.584 215.4922 Q549.5234 215.4922 548.5859 216.8809 L548.5859 221 ZM559.543 220.7949 Q558.3828 221.1465 557.5566 221.1465 Q556.1504 221.1465 555.2627 220.2119 Q554.375 219.2773 554.375 217.7891 Q554.375 216.3418 555.1572 215.416 Q555.9395 214.4902 557.1582 214.4902 Q558.3125 214.4902 558.9424 215.3105 Q559.5723 216.1309 559.5723 217.6426 L559.5664 218 L555.5527 218 Q555.8047 220.2676 557.7734 220.2676 Q558.4941 220.2676 559.543 219.8809 ZM555.6055 217.1328 L558.4121 217.1328 Q558.4121 215.3574 557.0879 215.3574 Q555.7578 215.3574 555.6055 217.1328 Z"
                  clip-path="url(#clipPath12)" stroke="none"/>
            <path fill="black"
                  d="M510.4688 236.9375 L510.4688 237.7344 Q509.2031 236.873 508.4619 235.3936 Q507.7207 233.9141 507.7207 232.2383 Q507.7207 230.5684 508.4619 229.0889 Q509.2031 227.6094 510.4688 226.748 L510.4688 227.5449 Q509.6074 228.4824 509.2412 229.5605 Q508.875 230.6387 508.875 232.2383 Q508.875 233.8438 509.2412 234.9219 Q509.6074 236 510.4688 236.9375 ZM512.0566 236 L512.0566 229.6367 L513.2109 229.6367 L513.2109 236 ZM512.0566 228.4824 L512.0566 227.3281 L513.2109 227.3281 L513.2109 228.4824 ZM515.5254 236 L515.5254 229.6367 L516.6797 229.6367 L516.6797 230.832 Q517.5938 229.4961 518.918 229.4961 Q519.7441 229.4961 520.2363 230.0205 Q520.7285 230.5449 520.7285 231.4297 L520.7285 236 L519.5742 236 L519.5742 231.8047 Q519.5742 231.0957 519.3662 230.7939 Q519.1582 230.4922 518.6777 230.4922 Q517.6172 230.4922 516.6797 231.8809 L516.6797 236 ZM522.9961 238.1152 L523.1309 237.1133 Q524.1328 237.5879 525.1055 237.5879 Q527.0566 237.5879 527.0566 235.5195 L527.0566 234.5176 Q526.418 235.8535 524.959 235.8535 Q523.8164 235.8535 523.1426 235.0215 Q522.4688 234.1895 522.4688 232.7773 Q522.4688 231.3242 523.2363 230.4102 Q524.0039 229.4961 525.2227 229.4961 Q526.2891 229.4961 527.0566 230.3633 L527.0566 229.6367 L528.2168 229.6367 L528.2168 234.2656 Q528.2168 235.7598 528.0615 236.4775 Q527.9062 237.1953 527.4785 237.6523 Q526.7227 238.4551 525.1289 238.4551 Q524.0156 238.4551 522.9961 238.1152 ZM527.0566 233.7969 L527.0566 231.1543 Q526.2949 230.3633 525.3984 230.3633 Q524.6016 230.3633 524.1504 231.002 Q523.6992 231.6406 523.6992 232.7539 Q523.6992 234.8457 525.1699 234.8457 Q526.1719 234.8457 527.0566 233.7969 ZM535.1191 235.7949 Q533.959 236.1465 533.1328 236.1465 Q531.7266 236.1465 530.8389 235.2119 Q529.9512 234.2773 529.9512 232.7891 Q529.9512 231.3418 530.7334 230.416 Q531.5156 229.4902 532.7344 229.4902 Q533.8887 229.4902 534.5186 230.3105 Q535.1484 231.1309 535.1484 232.6426 L535.1426 233 L531.1289 233 Q531.3809 235.2676 533.3496 235.2676 Q534.0703 235.2676 535.1191 234.8809 ZM531.1816 232.1328 L533.9883 232.1328 Q533.9883 230.3574 532.6641 230.3574 Q531.334 230.3574 531.1816 232.1328 ZM538.8281 236.1465 Q538.0371 236.1465 536.9062 235.7773 L536.9062 234.7168 Q538.0371 235.2793 538.875 235.2793 Q539.373 235.2793 539.7012 235.0098 Q540.0293 234.7402 540.0293 234.3359 Q540.0293 233.7441 539.1094 233.3574 L538.4355 233.0703 Q536.9414 232.4492 536.9414 231.2832 Q536.9414 230.4512 537.5303 229.9736 Q538.1191 229.4961 539.1445 229.4961 Q539.6777 229.4961 540.4629 229.6426 L540.7031 229.6895 L540.7031 230.6504 Q539.7363 230.3633 539.168 230.3633 Q538.0547 230.3633 538.0547 231.1719 Q538.0547 231.6934 538.8984 232.0508 L539.4551 232.2852 Q540.3984 232.6836 540.791 233.126 Q541.1836 233.5684 541.1836 234.2305 Q541.1836 235.0684 540.5215 235.6074 Q539.8594 236.1465 538.8281 236.1465 ZM545.168 236.1465 Q544.2891 236.1465 543.7969 235.6426 Q543.3047 235.1387 543.3047 234.2422 L543.3047 230.5039 L542.5078 230.5039 L542.5078 229.6367 L543.3047 229.6367 L543.3047 228.4824 L544.459 228.3711 L544.459 229.6367 L546.123 229.6367 L546.123 230.5039 L544.459 230.5039 L544.459 234.0312 Q544.459 235.2793 545.5371 235.2793 Q545.7656 235.2793 546.0938 235.2031 L546.0938 236 Q545.5605 236.1465 545.168 236.1465 ZM547.7637 236 L547.7637 234.5527 L549.2109 234.5527 L549.2109 236 ZM551.543 238.3145 L551.543 229.6367 L552.6973 229.6367 L552.6973 230.832 Q553.4062 229.4961 554.8242 229.4961 Q555.9727 229.4961 556.6318 230.334 Q557.291 231.1719 557.291 232.625 Q557.291 234.207 556.5439 235.1768 Q555.7969 236.1465 554.5781 236.1465 Q553.4473 236.1465 552.6973 235.2793 L552.6973 238.3145 ZM552.6973 234.4824 Q553.5879 235.2793 554.3965 235.2793 Q556.0605 235.2793 556.0605 232.7422 Q556.0605 230.5039 554.584 230.5039 Q553.6172 230.5039 552.6973 231.5527 ZM559.4648 238.3145 L560.4961 236 L558.0352 229.6367 L559.2832 229.6367 L561.1055 234.4297 L563.0508 229.6367 L564.1406 229.6367 L560.666 238.3145 ZM564.6445 236.9375 L564.6445 237.7344 Q565.9102 236.873 566.6514 235.3936 Q567.3926 233.9141 567.3926 232.2383 Q567.3926 230.5684 566.6514 229.0889 Q565.9102 227.6094 564.6445 226.748 L564.6445 227.5449 Q565.5059 228.4824 565.8721 229.5605 Q566.2383 230.6387 566.2383 232.2383 Q566.2383 233.8438 565.8721 234.9219 Q565.5059 236 564.6445 236.9375 Z"
                  clip-path="url(#clipPath12)" stroke="none"/>
            <rect x="718" y="190" clip-path="url(#clipPath13)"
                  fill="rgb(181,255,255)" width="119" height="54" stroke="none"/>
            <rect x="718" y="190" clip-path="url(#clipPath13)" fill="none"
                  width="119" height="54" stroke="rgb(126,178,178)"/>
            <path fill="none"
                  d="M823 209 L823 205 M823 203 L823 201 M823 198 L823 196 L833 196 L833 209 L822.5 209 M820 198 L826 198 L826 200.5 L820 200.5 ZM820 203 L826 203 L826 205.5 L820 205.5 Z"
                  clip-path="url(#clipPath13)" fill-rule="evenodd"
                  stroke="black"/>
            <path fill="black"
                  d="M768.1816 206 L768.1816 198.248 L765.1055 198.248 L765.1055 197.3281 L772.4883 197.3281 L772.4883 198.248 L769.4121 198.248 L769.4121 206 ZM776.2324 206.1465 Q774.8672 206.1465 774.0527 205.2412 Q773.2383 204.3359 773.2383 202.8184 Q773.2383 201.2832 774.0557 200.3896 Q774.873 199.4961 776.2734 199.4961 Q777.6738 199.4961 778.4912 200.3896 Q779.3086 201.2832 779.3086 202.8066 Q779.3086 204.3652 778.4883 205.2559 Q777.668 206.1465 776.2324 206.1465 ZM776.25 205.2793 Q778.084 205.2793 778.084 202.8066 Q778.084 200.3633 776.2734 200.3633 Q774.4688 200.3633 774.4688 202.8184 Q774.4688 205.2793 776.25 205.2793 ZM783.6035 206.1465 Q782.2383 206.1465 781.4238 205.2412 Q780.6094 204.3359 780.6094 202.8184 Q780.6094 201.2832 781.4268 200.3896 Q782.2441 199.4961 783.6445 199.4961 Q785.0449 199.4961 785.8623 200.3896 Q786.6797 201.2832 786.6797 202.8066 Q786.6797 204.3652 785.8594 205.2559 Q785.0391 206.1465 783.6035 206.1465 ZM783.6211 205.2793 Q785.4551 205.2793 785.4551 202.8066 Q785.4551 200.3633 783.6445 200.3633 Q781.8398 200.3633 781.8398 202.8184 Q781.8398 205.2793 783.6211 205.2793 ZM788.4844 206 L788.4844 196.748 L789.6387 196.748 L789.6387 206 Z"
                  clip-path="url(#clipPath14)" stroke="none"/>
            <path fill="black"
                  d="M747.1191 221 L747.1191 212.3281 L750.002 212.3281 Q751.291 212.3281 752.085 212.6152 Q752.8789 212.9023 753.459 213.5879 Q754.3789 214.6777 754.3789 216.459 Q754.3789 218.6211 753.2363 219.8105 Q752.0938 221 750.0195 221 ZM748.3496 220.0801 L749.9258 220.0801 Q751.6133 220.0801 752.3164 219.1719 Q753.0723 218.2051 753.0723 216.5762 Q753.0723 215.0469 752.3281 214.1738 Q751.877 213.6406 751.25 213.4443 Q750.623 213.248 749.3633 213.248 L748.3496 213.248 ZM760.8066 220.7949 Q759.6465 221.1465 758.8203 221.1465 Q757.4141 221.1465 756.5264 220.2119 Q755.6387 219.2773 755.6387 217.7891 Q755.6387 216.3418 756.4209 215.416 Q757.2031 214.4902 758.4219 214.4902 Q759.5762 214.4902 760.2061 215.3105 Q760.8359 216.1309 760.8359 217.6426 L760.8301 218 L756.8164 218 Q757.0684 220.2676 759.0371 220.2676 Q759.7578 220.2676 760.8066 219.8809 ZM756.8691 217.1328 L759.6758 217.1328 Q759.6758 215.3574 758.3516 215.3574 Q757.0215 215.3574 756.8691 217.1328 ZM764.2051 215.5039 L764.2051 221 L763.0449 221 L763.0449 215.5039 L762.1426 215.5039 L762.1426 214.6367 L763.0449 214.6367 L763.0449 213.875 Q763.0449 211.6016 765.1191 211.6016 Q765.6992 211.6016 766.4375 211.7949 L766.4375 212.709 Q765.6582 212.4688 765.1895 212.4688 Q764.6211 212.4688 764.4131 212.7412 Q764.2051 213.0137 764.2051 213.752 L764.2051 214.6367 L765.793 214.6367 L765.793 215.5039 ZM767.2402 221 L767.2402 214.6367 L768.3945 214.6367 L768.3945 221 ZM767.2402 213.4824 L767.2402 212.3281 L768.3945 212.3281 L768.3945 213.4824 ZM770.709 221 L770.709 214.6367 L771.8633 214.6367 L771.8633 215.832 Q772.7773 214.4961 774.1016 214.4961 Q774.9277 214.4961 775.4199 215.0205 Q775.9121 215.5449 775.9121 216.4297 L775.9121 221 L774.7578 221 L774.7578 216.8047 Q774.7578 216.0957 774.5498 215.7939 Q774.3418 215.4922 773.8613 215.4922 Q772.8008 215.4922 771.8633 216.8809 L771.8633 221 ZM778.1562 221 L778.1562 214.6367 L779.3105 214.6367 L779.3105 221 ZM778.1562 213.4824 L778.1562 212.3281 L779.3105 212.3281 L779.3105 213.4824 ZM783.5352 221.1465 Q782.6562 221.1465 782.1641 220.6426 Q781.6719 220.1387 781.6719 219.2422 L781.6719 215.5039 L780.875 215.5039 L780.875 214.6367 L781.6719 214.6367 L781.6719 213.4824 L782.8262 213.3711 L782.8262 214.6367 L784.4902 214.6367 L784.4902 215.5039 L782.8262 215.5039 L782.8262 219.0312 Q782.8262 220.2793 783.9043 220.2793 Q784.1328 220.2793 784.4609 220.2031 L784.4609 221 Q783.9277 221.1465 783.5352 221.1465 ZM786.1133 221 L786.1133 214.6367 L787.2676 214.6367 L787.2676 221 ZM786.1133 213.4824 L786.1133 212.3281 L787.2676 212.3281 L787.2676 213.4824 ZM792.0723 221.1465 Q790.707 221.1465 789.8926 220.2412 Q789.0781 219.3359 789.0781 217.8184 Q789.0781 216.2832 789.8955 215.3896 Q790.7129 214.4961 792.1133 214.4961 Q793.5137 214.4961 794.3311 215.3896 Q795.1484 216.2832 795.1484 217.8066 Q795.1484 219.3652 794.3281 220.2559 Q793.5078 221.1465 792.0723 221.1465 ZM792.0898 220.2793 Q793.9238 220.2793 793.9238 217.8066 Q793.9238 215.3633 792.1133 215.3633 Q790.3086 215.3633 790.3086 217.8184 Q790.3086 220.2793 792.0898 220.2793 ZM796.9531 221 L796.9531 214.6367 L798.1074 214.6367 L798.1074 215.832 Q799.0215 214.4961 800.3457 214.4961 Q801.1719 214.4961 801.6641 215.0205 Q802.1562 215.5449 802.1562 216.4297 L802.1562 221 L801.002 221 L801.002 216.8047 Q801.002 216.0957 800.7939 215.7939 Q800.5859 215.4922 800.1055 215.4922 Q799.0449 215.4922 798.1074 216.8809 L798.1074 221 ZM806.0879 221.1465 Q805.2969 221.1465 804.166 220.7773 L804.166 219.7168 Q805.2969 220.2793 806.1348 220.2793 Q806.6328 220.2793 806.9609 220.0098 Q807.2891 219.7402 807.2891 219.3359 Q807.2891 218.7441 806.3691 218.3574 L805.6953 218.0703 Q804.2012 217.4492 804.2012 216.2832 Q804.2012 215.4512 804.79 214.9736 Q805.3789 214.4961 806.4043 214.4961 Q806.9375 214.4961 807.7227 214.6426 L807.9629 214.6895 L807.9629 215.6504 Q806.9961 215.3633 806.4277 215.3633 Q805.3145 215.3633 805.3145 216.1719 Q805.3145 216.6934 806.1582 217.0508 L806.7148 217.2852 Q807.6582 217.6836 808.0508 218.126 Q808.4434 218.5684 808.4434 219.2305 Q808.4434 220.0684 807.7812 220.6074 Q807.1191 221.1465 806.0879 221.1465 Z"
                  clip-path="url(#clipPath14)" stroke="none"/>
            <path fill="black"
                  d="M753.4688 236.9375 L753.4688 237.7344 Q752.2031 236.873 751.4619 235.3936 Q750.7207 233.9141 750.7207 232.2383 Q750.7207 230.5684 751.4619 229.0889 Q752.2031 227.6094 753.4688 226.748 L753.4688 227.5449 Q752.6074 228.4824 752.2412 229.5605 Q751.875 230.6387 751.875 232.2383 Q751.875 233.8438 752.2412 234.9219 Q752.6074 236 753.4688 236.9375 ZM756.9668 236.1465 Q756.0879 236.1465 755.5957 235.6426 Q755.1035 235.1387 755.1035 234.2422 L755.1035 230.5039 L754.3066 230.5039 L754.3066 229.6367 L755.1035 229.6367 L755.1035 228.4824 L756.2578 228.3711 L756.2578 229.6367 L757.9219 229.6367 L757.9219 230.5039 L756.2578 230.5039 L756.2578 234.0312 Q756.2578 235.2793 757.3359 235.2793 Q757.5645 235.2793 757.8926 235.2031 L757.8926 236 Q757.3594 236.1465 756.9668 236.1465 ZM762.0352 236.1465 Q760.6699 236.1465 759.8555 235.2412 Q759.041 234.3359 759.041 232.8184 Q759.041 231.2832 759.8584 230.3896 Q760.6758 229.4961 762.0762 229.4961 Q763.4766 229.4961 764.2939 230.3896 Q765.1113 231.2832 765.1113 232.8066 Q765.1113 234.3652 764.291 235.2559 Q763.4707 236.1465 762.0352 236.1465 ZM762.0527 235.2793 Q763.8867 235.2793 763.8867 232.8066 Q763.8867 230.3633 762.0762 230.3633 Q760.2715 230.3633 760.2715 232.8184 Q760.2715 235.2793 762.0527 235.2793 ZM769.4062 236.1465 Q768.041 236.1465 767.2266 235.2412 Q766.4121 234.3359 766.4121 232.8184 Q766.4121 231.2832 767.2295 230.3896 Q768.0469 229.4961 769.4473 229.4961 Q770.8477 229.4961 771.665 230.3896 Q772.4824 231.2832 772.4824 232.8066 Q772.4824 234.3652 771.6621 235.2559 Q770.8418 236.1465 769.4062 236.1465 ZM769.4238 235.2793 Q771.2578 235.2793 771.2578 232.8066 Q771.2578 230.3633 769.4473 230.3633 Q767.6426 230.3633 767.6426 232.8184 Q767.6426 235.2793 769.4238 235.2793 ZM774.2871 236 L774.2871 226.748 L775.4414 226.748 L775.4414 236 ZM779.4434 236.1465 Q778.6523 236.1465 777.5215 235.7773 L777.5215 234.7168 Q778.6523 235.2793 779.4902 235.2793 Q779.9883 235.2793 780.3164 235.0098 Q780.6445 234.7402 780.6445 234.3359 Q780.6445 233.7441 779.7246 233.3574 L779.0508 233.0703 Q777.5566 232.4492 777.5566 231.2832 Q777.5566 230.4512 778.1455 229.9736 Q778.7344 229.4961 779.7598 229.4961 Q780.293 229.4961 781.0781 229.6426 L781.3184 229.6895 L781.3184 230.6504 Q780.3516 230.3633 779.7832 230.3633 Q778.6699 230.3633 778.6699 231.1719 Q778.6699 231.6934 779.5137 232.0508 L780.0703 232.2852 Q781.0137 232.6836 781.4062 233.126 Q781.7988 233.5684 781.7988 234.2305 Q781.7988 235.0684 781.1367 235.6074 Q780.4746 236.1465 779.4434 236.1465 ZM783.8906 236 L783.8906 234.5527 L785.3379 234.5527 L785.3379 236 ZM787.6699 238.3145 L787.6699 229.6367 L788.8242 229.6367 L788.8242 230.832 Q789.5332 229.4961 790.9512 229.4961 Q792.0996 229.4961 792.7588 230.334 Q793.418 231.1719 793.418 232.625 Q793.418 234.207 792.6709 235.1768 Q791.9238 236.1465 790.7051 236.1465 Q789.5742 236.1465 788.8242 235.2793 L788.8242 238.3145 ZM788.8242 234.4824 Q789.7148 235.2793 790.5234 235.2793 Q792.1875 235.2793 792.1875 232.7422 Q792.1875 230.5039 790.7109 230.5039 Q789.7441 230.5039 788.8242 231.5527 ZM795.5918 238.3145 L796.623 236 L794.1621 229.6367 L795.4102 229.6367 L797.2324 234.4297 L799.1777 229.6367 L800.2676 229.6367 L796.793 238.3145 ZM800.7715 236.9375 L800.7715 237.7344 Q802.0371 236.873 802.7783 235.3936 Q803.5195 233.9141 803.5195 232.2383 Q803.5195 230.5684 802.7783 229.0889 Q802.0371 227.6094 800.7715 226.748 L800.7715 227.5449 Q801.6328 228.4824 801.999 229.5605 Q802.3652 230.6387 802.3652 232.2383 Q802.3652 233.8438 801.999 234.9219 Q801.6328 236 800.7715 236.9375 Z"
                  clip-path="url(#clipPath14)" stroke="none"/>
            <rect x="310" y="298" clip-path="url(#clipPath15)"
                  fill="rgb(201,231,183)" width="119" rx="10" ry="10"
                  height="54" stroke="none"/>
            <rect x="310" y="298" clip-path="url(#clipPath15)" fill="none"
                  width="119" rx="10" ry="10" height="54"/>
            <rect x="409" y="305" clip-path="url(#clipPath15)" fill="none"
                  width="16" rx="4" ry="4" height="9" stroke="black"/>
            <path fill="black"
                  d="M347.1191 314 L347.1191 305.3281 L348.3496 305.3281 L348.3496 308.9844 L352.4746 308.9844 L352.4746 305.3281 L353.7051 305.3281 L353.7051 314 L352.4746 314 L352.4746 309.9043 L348.3496 309.9043 L348.3496 314 ZM358 314 L358 306.248 L354.9238 306.248 L354.9238 305.3281 L362.3066 305.3281 L362.3066 306.248 L359.2305 306.248 L359.2305 314 ZM365.5879 314 L365.5879 306.248 L362.5117 306.248 L362.5117 305.3281 L369.8945 305.3281 L369.8945 306.248 L366.8184 306.248 L366.8184 314 ZM371.1133 314 L371.1133 305.3281 L373.4746 305.3281 Q375.0449 305.3281 375.7305 305.8584 Q376.416 306.3887 376.416 307.6016 Q376.416 308.9844 375.4785 309.7695 Q374.541 310.5547 372.877 310.5547 L372.332 310.5547 L372.332 314 ZM372.332 309.623 L372.8301 309.623 Q373.9258 309.623 374.5234 309.1191 Q375.1211 308.6152 375.1211 307.6953 Q375.1211 306.916 374.6523 306.582 Q374.1836 306.248 373.0879 306.248 L372.332 306.248 ZM379.4453 314.2168 Q378.5723 314.2168 377.2129 313.8359 L377.2129 312.6172 Q378.6777 313.2969 379.6211 313.2969 Q380.3477 313.2969 380.79 312.916 Q381.2324 312.5352 381.2324 311.9141 Q381.2324 311.4043 380.9424 311.0469 Q380.6523 310.6895 379.873 310.25 L379.2754 309.9043 Q378.168 309.2715 377.7139 308.7119 Q377.2598 308.1523 377.2598 307.4082 Q377.2598 306.4062 377.9863 305.7588 Q378.7129 305.1113 379.8379 305.1113 Q380.8398 305.1113 381.9531 305.4453 L381.9531 306.5703 Q380.582 306.0312 379.9082 306.0312 Q379.2695 306.0312 378.8535 306.3711 Q378.4375 306.7109 378.4375 307.2266 Q378.4375 307.6602 378.7422 307.9941 Q379.0469 308.3281 379.8555 308.791 L380.4766 309.1426 Q381.6016 309.7812 382.0469 310.3496 Q382.4922 310.918 382.4922 311.7148 Q382.4922 312.8457 381.6572 313.5312 Q380.8223 314.2168 379.4453 314.2168 ZM388.0176 315.7344 L391.1406 305.3281 L392.0488 305.3281 L388.9258 315.7344 Z"
                  clip-path="url(#clipPath16)" stroke="none"/>
            <path fill="black"
                  d="M346.1191 329 L346.1191 320.3281 L347.3262 320.3281 L351.6914 327.0254 L351.6914 320.3281 L352.7461 320.3281 L352.7461 329 L351.5449 329 L347.1738 322.3027 L347.1738 329 ZM359.6836 328.7949 Q358.5234 329.1465 357.6973 329.1465 Q356.291 329.1465 355.4033 328.2119 Q354.5156 327.2773 354.5156 325.7891 Q354.5156 324.3418 355.2979 323.416 Q356.0801 322.4902 357.2988 322.4902 Q358.4531 322.4902 359.083 323.3105 Q359.7129 324.1309 359.7129 325.6426 L359.707 326 L355.6934 326 Q355.9453 328.2676 357.9141 328.2676 Q358.6348 328.2676 359.6836 327.8809 ZM355.7461 325.1328 L358.5527 325.1328 Q358.5527 323.3574 357.2285 323.3574 Q355.8984 323.3574 355.7461 325.1328 ZM363.6152 329.1465 Q362.7363 329.1465 362.2441 328.6426 Q361.752 328.1387 361.752 327.2422 L361.752 323.5039 L360.9551 323.5039 L360.9551 322.6367 L361.752 322.6367 L361.752 321.4824 L362.9062 321.3711 L362.9062 322.6367 L364.5703 322.6367 L364.5703 323.5039 L362.9062 323.5039 L362.9062 327.0312 Q362.9062 328.2793 363.9844 328.2793 Q364.2129 328.2793 364.541 328.2031 L364.541 329 Q364.0078 329.1465 363.6152 329.1465 ZM366.9316 329 L365.1094 322.6367 L366.2402 322.6367 L367.6348 327.5645 L369.1406 322.6367 L370.2949 322.6367 L371.6133 327.5645 L373.2129 322.6367 L374.2031 322.6367 L372.1289 329 L370.9688 329 L369.6211 324.0723 L368.0977 329 ZM377.9297 329.1465 Q376.5645 329.1465 375.75 328.2412 Q374.9355 327.3359 374.9355 325.8184 Q374.9355 324.2832 375.7529 323.3896 Q376.5703 322.4961 377.9707 322.4961 Q379.3711 322.4961 380.1885 323.3896 Q381.0059 324.2832 381.0059 325.8066 Q381.0059 327.3652 380.1855 328.2559 Q379.3652 329.1465 377.9297 329.1465 ZM377.9473 328.2793 Q379.7812 328.2793 379.7812 325.8066 Q379.7812 323.3633 377.9707 323.3633 Q376.166 323.3633 376.166 325.8184 Q376.166 328.2793 377.9473 328.2793 ZM382.8105 329 L382.8105 322.6367 L383.9648 322.6367 L383.9648 323.832 Q384.6504 322.4961 385.957 322.4961 Q386.1328 322.4961 386.3262 322.5254 L386.3262 323.6035 Q386.0273 323.5039 385.7988 323.5039 Q384.7031 323.5039 383.9648 324.8047 L383.9648 329 ZM387.7207 329 L387.7207 319.748 L388.875 319.748 L388.875 325.7246 L391.5703 322.6367 L392.8125 322.6367 L390.2402 325.6074 L393.3457 329 L391.8691 329 L388.875 325.7363 L388.875 329 Z"
                  clip-path="url(#clipPath16)" stroke="none"/>
            <rect x="97" y="413" clip-path="url(#clipPath17)"
                  fill="rgb(201,231,183)" width="119" rx="10" ry="10"
                  height="54" stroke="none"/>
            <rect x="97" y="413" clip-path="url(#clipPath17)" fill="none"
                  width="119" rx="10" ry="10" height="54"/>
            <rect x="196" y="420" clip-path="url(#clipPath17)" fill="none"
                  width="16" rx="4" ry="4" height="9" stroke="black"/>
            <path fill="black"
                  d="M144.5137 425.6836 L143.0371 421.9453 L141.5547 425.6836 ZM145.8145 429 L144.8711 426.5977 L141.1973 426.5977 L140.2422 429 L139.0996 429 L142.5391 420.3281 L143.7578 420.3281 L147.1445 429 ZM148 429 L148 428.1328 L151.9375 423.5039 L148.1816 423.5039 L148.1816 422.6367 L153.3613 422.6367 L153.3613 423.5039 L149.4238 428.1328 L153.4375 428.1328 L153.4375 429 ZM159.291 429 L159.291 427.8047 Q158.3711 429.1465 157.0586 429.1465 Q156.2266 429.1465 155.7344 428.6221 Q155.2422 428.0977 155.2422 427.207 L155.2422 422.6367 L156.3965 422.6367 L156.3965 426.832 Q156.3965 427.5469 156.6045 427.8486 Q156.8125 428.1504 157.2988 428.1504 Q158.3535 428.1504 159.291 426.7617 L159.291 422.6367 L160.4453 422.6367 L160.4453 429 ZM162.7598 429 L162.7598 422.6367 L163.9141 422.6367 L163.9141 423.832 Q164.5996 422.4961 165.9062 422.4961 Q166.082 422.4961 166.2754 422.5254 L166.2754 423.6035 Q165.9766 423.5039 165.748 423.5039 Q164.6523 423.5039 163.9141 424.8047 L163.9141 429 ZM172.334 428.7949 Q171.1738 429.1465 170.3477 429.1465 Q168.9414 429.1465 168.0537 428.2119 Q167.166 427.2773 167.166 425.7891 Q167.166 424.3418 167.9482 423.416 Q168.7305 422.4902 169.9492 422.4902 Q171.1035 422.4902 171.7334 423.3105 Q172.3633 424.1309 172.3633 425.6426 L172.3574 426 L168.3438 426 Q168.5957 428.2676 170.5645 428.2676 Q171.2852 428.2676 172.334 427.8809 ZM168.3965 425.1328 L171.2031 425.1328 Q171.2031 423.3574 169.8789 423.3574 Q168.5488 423.3574 168.3965 425.1328 Z"
                  clip-path="url(#clipPath18)" stroke="none"/>
            <path fill="black"
                  d="M139.6113 444.2168 Q137.8066 444.2168 136.708 442.9658 Q135.6094 441.7148 135.6094 439.6582 Q135.6094 437.5898 136.7139 436.3506 Q137.8184 435.1113 139.6641 435.1113 Q141.5039 435.1113 142.6113 436.3477 Q143.7188 437.584 143.7188 439.6465 Q143.7188 441.75 142.6113 442.9834 Q141.5039 444.2168 139.6113 444.2168 ZM139.6289 443.2969 Q140.959 443.2969 141.6855 442.3389 Q142.4121 441.3809 142.4121 439.6348 Q142.4121 437.9414 141.6826 436.9863 Q140.9531 436.0312 139.6641 436.0312 Q138.3691 436.0312 137.6426 436.9893 Q136.916 437.9473 136.916 439.6523 Q136.916 441.3516 137.6367 442.3242 Q138.3574 443.2969 139.6289 443.2969 ZM145.4766 446.3145 L145.4766 437.6367 L146.6309 437.6367 L146.6309 438.832 Q147.3398 437.4961 148.7578 437.4961 Q149.9062 437.4961 150.5654 438.334 Q151.2246 439.1719 151.2246 440.625 Q151.2246 442.207 150.4775 443.1768 Q149.7305 444.1465 148.5117 444.1465 Q147.3809 444.1465 146.6309 443.2793 L146.6309 446.3145 ZM146.6309 442.4824 Q147.5215 443.2793 148.3301 443.2793 Q149.9941 443.2793 149.9941 440.7422 Q149.9941 438.5039 148.5176 438.5039 Q147.5508 438.5039 146.6309 439.5527 ZM157.6934 443.7949 Q156.5332 444.1465 155.707 444.1465 Q154.3008 444.1465 153.4131 443.2119 Q152.5254 442.2773 152.5254 440.7891 Q152.5254 439.3418 153.3076 438.416 Q154.0898 437.4902 155.3086 437.4902 Q156.4629 437.4902 157.0928 438.3105 Q157.7227 439.1309 157.7227 440.6426 L157.7168 441 L153.7031 441 Q153.9551 443.2676 155.9238 443.2676 Q156.6445 443.2676 157.6934 442.8809 ZM153.7559 440.1328 L156.5625 440.1328 Q156.5625 438.3574 155.2383 438.3574 Q153.9082 438.3574 153.7559 440.1328 ZM159.7148 444 L159.7148 437.6367 L160.8691 437.6367 L160.8691 438.832 Q161.7832 437.4961 163.1074 437.4961 Q163.9336 437.4961 164.4258 438.0205 Q164.918 438.5449 164.918 439.4297 L164.918 444 L163.7637 444 L163.7637 439.8047 Q163.7637 439.0957 163.5557 438.7939 Q163.3477 438.4922 162.8672 438.4922 Q161.8066 438.4922 160.8691 439.8809 L160.8691 444 ZM171.5215 440.6836 L170.0449 436.9453 L168.5625 440.6836 ZM172.8223 444 L171.8789 441.5977 L168.2051 441.5977 L167.25 444 L166.1074 444 L169.5469 435.3281 L170.7656 435.3281 L174.1523 444 ZM175.4004 444 L175.4004 435.3281 L176.6309 435.3281 L176.6309 444 Z"
                  clip-path="url(#clipPath18)" stroke="none"/>
            <path fill="black"
                  d="M138.8184 459.2168 Q137.9453 459.2168 136.5859 458.8359 L136.5859 457.6172 Q138.0508 458.2969 138.9941 458.2969 Q139.7207 458.2969 140.1631 457.916 Q140.6055 457.5352 140.6055 456.9141 Q140.6055 456.4043 140.3154 456.0469 Q140.0254 455.6895 139.2461 455.25 L138.6484 454.9043 Q137.541 454.2715 137.0869 453.7119 Q136.6328 453.1523 136.6328 452.4082 Q136.6328 451.4062 137.3594 450.7588 Q138.0859 450.1113 139.2109 450.1113 Q140.2129 450.1113 141.3262 450.4453 L141.3262 451.5703 Q139.9551 451.0312 139.2812 451.0312 Q138.6426 451.0312 138.2266 451.3711 Q137.8105 451.7109 137.8105 452.2266 Q137.8105 452.6602 138.1152 452.9941 Q138.4199 453.3281 139.2285 453.791 L139.8496 454.1426 Q140.9746 454.7812 141.4199 455.3496 Q141.8652 455.918 141.8652 456.7148 Q141.8652 457.8457 141.0303 458.5312 Q140.1953 459.2168 138.8184 459.2168 ZM148.2812 458.7949 Q147.1211 459.1465 146.2949 459.1465 Q144.8887 459.1465 144.001 458.2119 Q143.1133 457.2773 143.1133 455.7891 Q143.1133 454.3418 143.8955 453.416 Q144.6777 452.4902 145.8965 452.4902 Q147.0508 452.4902 147.6807 453.3105 Q148.3105 454.1309 148.3105 455.6426 L148.3047 456 L144.291 456 Q144.543 458.2676 146.5117 458.2676 Q147.2324 458.2676 148.2812 457.8809 ZM144.3438 455.1328 L147.1504 455.1328 Q147.1504 453.3574 145.8262 453.3574 Q144.4961 453.3574 144.3438 455.1328 ZM150.3027 459 L150.3027 452.6367 L151.457 452.6367 L151.457 453.832 Q152.1426 452.4961 153.4492 452.4961 Q153.625 452.4961 153.8184 452.5254 L153.8184 453.6035 Q153.5195 453.5039 153.291 453.5039 Q152.1953 453.5039 151.457 454.8047 L151.457 459 ZM156.5312 459 L154.1641 452.6367 L155.3184 452.6367 L157.1699 457.5879 L159.1211 452.6367 L160.1992 452.6367 L157.6855 459 ZM161.4238 459 L161.4238 452.6367 L162.5781 452.6367 L162.5781 459 ZM161.4238 451.4824 L161.4238 450.3281 L162.5781 450.3281 L162.5781 451.4824 ZM167.377 459.1465 Q166.0879 459.1465 165.2383 458.1914 Q164.3887 457.2363 164.3887 455.7832 Q164.3887 454.2305 165.2295 453.3633 Q166.0703 452.4961 167.5762 452.4961 Q168.3203 452.4961 169.2402 452.7012 L169.2402 453.668 Q168.2617 453.3809 167.6465 453.3809 Q166.7617 453.3809 166.2256 454.0459 Q165.6895 454.7109 165.6895 455.8184 Q165.6895 456.8906 166.2402 457.5527 Q166.791 458.2148 167.6816 458.2148 Q168.4727 458.2148 169.3105 457.8105 L169.3105 458.8066 Q168.1914 459.1465 167.377 459.1465 ZM175.7031 458.7949 Q174.543 459.1465 173.7168 459.1465 Q172.3105 459.1465 171.4229 458.2119 Q170.5352 457.2773 170.5352 455.7891 Q170.5352 454.3418 171.3174 453.416 Q172.0996 452.4902 173.3184 452.4902 Q174.4727 452.4902 175.1025 453.3105 Q175.7324 454.1309 175.7324 455.6426 L175.7266 456 L171.7129 456 Q171.9648 458.2676 173.9336 458.2676 Q174.6543 458.2676 175.7031 457.8809 ZM171.7656 455.1328 L174.5723 455.1328 Q174.5723 453.3574 173.248 453.3574 Q171.918 453.3574 171.7656 455.1328 Z"
                  clip-path="url(#clipPath18)" stroke="none"/>
            <path fill="black"
                  d="M132.4688 474.9375 L132.4688 475.7344 Q131.2031 474.873 130.4619 473.3936 Q129.7207 471.9141 129.7207 470.2383 Q129.7207 468.5684 130.4619 467.0889 Q131.2031 465.6094 132.4688 464.748 L132.4688 465.5449 Q131.6074 466.4824 131.2412 467.5605 Q130.875 468.6387 130.875 470.2383 Q130.875 471.8438 131.2412 472.9219 Q131.6074 474 132.4688 474.9375 ZM138.7207 473.7949 Q137.5605 474.1465 136.7344 474.1465 Q135.3281 474.1465 134.4404 473.2119 Q133.5527 472.2773 133.5527 470.7891 Q133.5527 469.3418 134.335 468.416 Q135.1172 467.4902 136.3359 467.4902 Q137.4902 467.4902 138.1201 468.3105 Q138.75 469.1309 138.75 470.6426 L138.7441 471 L134.7305 471 Q134.9824 473.2676 136.9512 473.2676 Q137.6719 473.2676 138.7207 472.8809 ZM134.7832 470.1328 L137.5898 470.1328 Q137.5898 468.3574 136.2656 468.3574 Q134.9355 468.3574 134.7832 470.1328 ZM140.1035 474 L142.5234 470.7129 L140.1738 467.6367 L141.5449 467.6367 L143.4023 470.0859 L145.084 467.6367 L146.209 467.6367 L144.0059 470.8652 L146.4023 474 L145.0312 474 L143.1152 471.4805 L141.2637 474 ZM150.0117 474.1465 Q149.1328 474.1465 148.6406 473.6426 Q148.1484 473.1387 148.1484 472.2422 L148.1484 468.5039 L147.3516 468.5039 L147.3516 467.6367 L148.1484 467.6367 L148.1484 466.4824 L149.3027 466.3711 L149.3027 467.6367 L150.9668 467.6367 L150.9668 468.5039 L149.3027 468.5039 L149.3027 472.0312 Q149.3027 473.2793 150.3809 473.2793 Q150.6094 473.2793 150.9375 473.2031 L150.9375 474 Q150.4043 474.1465 150.0117 474.1465 ZM157.2539 473.7949 Q156.0938 474.1465 155.2676 474.1465 Q153.8613 474.1465 152.9736 473.2119 Q152.0859 472.2773 152.0859 470.7891 Q152.0859 469.3418 152.8682 468.416 Q153.6504 467.4902 154.8691 467.4902 Q156.0234 467.4902 156.6533 468.3105 Q157.2832 469.1309 157.2832 470.6426 L157.2773 471 L153.2637 471 Q153.5156 473.2676 155.4844 473.2676 Q156.2051 473.2676 157.2539 472.8809 ZM153.3164 470.1328 L156.123 470.1328 Q156.123 468.3574 154.7988 468.3574 Q153.4688 468.3574 153.3164 470.1328 ZM159.2754 474 L159.2754 467.6367 L160.4297 467.6367 L160.4297 468.832 Q161.1152 467.4961 162.4219 467.4961 Q162.5977 467.4961 162.791 467.5254 L162.791 468.6035 Q162.4922 468.5039 162.2637 468.5039 Q161.168 468.5039 160.4297 469.8047 L160.4297 474 ZM164.1855 474 L164.1855 467.6367 L165.3398 467.6367 L165.3398 468.832 Q166.2539 467.4961 167.5781 467.4961 Q168.4043 467.4961 168.8965 468.0205 Q169.3887 468.5449 169.3887 469.4297 L169.3887 474 L168.2344 474 L168.2344 469.8047 Q168.2344 469.0957 168.0264 468.7939 Q167.8184 468.4922 167.3379 468.4922 Q166.2773 468.4922 165.3398 469.8809 L165.3398 474 ZM174.9141 473.1914 Q173.877 474.1465 172.916 474.1465 Q172.125 474.1465 171.6035 473.6514 Q171.082 473.1562 171.082 472.4004 Q171.082 471.3574 171.958 470.7979 Q172.834 470.2383 174.4688 470.2383 L174.7441 470.2383 L174.7441 469.4707 Q174.7441 468.3633 173.6074 468.3633 Q172.6934 468.3633 171.6328 468.9258 L171.6328 467.9707 Q172.7988 467.4961 173.8184 467.4961 Q174.8848 467.4961 175.3916 467.9766 Q175.8984 468.457 175.8984 469.4707 L175.8984 472.3535 Q175.8984 473.3438 176.5078 473.3438 Q176.584 473.3438 176.7305 473.3203 L176.8125 473.959 Q176.4199 474.1465 175.9453 474.1465 Q175.1367 474.1465 174.9141 473.1914 ZM174.7441 472.5645 L174.7441 470.918 L174.3574 470.9062 Q173.4082 470.9062 172.8223 471.2666 Q172.2363 471.627 172.2363 472.2129 Q172.2363 472.6289 172.5293 472.916 Q172.8223 473.2031 173.2441 473.2031 Q173.9648 473.2031 174.7441 472.5645 ZM178.2598 474 L178.2598 464.748 L179.4141 464.748 L179.4141 474 ZM181.0078 474.9375 L181.0078 475.7344 Q182.2734 474.873 183.0146 473.3936 Q183.7559 471.9141 183.7559 470.2383 Q183.7559 468.5684 183.0146 467.0889 Q182.2734 465.6094 181.0078 464.748 L181.0078 465.5449 Q181.8691 466.4824 182.2354 467.5605 Q182.6016 468.6387 182.6016 470.2383 Q182.6016 471.8438 182.2354 472.9219 Q181.8691 474 181.0078 474.9375 Z"
                  clip-path="url(#clipPath18)" stroke="none"/>
            <rect x="478" y="430" clip-path="url(#clipPath19)"
                  fill="rgb(201,231,183)" width="119" rx="10" ry="10"
                  height="54" stroke="none"/>
            <rect x="478" y="430" clip-path="url(#clipPath19)" fill="none"
                  width="119" rx="10" ry="10" height="54"/>
            <rect x="577" y="437" clip-path="url(#clipPath19)" fill="none"
                  width="16" rx="4" ry="4" height="9" stroke="black"/>
            <path fill="black"
                  d="M516.1191 446 L516.1191 437.3281 L520.9648 437.3281 L520.9648 438.248 L517.3496 438.248 L517.3496 441.0312 L520.3789 441.0312 L520.3789 441.9395 L517.3496 441.9395 L517.3496 445.0801 L521.2168 445.0801 L521.2168 446 ZM522.623 446 L522.623 437.3281 L524.9844 437.3281 Q526.5547 437.3281 527.2402 437.8584 Q527.9258 438.3887 527.9258 439.6016 Q527.9258 440.9844 526.9883 441.7695 Q526.0508 442.5547 524.3867 442.5547 L523.8418 442.5547 L523.8418 446 ZM523.8418 441.623 L524.3398 441.623 Q525.4355 441.623 526.0332 441.1191 Q526.6309 440.6152 526.6309 439.6953 Q526.6309 438.916 526.1621 438.582 Q525.6934 438.248 524.5977 438.248 L523.8418 438.248 ZM533.6504 442.6836 L532.1738 438.9453 L530.6914 442.6836 ZM534.9512 446 L534.0078 443.5977 L530.334 443.5977 L529.3789 446 L528.2363 446 L531.6758 437.3281 L532.8945 437.3281 L536.2812 446 ZM541.332 446 L541.332 437.3281 L546.1777 437.3281 L546.1777 438.248 L542.5625 438.248 L542.5625 441.1543 L545.5977 441.1543 L545.5977 442.0625 L542.5625 442.0625 L542.5625 446 ZM547.7656 446 L547.7656 437.3281 L550.3906 437.3281 Q551.6387 437.3281 552.3037 437.8789 Q552.9688 438.4297 552.9688 439.4785 Q552.9688 441.2129 551.2168 441.9395 L554.1113 446 L552.5996 446 L550.1328 442.332 L548.9844 442.332 L548.9844 446 ZM548.9844 441.4121 L549.3828 441.4121 Q551.7031 441.4121 551.7031 439.5898 Q551.7031 438.248 549.7578 438.248 L548.9844 438.248 ZM557.0527 446.2168 Q556.1797 446.2168 554.8203 445.8359 L554.8203 444.6172 Q556.2852 445.2969 557.2285 445.2969 Q557.9551 445.2969 558.3975 444.916 Q558.8398 444.5352 558.8398 443.9141 Q558.8398 443.4043 558.5498 443.0469 Q558.2598 442.6895 557.4805 442.25 L556.8828 441.9043 Q555.7754 441.2715 555.3213 440.7119 Q554.8672 440.1523 554.8672 439.4082 Q554.8672 438.4062 555.5938 437.7588 Q556.3203 437.1113 557.4453 437.1113 Q558.4473 437.1113 559.5605 437.4453 L559.5605 438.5703 Q558.1895 438.0312 557.5156 438.0312 Q556.877 438.0312 556.4609 438.3711 Q556.0449 438.7109 556.0449 439.2266 Q556.0449 439.6602 556.3496 439.9941 Q556.6543 440.3281 557.4629 440.791 L558.084 441.1426 Q559.209 441.7812 559.6543 442.3496 Q560.0996 442.918 560.0996 443.7148 Q560.0996 444.8457 559.2646 445.5312 Q558.4297 446.2168 557.0527 446.2168 Z"
                  clip-path="url(#clipPath20)" stroke="none"/>
            <path fill="black"
                  d="M513.1191 461 L513.1191 452.3281 L515.7441 452.3281 Q516.9922 452.3281 517.6572 452.8789 Q518.3223 453.4297 518.3223 454.4785 Q518.3223 456.2129 516.5703 456.9395 L519.4648 461 L517.9531 461 L515.4863 457.332 L514.3379 457.332 L514.3379 461 ZM514.3379 456.4121 L514.7363 456.4121 Q517.0566 456.4121 517.0566 454.5898 Q517.0566 453.248 515.1113 453.248 L514.3379 453.248 ZM520.707 461 L520.707 452.3281 L525.5527 452.3281 L525.5527 453.248 L521.9375 453.248 L521.9375 456.0312 L524.9668 456.0312 L524.9668 456.9395 L521.9375 456.9395 L521.9375 460.0801 L525.8047 460.0801 L525.8047 461 ZM528.9102 461.2168 Q528.0371 461.2168 526.6777 460.8359 L526.6777 459.6172 Q528.1426 460.2969 529.0859 460.2969 Q529.8125 460.2969 530.2549 459.916 Q530.6973 459.5352 530.6973 458.9141 Q530.6973 458.4043 530.4072 458.0469 Q530.1172 457.6895 529.3379 457.25 L528.7402 456.9043 Q527.6328 456.2715 527.1787 455.7119 Q526.7246 455.1523 526.7246 454.4082 Q526.7246 453.4062 527.4512 452.7588 Q528.1777 452.1113 529.3027 452.1113 Q530.3047 452.1113 531.418 452.4453 L531.418 453.5703 Q530.0469 453.0312 529.373 453.0312 Q528.7344 453.0312 528.3184 453.3711 Q527.9023 453.7109 527.9023 454.2266 Q527.9023 454.6602 528.207 454.9941 Q528.5117 455.3281 529.3203 455.791 L529.9414 456.1426 Q531.0664 456.7812 531.5117 457.3496 Q531.957 457.918 531.957 458.7148 Q531.957 459.8457 531.1221 460.5312 Q530.2871 461.2168 528.9102 461.2168 ZM535.7363 461 L535.7363 453.248 L532.6602 453.248 L532.6602 452.3281 L540.043 452.3281 L540.043 453.248 L536.9668 453.248 L536.9668 461 ZM549.4531 457.6836 L547.9766 453.9453 L546.4941 457.6836 ZM550.7539 461 L549.8105 458.5977 L546.1367 458.5977 L545.1816 461 L544.0391 461 L547.4785 452.3281 L548.6973 452.3281 L552.084 461 ZM553.3379 461 L553.3379 452.3281 L555.6992 452.3281 Q557.2695 452.3281 557.9551 452.8584 Q558.6406 453.3887 558.6406 454.6016 Q558.6406 455.9844 557.7031 456.7695 Q556.7656 457.5547 555.1016 457.5547 L554.5566 457.5547 L554.5566 461 ZM554.5566 456.623 L555.0547 456.623 Q556.1504 456.623 556.748 456.1191 Q557.3457 455.6152 557.3457 454.6953 Q557.3457 453.916 556.877 453.582 Q556.4082 453.248 555.3125 453.248 L554.5566 453.248 ZM559.9648 461 L559.9648 452.3281 L561.1953 452.3281 L561.1953 461 Z"
                  clip-path="url(#clipPath20)" stroke="none"/>
            <path fill="black"
                  d="M513.4688 476.9375 L513.4688 477.7344 Q512.2031 476.873 511.4619 475.3936 Q510.7207 473.9141 510.7207 472.2383 Q510.7207 470.5684 511.4619 469.0889 Q512.2031 467.6094 513.4688 466.748 L513.4688 467.5449 Q512.6074 468.4824 512.2412 469.5605 Q511.875 470.6387 511.875 472.2383 Q511.875 473.8438 512.2412 474.9219 Q512.6074 476 513.4688 476.9375 ZM519.7207 475.7949 Q518.5605 476.1465 517.7344 476.1465 Q516.3281 476.1465 515.4404 475.2119 Q514.5527 474.2773 514.5527 472.7891 Q514.5527 471.3418 515.335 470.416 Q516.1172 469.4902 517.3359 469.4902 Q518.4902 469.4902 519.1201 470.3105 Q519.75 471.1309 519.75 472.6426 L519.7441 473 L515.7305 473 Q515.9824 475.2676 517.9512 475.2676 Q518.6719 475.2676 519.7207 474.8809 ZM515.7832 472.1328 L518.5898 472.1328 Q518.5898 470.3574 517.2656 470.3574 Q515.9355 470.3574 515.7832 472.1328 ZM521.1035 476 L523.5234 472.7129 L521.1738 469.6367 L522.5449 469.6367 L524.4023 472.0859 L526.084 469.6367 L527.209 469.6367 L525.0059 472.8652 L527.4023 476 L526.0312 476 L524.1152 473.4805 L522.2637 476 ZM531.0117 476.1465 Q530.1328 476.1465 529.6406 475.6426 Q529.1484 475.1387 529.1484 474.2422 L529.1484 470.5039 L528.3516 470.5039 L528.3516 469.6367 L529.1484 469.6367 L529.1484 468.4824 L530.3027 468.3711 L530.3027 469.6367 L531.9668 469.6367 L531.9668 470.5039 L530.3027 470.5039 L530.3027 474.0312 Q530.3027 475.2793 531.3809 475.2793 Q531.6094 475.2793 531.9375 475.2031 L531.9375 476 Q531.4043 476.1465 531.0117 476.1465 ZM538.2539 475.7949 Q537.0938 476.1465 536.2676 476.1465 Q534.8613 476.1465 533.9736 475.2119 Q533.0859 474.2773 533.0859 472.7891 Q533.0859 471.3418 533.8682 470.416 Q534.6504 469.4902 535.8691 469.4902 Q537.0234 469.4902 537.6533 470.3105 Q538.2832 471.1309 538.2832 472.6426 L538.2773 473 L534.2637 473 Q534.5156 475.2676 536.4844 475.2676 Q537.2051 475.2676 538.2539 474.8809 ZM534.3164 472.1328 L537.123 472.1328 Q537.123 470.3574 535.7988 470.3574 Q534.4688 470.3574 534.3164 472.1328 ZM540.2754 476 L540.2754 469.6367 L541.4297 469.6367 L541.4297 470.832 Q542.1152 469.4961 543.4219 469.4961 Q543.5977 469.4961 543.791 469.5254 L543.791 470.6035 Q543.4922 470.5039 543.2637 470.5039 Q542.168 470.5039 541.4297 471.8047 L541.4297 476 ZM545.1855 476 L545.1855 469.6367 L546.3398 469.6367 L546.3398 470.832 Q547.2539 469.4961 548.5781 469.4961 Q549.4043 469.4961 549.8965 470.0205 Q550.3887 470.5449 550.3887 471.4297 L550.3887 476 L549.2344 476 L549.2344 471.8047 Q549.2344 471.0957 549.0264 470.7939 Q548.8184 470.4922 548.3379 470.4922 Q547.2773 470.4922 546.3398 471.8809 L546.3398 476 ZM555.9141 475.1914 Q554.877 476.1465 553.916 476.1465 Q553.125 476.1465 552.6035 475.6514 Q552.082 475.1562 552.082 474.4004 Q552.082 473.3574 552.958 472.7979 Q553.834 472.2383 555.4688 472.2383 L555.7441 472.2383 L555.7441 471.4707 Q555.7441 470.3633 554.6074 470.3633 Q553.6934 470.3633 552.6328 470.9258 L552.6328 469.9707 Q553.7988 469.4961 554.8184 469.4961 Q555.8848 469.4961 556.3916 469.9766 Q556.8984 470.457 556.8984 471.4707 L556.8984 474.3535 Q556.8984 475.3438 557.5078 475.3438 Q557.584 475.3438 557.7305 475.3203 L557.8125 475.959 Q557.4199 476.1465 556.9453 476.1465 Q556.1367 476.1465 555.9141 475.1914 ZM555.7441 474.5645 L555.7441 472.918 L555.3574 472.9062 Q554.4082 472.9062 553.8223 473.2666 Q553.2363 473.627 553.2363 474.2129 Q553.2363 474.6289 553.5293 474.916 Q553.8223 475.2031 554.2441 475.2031 Q554.9648 475.2031 555.7441 474.5645 ZM559.2598 476 L559.2598 466.748 L560.4141 466.748 L560.4141 476 ZM562.0078 476.9375 L562.0078 477.7344 Q563.2734 476.873 564.0146 475.3936 Q564.7559 473.9141 564.7559 472.2383 Q564.7559 470.5684 564.0146 469.0889 Q563.2734 467.6094 562.0078 466.748 L562.0078 467.5449 Q562.8691 468.4824 563.2354 469.5605 Q563.6016 470.6387 563.6016 472.2383 Q563.6016 473.8438 563.2354 474.9219 Q562.8691 476 562.0078 476.9375 Z"
                  clip-path="url(#clipPath20)" stroke="none"/>
        </g>
        <g text-rendering="optimizeLegibility" font-size="13px"
           font-family="'.AppleSystemUIFont'" stroke-linecap="butt">
            <path fill="none" d="M76 64 L76 178" clip-path="url(#clipPath21)"/>
            <path fill="none" d="M76 178 L80 169" clip-path="url(#clipPath22)"/>
            <path fill="none" d="M141 64 L250 190" clip-path="url(#clipPath23)"/>
            <path fill="none" d="M250 190 L247 181" clip-path="url(#clipPath24)"/>
            <path fill="none"
                  d="M141 64 L311 127 L313 125 L315 124 L318 124 L320 126 L321 128 L321 131 L478 190"
                  clip-path="url(#clipPath25)"/>
            <path fill="none" d="M478 190 L471 183" clip-path="url(#clipPath26)"/>
            <path fill="none"
                  d="M141 64 L311 101 L312 99 L314 97 L317 97 L319 98 L321 100 L321 103 L424 126 L425 124 L427 122 L430 122 L432 123 L434 125 L434 128 L551 153 L552 151 L554 149 L557 149 L559 150 L561 152 L561 155 L718 190"
                  clip-path="url(#clipPath27)"/>
            <path fill="none" d="M718 190 L710 184" clip-path="url(#clipPath28)"/>
            <path fill="none" d="M141 64 L313 301" clip-path="url(#clipPath29)"/>
            <circle r="3.5" clip-path="url(#clipPath30)" cx="143.5" cy="66.5"
                    stroke="none"/>
            <polygon points=" 313 301 306 297 311 294"
                     clip-path="url(#clipPath31)" stroke="none"/>
            <polygon fill="none" points=" 313 301 306 297 311 294"
                     clip-path="url(#clipPath31)"/>
            <path fill="none" d="M316 64 L316 190" clip-path="url(#clipPath32)"/>
            <path fill="none" d="M316 190 L320 181" clip-path="url(#clipPath33)"/>
            <path fill="none" d="M381 64 L478 190" clip-path="url(#clipPath34)"/>
            <path fill="none" d="M478 190 L476 180" clip-path="url(#clipPath35)"/>
            <path fill="none" d="M556 64 L556 190" clip-path="url(#clipPath36)"/>
            <path fill="none" d="M556 190 L560 181" clip-path="url(#clipPath37)"/>
            <path fill="none" d="M340 298 L340 244" clip-path="url(#clipPath38)"/>
            <path fill="none" d="M343 251 L340 244 L337 251"
                  clip-path="url(#clipPath39)"/>
            <path fill="none" d="M213 416 L250 244" clip-path="url(#clipPath40)"/>
            <path fill="none" d="M251 251 L250 244 L246 250"
                  clip-path="url(#clipPath41)"/>
            <path fill="none" d="M213 416 L478 244" clip-path="url(#clipPath42)"/>
            <path fill="none" d="M474 250 L478 244 L470 245"
                  clip-path="url(#clipPath43)"/>
            <path fill="none" d="M426 301 L718 244" clip-path="url(#clipPath44)"/>
            <path fill="none" d="M712 248 L718 244 L711 242"
                  clip-path="url(#clipPath45)"/>
            <path fill="none" d="M594 433 L718 244" clip-path="url(#clipPath46)"/>
            <path fill="none" d="M717 251 L718 244 L712 248"
                  clip-path="url(#clipPath47)"/>
        </g>
    </g>
</svg>
